<svg id="Layer_1" data-name="Layer 1" xmlns="http://www.w3.org/2000/svg" viewBox="0 0 332.17 1001.95">
  <defs>
    <style>
      .cls-1, .cls-2, .cls-3, .cls-4, .cls-5, .cls-6 {
        fill: none;
        stroke: #fde8e9;
        stroke-linejoin: bevel;
      }

      .cls-1, .cls-6 {
        stroke-width: 1.42px;
      }

      .cls-2, .cls-5 {
        stroke-width: 0.71px;
      }

      .cls-3 {
        stroke-width: 0.14px;
      }

      .cls-4 {
        stroke-width: 1.13px;
      }

      .cls-5, .cls-6 {
        fill-rule: evenodd;
      }
    </style>
  </defs>
  <title>model-fpl3</title>
  <g>
    <line class="cls-1" x1="0.71" y1="1.12" x2="100.63" y2="1.12"/>
    <line class="cls-1" x1="0.71" y1="34.46" x2="116.44" y2="34.46"/>
    <line class="cls-2" x1="0.71" y1="6.22" x2="107.85" y2="6.22"/>
    <line class="cls-2" x1="0.71" y1="30.29" x2="124.04" y2="30.29"/>
    <line class="cls-2" x1="0.71" y1="26.12" x2="124.04" y2="26.12"/>
    <path class="cls-1" d="M115.73,33.22a11.49,11.49,0,0,1,1-2,5.54,5.54,0,0,1,1.56-1.54c1.42-.9,3.2-0.88,5-0.67" transform="translate(0.71 1.24)"/>
    <line class="cls-1" x1="124.04" y1="30.29" x2="124.04" y2="26.12"/>
    <path class="cls-1" d="M116.31,24.88c7,0,11.49-.19,14.69-0.3,5.12-.17,7-0.13,8-0.83s1.43-2.42,1.09-3.93a9,9,0,0,0-1.95-3.62c-3.75-4.56-10-7-15.44-8.65C118.23,6.2,114.25,5.39,104,4.76" transform="translate(0.71 1.24)"/>
    <line class="cls-1" x1="107.85" y1="6.22" x2="107.85" y2="4.29"/>
    <path class="cls-1" d="M107.14,3c-1.19-.21-2.38-0.42-3.7-0.72s-2.63-.66-3.21-1.59a2.55,2.55,0,0,1-.32-0.86" transform="translate(0.71 1.24)"/>
    <line class="cls-2" x1="107.85" y1="4.29" x2="0.71" y2="4.29"/>
    <line class="cls-1" x1="140.68" y1="1001.24" x2="0.71" y2="1001.24"/>
    <line class="cls-1" x1="140.68" y1="1001.24" x2="140.68" y2="972.07"/>
    <line class="cls-1" x1="136.52" y1="967.9" x2="0.71" y2="967.9"/>
    <line class="cls-1" x1="140.68" y1="972.07" x2="136.52" y2="967.9"/>
    <line class="cls-3" x1="140.68" y1="972.07" x2="0.71" y2="972.07"/>
    <line class="cls-2" x1="0.71" y1="795.29" x2="30.59" y2="795.29"/>
    <line class="cls-2" x1="57.12" y1="795.29" x2="71.71" y2="795.29"/>
    <line class="cls-2" x1="59.92" y1="795.29" x2="59.92" y2="804.58"/>
    <line class="cls-2" x1="69.43" y1="804.58" x2="0.71" y2="804.58"/>
    <path class="cls-2" d="M59.21,803.34c5,3.61,10,7.23,10.06,12.81,0,2.37-.83,5.09-2.54,6.43s-4.14,1.28-6.61,1.27" transform="translate(0.71 1.24)"/>
    <line class="cls-2" x1="77.49" y1="825.09" x2="0.71" y2="825.09"/>
    <line class="cls-2" x1="60.83" y1="825.09" x2="60.83" y2="828.92"/>
    <line class="cls-2" x1="77.49" y1="828.92" x2="0.71" y2="828.92"/>
    <path class="cls-2" d="M60.12,827.68c-1.54,1.19-3.08,2.37-3.39,3.85-0.45,2.17,1.77,5,4.09,6.31a13.42,13.42,0,0,0,3.31,1.24" transform="translate(0.71 1.24)"/>
    <line class="cls-2" x1="81.5" y1="840.32" x2="0.71" y2="840.32"/>
    <line class="cls-2" x1="64.84" y1="840.32" x2="64.84" y2="967.9"/>
    <line class="cls-2" x1="64.18" y1="795.29" x2="71.71" y2="795.29"/>
    <line class="cls-1" x1="97.86" y1="795.29" x2="106.72" y2="795.29"/>
    <line class="cls-1" x1="106.72" y1="795.29" x2="106.72" y2="804.58"/>
    <line class="cls-2" x1="106.72" y1="804.58" x2="104.37" y2="804.58"/>
    <line class="cls-2" x1="69.43" y1="804.58" x2="64.18" y2="804.58"/>
    <path class="cls-1" d="M106,803.34c5,3.61,10,7.23,10.06,12.81,0,2.37-.83,5.09-2.54,6.43s-4.14,1.28-6.62,1.27" transform="translate(0.71 1.24)"/>
    <line class="cls-2" x1="109.05" y1="825.09" x2="96.28" y2="825.09"/>
    <line class="cls-2" x1="77.74" y1="825.09" x2="64.18" y2="825.09"/>
    <line class="cls-1" x1="107.63" y1="825.09" x2="107.63" y2="828.92"/>
    <line class="cls-2" x1="107.63" y1="828.92" x2="95.7" y2="828.92"/>
    <line class="cls-2" x1="83.64" y1="828.92" x2="64.18" y2="828.92"/>
    <path class="cls-1" d="M106.92,827.68c-1.54,1.19-3.08,2.37-3.39,3.85-0.45,2.17,1.77,5,4.09,6.31a13.43,13.43,0,0,0,3.3,1.24" transform="translate(0.71 1.24)"/>
    <line class="cls-2" x1="111.63" y1="840.32" x2="64.18" y2="840.32"/>
    <line class="cls-1" x1="111.63" y1="840.32" x2="111.63" y2="967.9"/>
    <path class="cls-2" d="M84.09,35.28a6.45,6.45,0,0,1,.72-0.88,5.28,5.28,0,0,1,1.9-1.18" transform="translate(0.71 1.24)"/>
    <path class="cls-1" d="M93.1,33.22a15,15,0,0,1,7.59,5.58c3.49,4.74,4.3,11,3.35,17.12-0.9,5.83-3.38,11.6-7.45,14.78a15.68,15.68,0,0,1-5.31,2.64" transform="translate(0.71 1.24)"/>
    <path class="cls-1" d="M92.93,209.38c1.22,1,2.46,1.95,3.7,2.92" transform="translate(0.71 1.24)"/>
    <path class="cls-2" d="M36.79,36A9.44,9.44,0,0,1,38,34.4a5.26,5.26,0,0,1,1.9-1.18" transform="translate(0.71 1.24)"/>
    <path class="cls-2" d="M46.3,33.22a15,15,0,0,1,7.59,5.58c3.49,4.74,4.3,11,3.35,17.12-0.9,5.83-3.38,11.6-7.45,14.78s-9.91,3.81-16,3.81" transform="translate(0.71 1.24)"/>
    <path class="cls-2" d="M33.75,74.51c-4.45-1.05-8.89-2.1-11.76-5-4.57-4.63-5.12-14-1-20.34,3.56-5.46,10.57-8.77,16-6.92a11.23,11.23,0,0,1,6.71,7c1.16,3.33,1,7.38-1.07,9.58-1.36,1.46-3.56,2.12-5.75,2.77" transform="translate(0.71 1.24)"/>
    <path class="cls-2" d="M86.15,55.34c-2.78-1.65-5.57-3.3-8.52-3.93-4.81-1-10.09.62-15.08,2.51-1.82.69-3.61,1.41-5.35,2.18" transform="translate(0.71 1.24)"/>
    <path class="cls-2" d="M33.45,74.44a44.17,44.17,0,0,0-7.6,17.62,25.05,25.05,0,0,0,.54,12.37c1.39,4.2,4.28,8.2,4.37,12.12,0.1,4.59-3.62,9.09-5.35,14.09a22.24,22.24,0,0,0,3.26,20.28c1.94,2.6,4.48,4.78,5.78,7.35,3.13,6.18-.82,14.65-0.35,22.41,0.39,6.37,3.75,12.25,8.23,16.46a20,20,0,0,0,12.79,5.78c2.78,0.18,5.9-.17,7-2.28a3.57,3.57,0,0,0,0-3.33c-0.67-1.2-2.22-2.08-3.33-1.75A4,4,0,0,0,57,197.14" transform="translate(0.71 1.24)"/>
    <path class="cls-2" d="M0,154c3.5,10.72,7.35,21.31,12.76,31.24,7.3,13.39,17.45,25.6,33.84,30.39,9.54,2.78,21.19,3.05,26.26-3.23,3.19-4,3.78-10.5,2.56-16.46-1.14-5.59-3.88-10.65-8.94-12.83-4.23-1.81-10.08-1.61-13,1.46-1.7,1.81-2.38,4.61-2.37,7.32a7.28,7.28,0,0,0,1.6,5.09c0.76,0.84,1.87,1.51,2,2.51a3.75,3.75,0,0,1-.07,1.11" transform="translate(0.71 1.24)"/>
    <path class="cls-2" d="M54.7,200.58a4.55,4.55,0,0,0,2.07-2.11c0.22-.77-0.08-1.74.11-2.6a3.5,3.5,0,0,1,1.89-2.22c1.61-.81,3.47-0.37,5.27-0.8a5.23,5.23,0,0,0,3.56-2.63,7.16,7.16,0,0,0,.44-2.59" transform="translate(0.71 1.24)"/>
    <path class="cls-2" d="M73.54,208.22c0.17-2.45.34-4.9-.75-6.71a7.9,7.9,0,0,0-3.71-2.91c-1.32-.58-2.79-1-3.27-2.25-0.31-.84-0.21-2.06-0.88-2.43a2.21,2.21,0,0,0-.79-0.18" transform="translate(0.71 1.24)"/>
    <path class="cls-2" d="M64.13,193.74a10.36,10.36,0,0,1,4-1.36,5.12,5.12,0,0,1,4,1.44,7,7,0,0,1,1.09,2" transform="translate(0.71 1.24)"/>
    <path class="cls-2" d="M72.17,194.38a2.74,2.74,0,0,0-.26-1.11,3.92,3.92,0,0,0-1.5-1,1.64,1.64,0,0,1-.91-1.05,2.36,2.36,0,0,0-.12-0.9,1.09,1.09,0,0,0-.53-0.3" transform="translate(0.71 1.24)"/>
    <path class="cls-2" d="M68.84,190a3.34,3.34,0,0,1,1-.9,2.13,2.13,0,0,1,1.92.09,3.3,3.3,0,0,1,.85.84" transform="translate(0.71 1.24)"/>
    <path class="cls-2" d="M50.74,200.63c-2.33-3-4.66-6-5.87-9.34-2.14-6-.77-13.15,1.81-19.43,2.46-6,6-11.14,6.3-17.53,0.17-4.2-1.08-8.94-4.32-11.47-4-3.15-11.14-2.86-13.71-6.74-2.07-3.11-1.21-8.91,2-12.1,2.86-2.86,7.59-3.63,8.95-6.39s-0.67-7.54-3.48-10.45c-2.19-2.26-4.85-3.4-6.51-5.57-2.81-3.7-2.71-10.41-.23-14.55,2.83-4.73,8.77-6.12,14.41-8.25,4.4-1.66,8.61-3.76,10.69-7.32,2.44-4.16,2-10.31,5.16-14.28a10.06,10.06,0,0,1,8.52-3.71A8.6,8.6,0,0,1,81,57.65c1,1.85,1.07,4.12,2,6,0.09,0.2.19,0.39,0.29,0.58" transform="translate(0.71 1.24)"/>
    <path class="cls-2" d="M96.48,58.74a9,9,0,0,0-3.56.32c-3.38,1.29-5.23,7.09-8.67,7a21.79,21.79,0,0,1-2.6-.5c-3.65-.57-6.79,2.5-9.49,5.62-6,6.87-9.86,13.93-10.54,22a28.61,28.61,0,0,0,1.05,10.62c2.05,6.75,6.94,12.3,10.27,18.55s5.12,13.3,6.43,20.37c1.94,10.52,2.86,21.17,1.63,31.73-1.08,9.27-3.8,18.47-2.2,27.78a18.69,18.69,0,0,0,3.3,8.34,25,25,0,0,0,4.22,3.94" transform="translate(0.71 1.24)"/>
    <path class="cls-1" d="M86.15,55.34c2.82-.58,5.63-1.16,8.77-0.32,1.81,0.48,3.73,1.44,4.24,2.78,0.67,1.75-1.09,4.15-2.36,6.21-1,1.66-1.73,3.11-2.69,4.63-1.73,2.75-4.26,5.71-3.34,9.13,0.29,1.09.93,2.22,0.85,3-0.18,1.58-3.61,1.41-6.2,2.13A9,9,0,0,0,79,89.6c-1.2,4.73.92,9.68,4.1,14.57,2.58,4,5.85,7.9,5.06,11.2-0.67,2.82-4.31,5.18-7.23,7.62a52.86,52.86,0,0,0-5.36,5.28" transform="translate(0.71 1.24)"/>
    <path class="cls-1" d="M79.21,141.83a23.62,23.62,0,0,1,6.05,5.43,17.86,17.86,0,0,1,3.1,14c-1,4.1-3.85,7.42-7.1,10.59" transform="translate(0.71 1.24)"/>
    <path class="cls-1" d="M79.82,182.32a29.2,29.2,0,0,1,6.9,0c6.55,0.89,14.15,5.06,15.1,11,0.54,3.37-1.07,7.31,0,10.62a13.94,13.94,0,0,0,1.06,2.27" transform="translate(0.71 1.24)"/>
    <path class="cls-1" d="M102.88,206.2A12.5,12.5,0,0,0,99,204.79a5.46,5.46,0,0,0-3.42.62,6.21,6.21,0,0,0-2.72,5.92,9.53,9.53,0,0,0,1.53,3.48" transform="translate(0.71 1.24)"/>
    <path class="cls-2" d="M65.26,51.16a19.71,19.71,0,0,1,3.15-6.39,10,10,0,0,1,6.4-3.15c1.91-.28,4.14-0.28,4.55-1.7a4,4,0,0,0,.1-0.95" transform="translate(0.71 1.24)"/>
    <path class="cls-2" d="M79.46,39c1.31,1,2.61,2,3,3.45a5.84,5.84,0,0,1-1.05,4.8,10.86,10.86,0,0,1-.85,1" transform="translate(0.71 1.24)"/>
    <path class="cls-2" d="M80.61,48.22c1.35-.8,2.7-1.61,3.9-1.15,0.76,0.29,1.46,1.09,2.25,1.25a3.74,3.74,0,0,0,2-.4" transform="translate(0.71 1.24)"/>
    <path class="cls-2" d="M88.75,47.91c-0.11,1.78-.23,3.56-1.4,4.25-0.57.33-1.39,0.41-2,.7A4.07,4.07,0,0,0,83.87,54" transform="translate(0.71 1.24)"/>
    <path class="cls-2" d="M86.66,45.26c1.54-1.13,3.07-2.26,4.8-2.4C93.57,42.7,96,44,98,43.42a7.72,7.72,0,0,0,1.65-.8" transform="translate(0.71 1.24)"/>
    <path class="cls-2" d="M99.65,42.62c0.22,2.29.44,4.58-.45,6.34s-2.93,3-5.1,3.9A4.31,4.31,0,0,0,92.15,54a2,2,0,0,0-.28.59" transform="translate(0.71 1.24)"/>
    <path class="cls-2" d="M86.66,45.26c1.14-1,2.28-2,3.52-3.23,0.94-.91,1.94-1.93,1.88-3.1,0-.88-0.69-1.86-0.56-2.69a3.52,3.52,0,0,1,1-1.63" transform="translate(0.71 1.24)"/>
    <path class="cls-2" d="M92.52,34.62a38.52,38.52,0,0,0-4.63-.06,13.77,13.77,0,0,0-6.51,2c-1.08.67-2.12,1.55-3.32,1.25a1.75,1.75,0,0,1-1.32-1.1,1.56,1.56,0,0,1,.31-1.19,3.72,3.72,0,0,1,1.13-.94" transform="translate(0.71 1.24)"/>
    <path class="cls-2" d="M56.93,33.22A12.86,12.86,0,0,1,62,37.07c1.8,2.54,2.2,6.28,1.61,9.54a17.41,17.41,0,0,1-1.31,4.13A30.86,30.86,0,0,1,59.91,55" transform="translate(0.71 1.24)"/>
    <path class="cls-2" d="M37.57,745.88c-2.24,4.13-4.48,8.25-7.54,9-4.52,1.1-10.83-5.18-12.61-11.93-1.84-7,1.14-14.42,6-16.88,6-3,14.72,1.55,20.94,7,9,7.88,12.72,17.54,15.31,28.16,2.25,9.21,3.67,19.13-.19,27.8-1.83,4.09-4.83,7.91-8.75,9.8-4.85,2.34-11.09,1.74-16.22-1.2C28,793.87,23.24,786.37,25,779.27c1.32-5.46,6.45-10.68,12-10.43,4.55,0.21,9.38,4.11,10,8.39a13.71,13.71,0,0,1-.14,3.74" transform="translate(0.71 1.24)"/>
    <path class="cls-2" d="M53,752.91c-1.42-4.27-2.85-8.54-6.36-11-3.18-2.21-8.07-2.94-11.44-1.07-1.6.89-2.85,2.36-4.63,2.89a4.68,4.68,0,0,1-3.83-.45,6.46,6.46,0,0,1-1-.93" transform="translate(0.71 1.24)"/>
    <path class="cls-2" d="M25.69,742.37c2.65-2.4,5.31-4.8,3.52-6.18-0.89-.69-2.88-1.13-3.52-0.36a2.43,2.43,0,0,0-.22,1.74c0.19,1.6.75,3.2-.13,4.14-0.61.65-1.91,1-2.31,1.69s0.1,1.87.53,2.85,0.76,1.68,1.11,2.45" transform="translate(0.71 1.24)"/>
    <path class="cls-3" d="M24.67,748.69a9.72,9.72,0,0,1-2.63.58,4.9,4.9,0,0,1-1.82-.33" transform="translate(0.71 1.24)"/>
    <path class="cls-2" d="M58.19,780.2c-0.72,3.39-1.43,6.77-4.08,8.38-2.08,1.26-5.35,1.43-7.31,0-1.43-1-2.17-3-3.44-4.08a8.39,8.39,0,0,0-4.87-1.65,3.47,3.47,0,0,1-2.22-.65,3.18,3.18,0,0,1-.5-1.65" transform="translate(0.71 1.24)"/>
    <path class="cls-2" d="M35.76,780.56a11.68,11.68,0,0,0-3.22,4,8,8,0,0,0-.06,4.92,8.8,8.8,0,0,0,1,2.34,16.75,16.75,0,0,0,4.22,4" transform="translate(0.71 1.24)"/>
    <path class="cls-2" d="M30.72,785.27c0.16-1.67.32-3.33,1.47-4.52,1-1,2.73-1.7,2.83-3,0.05-.66-0.33-1.49-0.11-2.12a2.54,2.54,0,0,1,.76-0.93" transform="translate(0.71 1.24)"/>
    <path class="cls-2" d="M35.67,774.71a8,8,0,0,0-3.25-.77A5,5,0,0,0,28.8,776a4.45,4.45,0,0,0-.88,2.91,7.42,7.42,0,0,0,.37,1.58" transform="translate(0.71 1.24)"/>
    <path class="cls-2" d="M32,774a4.73,4.73,0,0,1,1.5-1.19,4.93,4.93,0,0,1,5.33,1.39c0.83,0.9,1.35,2.11,2.38,2.19a6,6,0,0,1,1.74,0,2.07,2.07,0,0,1,.78.91" transform="translate(0.71 1.24)"/>
    <path class="cls-2" d="M43.73,777.24A4.8,4.8,0,0,0,45,774.83c0-1-1-2-1.94-2.92" transform="translate(0.71 1.24)"/>
    <path class="cls-2" d="M46.82,781a4.74,4.74,0,0,0-.79,2.52,4.69,4.69,0,0,0,.49,1.41" transform="translate(0.71 1.24)"/>
    <path class="cls-2" d="M46.52,784.9a8.67,8.67,0,0,0-1.35,0,11.67,11.67,0,0,0-1.17.24" transform="translate(0.71 1.24)"/>
    <path class="cls-2" d="M77.36,714.34c1.13,5.71-.44,10.46-3.52,11.79s-7.67-.77-10-5.38-2.5-11.75-1.25-15.46,3.88-4,6.7-2.91a17.27,17.27,0,0,1,8.09,7.38,27.5,27.5,0,0,1,3.72,14.32c-0.08,5.46-1.77,11.31-5.23,15s-8.7,5.22-14.28,4.49-11.51-3.7-19.06-13-16.71-24.84-23.12-43-10-39-12.45-51.39S3.36,619.81,1.39,604C1,600.53.48,596.48,0,592.11" transform="translate(0.71 1.24)"/>
    <path class="cls-2" d="M67,741.36c-2,2.08-4.09,4.17-4,6.2,0.09,2.65,3.76,5.21,4.87,8.31a9.58,9.58,0,0,1-.21,6c-0.1.32-.21,0.64-0.32,1" transform="translate(0.71 1.24)"/>
    <path class="cls-2" d="M67.27,762.86l3.48-.84" transform="translate(0.71 1.24)"/>
    <path class="cls-2" d="M70.75,762c0.73,1.91,1.19,3.69.33,4.81-0.66.86-2.09,1.34-3.22,2.15A8.51,8.51,0,0,0,65,777.8c0.61,2.3,2.23,4.12,3.22,6.28a8.34,8.34,0,0,1,.68,2.12,12.67,12.67,0,0,1,.08,2.37" transform="translate(0.71 1.24)"/>
    <path class="cls-2" d="M69,788.57c4.41-1.73,8.83-3.46,10.69-7,1.71-3.21,1.28-7.9-.17-11.7-0.75-2-1.77-3.7-2.29-5.6a23.68,23.68,0,0,1-.59-5.43" transform="translate(0.71 1.24)"/>
    <path class="cls-2" d="M71.59,787.52c-0.23,1.06-.43,2.13-0.59,3.23a8.61,8.61,0,0,0,0,3.3c0.28,1.11,1,2.12,1.34,3.23a10.93,10.93,0,0,1,.32,1.49" transform="translate(0.71 1.24)"/>
    <path class="cls-2" d="M72.67,798.78a19.79,19.79,0,0,0,6.14-2A11.93,11.93,0,0,0,84,789.91a21,21,0,0,0,.59-4.27" transform="translate(0.71 1.24)"/>
    <path class="cls-2" d="M71.63,795.63a12.5,12.5,0,0,0-1.91,2.61c-1.21,2.31-1.55,5.49-.11,7.51,0.74,1,1.95,1.76,2.52,2.9a4.22,4.22,0,0,1,.16,3.16c-0.08.22-.17,0.43-0.27,0.64" transform="translate(0.71 1.24)"/>
    <path class="cls-2" d="M72,812.44c4.16-.7,8.32-1.4,10.78-4.24a10.72,10.72,0,0,0,2.41-7A19.31,19.31,0,0,0,84.8,798" transform="translate(0.71 1.24)"/>
    <path class="cls-2" d="M75.41,811.82a10,10,0,0,0-1,4.87,18.73,18.73,0,0,0,1.63,5c0.63,1.54,1.19,3.1,2.45,4.1,2.33,1.87,7,1.81,7.76,4.31a5.54,5.54,0,0,1-.43,3.23c-0.17.42-.35,0.8-0.54,1.19" transform="translate(0.71 1.24)"/>
    <path class="cls-2" d="M85.32,834.52c3-.82,6.1-1.65,8-3.77,2.72-3.08,3-8.88.84-12.73-1-1.77-2.48-3.12-3.28-4.84a15.21,15.21,0,0,1-1-4.23" transform="translate(0.71 1.24)"/>
    <path class="cls-2" d="M93.9,817.6a10.08,10.08,0,0,0,1.18-2.29,9.35,9.35,0,0,0-1.14-7.85,15.59,15.59,0,0,0-1.68-2,11.6,11.6,0,0,1-2.82-4,2.15,2.15,0,0,1-.11-1.62,2.27,2.27,0,0,1,.43-0.54" transform="translate(0.71 1.24)"/>
    <path class="cls-2" d="M102,812.87a14.47,14.47,0,0,0-3.5-3.88A10.22,10.22,0,0,0,94,807.62" transform="translate(0.71 1.24)"/>
    <path class="cls-2" d="M102,812.87a14.64,14.64,0,0,0,2.13-4.2c0.75-3-.65-6.5-2.57-9.29s-4.49-5-6.14-7.73a20,20,0,0,1-2.54-9.54c0-1.24,0-2.46.09-3.68" transform="translate(0.71 1.24)"/>
    <path class="cls-1" d="M100.15,698.93c3.43,1.64,6.81,3.35,9.33,6.05,0.48,0.51.93,1.06,1.38,1.62" transform="translate(0.71 1.24)"/>
    <path class="cls-1" d="M110.86,706.6a60.23,60.23,0,0,0,.36,13.52c0.22,1.42.52,2.91-.3,3.71a3.93,3.93,0,0,1-1,.6" transform="translate(0.71 1.24)"/>
    <path class="cls-1" d="M109.45,707.35a18.81,18.81,0,0,0-3.56,5.26c-1.82,4.26-2.68,11.41-2.63,17.45" transform="translate(0.71 1.24)"/>
    <path class="cls-1" d="M103.26,730.07a2.75,2.75,0,0,1,1.1,0c1.39,0.45,1.2,3,1.18,5.27s0.14,4.28-1.21,5.11a4,4,0,0,1-2,.47,6.1,6.1,0,0,1-3.43-1.12" transform="translate(0.71 1.24)"/>
    <path class="cls-1" d="M110,724.43a6.38,6.38,0,0,1-3.12-.07,10.37,10.37,0,0,1-2.22-1.59,10.78,10.78,0,0,0-.94-0.64" transform="translate(0.71 1.24)"/>
    <path class="cls-1" d="M98.88,739.85a170.17,170.17,0,0,1,5.28,20.82c1.31,7.89,1.55,16.08-.31,23.84a23.24,23.24,0,0,1-2,5.64,12,12,0,0,1-1.91,2.67,10.61,10.61,0,0,1-1.44,1.23" transform="translate(0.71 1.24)"/>
    <path class="cls-2" d="M77.4,705.67a37.4,37.4,0,0,0-5.65-4.35c-2.49-1.46-5.44-2.48-7.21-4.42-2.7-3-2.68-8.07-4.28-12.15-1.84-4.72-5.85-8.07-8.4-12.32a23.21,23.21,0,0,1-2.51-17.33c0.88-3.65,2.64-7.24,5.67-8.83a6.52,6.52,0,0,1,5.56-.33c1.37,0.55,2.74,1.61,3.71,1a3.31,3.31,0,0,0,.65-0.65" transform="translate(0.71 1.24)"/>
    <path class="cls-3" d="M65,646.27a8,8,0,0,1-.75,4.17c-0.55,1-1.51,2-2.44,1.8a2.66,2.66,0,0,1-.51-0.21" transform="translate(0.71 1.24)"/>
    <path class="cls-2" d="M61.25,652c1.86,0.48,3.73,1,4.54,2.35s0.51,4.08,1.63,5.31a5.8,5.8,0,0,0,3.17,1.24" transform="translate(0.71 1.24)"/>
    <path class="cls-2" d="M70.58,660.93c-1,2.33-2.08,4.67-4.2,5.74s-5.75.86-7.15,2.58c-1,1.18-.93,3.31-0.6,5.18A19.93,19.93,0,0,0,61.9,682a18,18,0,0,1,2.87,5.61c0.42,1.9.17,4.06,0.94,5.69s2.45,2.65,4.15,3.72" transform="translate(0.71 1.24)"/>
    <path class="cls-2" d="M28.86,210.15c2,0,3.91,0,5.81.11" transform="translate(0.71 1.24)"/>
    <path class="cls-2" d="M49.94,216.45c5.27,5.13,9,12.95,11.61,20.58,5.87,17,6.55,33.07,6,49.39-0.83,25.43-4.6,51.37-9.3,77-6.84,37.36-15.64,74-19.94,111.31-4.95,42.84-4,86.47-.28,130,2.6,30.77,6.55,61.49,12.06,91.08,1.77,9.52,3.71,18.92,7.47,28.59,1.63,4.19,3.61,8.43,7.49,10.4,2.8,1.41,6.6,1.64,9.25,0a8.17,8.17,0,0,0,3.2-4,17.21,17.21,0,0,0,.86-5.1" transform="translate(0.71 1.24)"/>
    <path class="cls-2" d="M28.86,210.15c-4.32.67-8.64,1.34-11.81,3.38-7.21,4.61-8.54,16.23-9.21,26.32-0.77,11.68-.66,21.31,1.37,32.25C10.37,278.33,12.16,285,17,288.8c6.28,4.93,17.7,5,24,.22,5.91-4.48,7.26-13.24,7.67-21.22a98.63,98.63,0,0,0-4.17-33.87c-1.19-4.13-2.61-8.41-5.93-10.79-4.72-3.38-13.28-3-17.44,1.07-2.38,2.3-3.33,5.77-4,9.13-2.56,12.13-2,22.74.59,36.05,0.76,3.84,1.68,7.91,4.27,9.49,3.55,2.16,10.23-.35,13.65-4.15,3.11-3.46,3.5-8,3.68-12.45,0.34-8.57-.14-17-4.63-24.43-1-1.71-2.28-3.37-4.27-3.79-1.81-.38-4.23.26-4.86,1.78a4.72,4.72,0,0,0-.24,1.66" transform="translate(0.71 1.24)"/>
    <path class="cls-2" d="M28.57,292.54a39.22,39.22,0,0,0-7.39,6.68c-4.72,5.82-6.58,13.69-6.42,22.26,0.1,5.69,1.09,11.69,5.24,14.47,4.32,2.9,12.08,2.31,16-1.35,3-2.79,3.74-7.37,3-11.86-0.66-3.9-2.47-7.73-5.81-8.9a12.9,12.9,0,0,1-2.84-1,6.31,6.31,0,0,1-1-.86" transform="translate(0.71 1.24)"/>
    <path class="cls-2" d="M36.47,291.37c-1.27,2.28-2.56,4.58-4,6.94-2.25,3.68-4.87,7.53-4.68,11.52s3,7.88,4,11.42a9,9,0,0,1,.24,3.54c-0.09.81-.25,1.78,0.29,1.89a1.4,1.4,0,0,0,.39,0" transform="translate(0.71 1.24)"/>
    <path class="cls-2" d="M32.69,326.68a10.58,10.58,0,0,1-3.79,1.89A5.87,5.87,0,0,1,23.57,327a5.53,5.53,0,0,1-1.21-3,14.72,14.72,0,0,1,0-2.86" transform="translate(0.71 1.24)"/>
    <path class="cls-2" d="M25.32,337.73a21,21,0,0,1,3.58,4.53c2,3.45,2.87,8,1.12,11.4-1.16,2.26-3.5,4-4.2,6.37a4.82,4.82,0,0,0-.19,1.85,2.5,2.5,0,0,1-.06,1.48,1.94,1.94,0,0,1-.83.55" transform="translate(0.71 1.24)"/>
    <path class="cls-2" d="M24.74,363.89c1.64,0.68,3.27,1.36,4.89,1a5.21,5.21,0,0,0,3.35-2.4,8.42,8.42,0,0,0,.77-2.12" transform="translate(0.71 1.24)"/>
    <path class="cls-2" d="M31.72,337a31.7,31.7,0,0,1,5.79,5.91c3.53,5,4.59,11.86,3.55,18.29-0.7,4.28-2.33,8.38-5.84,11-3.83,2.81-9.9,3.81-13.49,1.34-2.59-1.78-3.88-5.35-4-8.91-0.13-3.37.78-6.73,3.47-8.6,1.17-.81,2.69-1.35,3.16-2.52a4.37,4.37,0,0,0,.16-1.89c0-.27-0.05-0.53-0.08-0.79" transform="translate(0.71 1.24)"/>
    <path class="cls-2" d="M24.41,350.83a10.36,10.36,0,0,1,3,1.08,6.15,6.15,0,0,1,2.24,2.44" transform="translate(0.71 1.24)"/>
    <path class="cls-2" d="M27.1,374.94a29.8,29.8,0,0,0-5.44,4.83,20.51,20.51,0,0,0-3.2,5.16,21,21,0,0,0-.64,14.36c1,3.31,2.76,6.57,5.59,7.9,3.05,1.43,7.34.61,10.29-1.59A10.75,10.75,0,0,0,38,396.74a7.86,7.86,0,0,0-3-6.38,5.36,5.36,0,0,0-4.23-.88,7.89,7.89,0,0,0-2,1" transform="translate(0.71 1.24)"/>
    <path class="cls-2" d="M34.79,372.5a60.19,60.19,0,0,0-2.91,5.32,32.64,32.64,0,0,0-2.63,8,11.51,11.51,0,0,0,.16,6c0.46,1.27,1.28,2.5,1.1,3.79a10,10,0,0,0-.34,1.75,3.52,3.52,0,0,0,.66,1.57" transform="translate(0.71 1.24)"/>
    <path class="cls-2" d="M30.82,398.93a6.47,6.47,0,0,1-3,1.89,4.7,4.7,0,0,1-4.48-2.1,6.43,6.43,0,0,1-.56-3.23" transform="translate(0.71 1.24)"/>
    <path class="cls-2" d="M23.73,407.33a3.72,3.72,0,0,1,.22,1.8c-0.32,1.9-2.85,3.26-5.17,4.67-1.61,1-3.13,2-3.39,3.44-0.19,1,.25,2.26-0.2,3.39a1.68,1.68,0,0,1-1,1.06,2.07,2.07,0,0,1-.71,0" transform="translate(0.71 1.24)"/>
    <path class="cls-2" d="M13.47,421.69c0.86,1,1.73,2.05,3,2.27a3.62,3.62,0,0,0,3.74-1.72,4.07,4.07,0,0,0,.2-1.41" transform="translate(0.71 1.24)"/>
    <path class="cls-2" d="M20.4,420.83a30.15,30.15,0,0,0-3.64,4.85c-0.88,1.55-1.58,3.35-1.16,5,0.5,1.92,2.59,3.56,2.33,5.61a2.88,2.88,0,0,1-1.67,2.33,3.47,3.47,0,0,1-.41.1" transform="translate(0.71 1.24)"/>
    <path class="cls-2" d="M15.84,438.67c2.94-.08,5.87-0.15,8.14-1.62a9.93,9.93,0,0,0,4.1-6.57,8.42,8.42,0,0,0-.15-3.59,15.13,15.13,0,0,0-1.21-2.83" transform="translate(0.71 1.24)"/>
    <path class="cls-2" d="M26.72,424.06c0.7,1.05,1.41,2.1,2.67,2.19a2.08,2.08,0,0,1,1.25.2,1.39,1.39,0,0,1,.24.68" transform="translate(0.71 1.24)"/>
    <path class="cls-2" d="M33.25,405.91a14,14,0,0,0-.17,3.65c0.24,2,1.26,4,1.66,6.08a8.7,8.7,0,0,1-1,6.2c-0.6.93-1.45,1.7-2,2.65a10.29,10.29,0,0,0-.89,2.63" transform="translate(0.71 1.24)"/>
    <path class="cls-1" d="M81,213.9a66.14,66.14,0,0,1,8.87,5.3,32.55,32.55,0,0,1,4.46,4.06" transform="translate(0.71 1.24)"/>
    <path class="cls-1" d="M106.36,248.21c0.9,3.48,1.66,7,2.33,10.56" transform="translate(0.71 1.24)"/>
    <path class="cls-1" d="M111.27,274.67a229.07,229.07,0,0,1,2,25.8" transform="translate(0.71 1.24)"/>
    <path class="cls-1" d="M112.94,316.93q0,0.73-.1,1.46c-1.84,26.16-9,52.55-15.73,78.58-5.36,20.63-10.49,41-14.81,61.77-3.19,15.3-5.94,30.77-7,46.35q-0.09,1.28-.16,2.56" transform="translate(0.71 1.24)"/>
    <path class="cls-2" d="M79.19,217.39l1.39,0.74c0.92,0.49,1.81,1,2.67,1.47s1.71,1,2.5,1.52" transform="translate(0.71 1.24)"/>
    <path class="cls-2" d="M102.66,249.66q0.43,1.67.81,3.38" transform="translate(0.71 1.24)"/>
    <path class="cls-2" d="M107.36,275.16q0.53,4,.93,7.94,0.68,6.85.94,13.57" transform="translate(0.71 1.24)"/>
    <path class="cls-2" d="M109,316.94q-0.08,1.17-.16,2.34c-0.38,5-1,10-1.69,15.06-1.46,10.08-3.55,20.21-5.93,30.37s-5.06,20.34-7.7,30.5c-4,15.54-8,31-11.51,46.53q-1.82,8-3.49,16c-1.32,6.32-2.57,12.69-3.66,19.09" transform="translate(0.71 1.24)"/>
    <path class="cls-2" d="M73.68,483.89q-0.47,3.11-.87,6.23-0.71,5.49-1.19,11-0.14,1.65-.26,3.31" transform="translate(0.71 1.24)"/>
    <path class="cls-2" d="M104.66,333.23q-0.54,3.83-1.21,7.67l0,0.11" transform="translate(0.71 1.24)"/>
    <path class="cls-2" d="M102.88,344.18c-1.14,6.24-2.48,12.52-3.95,18.81q-0.3,1.28-.6,2.56" transform="translate(0.71 1.24)"/>
    <path class="cls-2" d="M97.84,367.59C96.6,372.73,95.3,377.88,94,383c-1.19,4.63-2.41,9.27-3.61,13.91s-2.39,9.26-3.57,13.89Q83.28,424.72,80,438.64q-1.9,8.23-3.66,16.52-1.21,5.71-2.33,11.48-0.39,2-.76,4" transform="translate(0.71 1.24)"/>
    <path class="cls-2" d="M70.18,490.2c-0.49,3.84-.9,7.7-1.22,11.57q-0.06.7-.11,1.41" transform="translate(0.71 1.24)"/>
    <path class="cls-1" d="M75.08,541.16q0.06,1.44.12,2.89" transform="translate(0.71 1.24)"/>
    <path class="cls-1" d="M79.31,598q0.3,2.61.63,5.21" transform="translate(0.71 1.24)"/>
    <path class="cls-1" d="M91.77,661.91q0.37,1.2.74,2.4c2.22,7.05,4.76,14,6.18,21.24a79.22,79.22,0,0,1,1.26,9.65c0.09,1.24.15,2.48,0.2,3.72" transform="translate(0.71 1.24)"/>
    <path class="cls-2" d="M54,646.91A36.79,36.79,0,0,1,50,642.53c-2.62-3.39-4.55-7.53-4.54-11.86,0-3.65,1.39-7.45.3-10.72a15.83,15.83,0,0,0-1.89-3.47" transform="translate(0.71 1.24)"/>
    <path class="cls-2" d="M43.83,616.48a14.26,14.26,0,0,1,6-.35c1.93,0.47,3.61,1.89,5.3,3.3" transform="translate(0.71 1.24)"/>
    <path class="cls-2" d="M55.08,619.42a81.68,81.68,0,0,1-7-7.68,43.25,43.25,0,0,1-5.45-9.39c-1.61-3.76-2.78-7.84-2.27-11.83,0.26-2.06,1-4.1.95-6.15a17.43,17.43,0,0,0-.57-3.59" transform="translate(0.71 1.24)"/>
    <path class="cls-2" d="M40.71,580.77a7.69,7.69,0,0,1,2.83-.9,5.9,5.9,0,0,1,5.17,3.45,8.61,8.61,0,0,1,.48,1.82" transform="translate(0.71 1.24)"/>
    <path class="cls-2" d="M49.19,585.15a21.65,21.65,0,0,0-3.32-6.95c-1.59-2-3.93-3.56-4.65-5.72-0.63-1.91,0-4.26.24-6.49a10,10,0,0,0-.12-3.4,13.86,13.86,0,0,0-.78-2.14" transform="translate(0.71 1.24)"/>
    <path class="cls-2" d="M40.57,560.45a20.55,20.55,0,0,1,6.6,1.16c2.29,0.93,4.48,2.69,5.19,4.93a11.34,11.34,0,0,1,.37,3.1" transform="translate(0.71 1.24)"/>
    <path class="cls-2" d="M49.35,562.79a15.58,15.58,0,0,0-1.43-2.52c-2-2.77-5.2-4.76-6.75-7.67s-1.43-6.57-.86-10c0.44-2.65,1.17-5.11,1.34-7.67a36.61,36.61,0,0,0,0-3.74" transform="translate(0.71 1.24)"/>
    <path class="cls-2" d="M41.65,531.21a66,66,0,0,1,12,6.75A17.85,17.85,0,0,1,60.13,546c0.78,2.2,1,4.76,0,6.67a10.78,10.78,0,0,1-2,2.41" transform="translate(0.71 1.24)"/>
    <path class="cls-2" d="M46.73,533.68c-0.13-.3-0.26-0.59-0.4-0.87-1.64-3.27-4.56-5.9-5.55-9.56a7.6,7.6,0,0,1,.73-6.25c0.62-.89,1.54-1.61,1.82-2.61a5,5,0,0,0,.12-0.67" transform="translate(0.71 1.24)"/>
    <path class="cls-2" d="M43.45,513.73c2.76-.6,5.52-1.2,8.25-1.88l0.73-.18" transform="translate(0.71 1.24)"/>
    <path class="cls-2" d="M52.44,511.66a31.21,31.21,0,0,1,3.22,5.16A22.81,22.81,0,0,1,57.41,526a27.27,27.27,0,0,1-.24,4,6.93,6.93,0,0,0,0,3.4,5.88,5.88,0,0,0,.79,1.27" transform="translate(0.71 1.24)"/>
    <path class="cls-2" d="M54.86,537.08c-1.5-2.09-3-4.19-3.28-6.43-0.34-2.64,1-5.49,1.52-8.37a13,13,0,0,0-.24-5.94,22.82,22.82,0,0,0-1.09-2.79" transform="translate(0.71 1.24)"/>
    <path class="cls-2" d="M49.15,512.46a15.34,15.34,0,0,1,2.7-5.22c1.35-1.64,3.31-3.15,3.13-4.85a6,6,0,0,0-1-2.29" transform="translate(0.71 1.24)"/>
    <path class="cls-2" d="M55.64,504.1c0.19-2.68.38-5.37-.42-7.82-0.46-1.39-1.23-2.71-1.66-4.12a10.92,10.92,0,0,1,.54-7.28c0.6-1.44,1.47-2.8,1.31-4.24a6.66,6.66,0,0,0-.19-0.92" transform="translate(0.71 1.24)"/>
    <path class="cls-2" d="M55.1,479.28a7,7,0,0,1,3.47-.16,7,7,0,0,1,2.24,1.5" transform="translate(0.71 1.24)"/>
    <path class="cls-2" d="M60.8,480.63a18.14,18.14,0,0,1,2.58,5,5.41,5.41,0,0,1,0,3.7c-0.3.62-.82,1.13-1.12,1.85a2.16,2.16,0,0,0,.11,2.2,2.35,2.35,0,0,0,.39.31" transform="translate(0.71 1.24)"/>
    <path class="cls-2" d="M57.1,479a9.12,9.12,0,0,1-.35-1.58c-0.36-3,1.27-6.1,2.48-9.2a7.74,7.74,0,0,0,.74-3.41,8.53,8.53,0,0,0-.35-1.59" transform="translate(0.71 1.24)"/>
    <path class="cls-2" d="M59.62,463.19l6-.58" transform="translate(0.71 1.24)"/>
    <path class="cls-2" d="M65.6,462.6c3,2.35,5.94,4.69,7.61,7.91a16.68,16.68,0,0,1,1.05,11.63c-1.32,4.88-4.83,8.69-7.32,13.18a16.68,16.68,0,0,0-1.61,3.79" transform="translate(0.71 1.24)"/>
    <path class="cls-2" d="M90.54,713.61c-2.34-1-4.68-2-4.83-3.75-0.17-2.07,2.66-5.21,4.7-5.4,2.61-.24,3.91,4.34,4.77,7.81a36.22,36.22,0,0,1,1.21,7.57c0.18,4.38-.51,10-4.06,12.64a8.85,8.85,0,0,1-7.88,1.27A7.19,7.19,0,0,1,81.71,732a9.86,9.86,0,0,1-1.41-1.86" transform="translate(0.71 1.24)"/>
    <path class="cls-2" d="M80.78,709.09c4.06-9.08,8.11-18.16,9.93-27.72,2.08-10.91,1.23-22.44-.5-33.63a239,239,0,0,0-6.69-29.91A281.21,281.21,0,0,0,73.39,588.7c-3.38-8.22-7.17-16.27-9.52-24.83a67.41,67.41,0,0,1-2.51-20,30.1,30.1,0,0,1,3.21-13.66c1.15-2.11,2.69-4.14,4.79-5a7.84,7.84,0,0,1,7.54,1.31,4.06,4.06,0,0,1,1.77,2.75,5.05,5.05,0,0,1-.39,1.77" transform="translate(0.71 1.24)"/>
    <path class="cls-1" d="M78.28,531.09a12.82,12.82,0,0,0,3.18-4.39A8.63,8.63,0,0,0,80,519.1a5,5,0,0,0-2.56-2,6.66,6.66,0,0,0-1.24-.16" transform="translate(0.71 1.24)"/>
    <path class="cls-1" d="M80.89,520.62c1.36-1.19.07-3.87-1.16-6.14-2.4-4.42-4.58-7.3-7.6-9.49a12.91,12.91,0,0,0-4.66-2.23c-1.35-.34-2.94-0.52-3.22-1.53a2.88,2.88,0,0,1,0-1.07,1.66,1.66,0,0,1,.25-0.83c0.41-.48,1.53-0.13,2.15.41a3.06,3.06,0,0,1,.78,1.28" transform="translate(0.71 1.24)"/>
    <path class="cls-1" d="M76.59,526.33a7.85,7.85,0,0,1,.45,2c0.14,1.73-.58,3.45-0.79,5.4-0.23,2.18.16,4.66,1.79,5.82a6.87,6.87,0,0,0,.87.5" transform="translate(0.71 1.24)"/>
    <path class="cls-2" d="M78.92,540c-1.82.79-3.63,1.58-5.16,0.83a3.53,3.53,0,0,1-1-.77" transform="translate(0.71 1.24)"/>
    <path class="cls-2" d="M72.76,540.09a4,4,0,0,1-.28,2.39c-0.44.91-1.36,1.74-1.5,2.66a4.34,4.34,0,0,0,.71,2.37" transform="translate(0.71 1.24)"/>
    <path class="cls-2" d="M71.69,547.5a16.55,16.55,0,0,1-3.62-3.37,9.2,9.2,0,0,1-1.58-5c-0.07-1.74.24-3.62,1.5-4.61,0.13-.1.27-0.2,0.42-0.29" transform="translate(0.71 1.24)"/>
    <path class="cls-2" d="M68.4,534.25c-1.05,1.3-2.11,2.61-3.29,2.12a2.93,2.93,0,0,0-1.25-.49,1.12,1.12,0,0,0-.7.47,2.45,2.45,0,0,0-.23.42" transform="translate(0.71 1.24)"/>
    <path class="cls-1" d="M74,541a7,7,0,0,0,.25,1.22c0.67,2.19,2.69,3.83,4.35,5.58,3.24,3.42,5.12,7.25,7.38,11.68,2.41,4.72,5.26,10.11,3.2,14.39a20.17,20.17,0,0,1-1.4,2.26,10,10,0,0,1-1.29,1.72,16.61,16.61,0,0,1-1.94,1.4c-1.95,1.4-3.21,3.48-4.52,5.58" transform="translate(0.71 1.24)"/>
    <path class="cls-1" d="M79.75,584.42a8.57,8.57,0,0,1,1.77,2.73c0.49,1.57-.07,3.43-0.62,5.13-0.48,1.49-1,2.85-1.31,4.33a10.92,10.92,0,0,0-.28,4.8c0.37,1.69,1.45,3.17,2,4.89a6.63,6.63,0,0,1,.25,3.45,5.35,5.35,0,0,1-.25.79" transform="translate(0.71 1.24)"/>
    <path class="cls-1" d="M91.84,663.25a10.28,10.28,0,0,1,2.83-4.65A6.09,6.09,0,0,1,98,657a9,9,0,0,1,1.31,0" transform="translate(0.71 1.24)"/>
    <path class="cls-1" d="M99.29,657a37.51,37.51,0,0,0-.62-6.23,18.64,18.64,0,0,0-5.32-9.69,24.45,24.45,0,0,0-4.91-3.36" transform="translate(0.71 1.24)"/>
    <path class="cls-4" d="M96.63,212.3a7,7,0,0,1,1.22,2.63,5.63,5.63,0,0,1-2,4.5,7.56,7.56,0,0,1-3.52,1.77" transform="translate(0.71 1.24)"/>
    <path class="cls-2" d="M60.26,217.45a14.34,14.34,0,0,1,2.66,5c0.53,2.15.18,4.48,0.05,7.06-0.07,1.4-.08,2.88.61,3.8,0.81,1.1,2.58,1.43,3.86,2.43a3.23,3.23,0,0,1,1.32,2.1,4.65,4.65,0,0,1,0,.66" transform="translate(0.71 1.24)"/>
    <path class="cls-2" d="M68.77,238.52c1.37-1.61,2.73-3.22,3-5.21a5.87,5.87,0,0,0-1.28-4.5,8.8,8.8,0,0,0-1.42-1.21" transform="translate(0.71 1.24)"/>
    <path class="cls-2" d="M70,237a6,6,0,0,1,.28,2.27c-0.16,1.75-1.38,3.45-1.9,5.21a9.34,9.34,0,0,0,.11,5.21c0.39,1.45,1,3,.45,4.09a4.92,4.92,0,0,1-1.51,1.46" transform="translate(0.71 1.24)"/>
    <path class="cls-2" d="M67.41,255.27l7.4,3.75" transform="translate(0.71 1.24)"/>
    <path class="cls-2" d="M73.21,254.7c-1.24,2.06-2.48,4.12-2.79,6.29-0.36,2.56.59,5.28,0.9,8.08a6.59,6.59,0,0,1-.27,3.23,7.93,7.93,0,0,1-.72,1.26" transform="translate(0.71 1.24)"/>
    <path class="cls-2" d="M70.33,273.56l5,3.19" transform="translate(0.71 1.24)"/>
    <path class="cls-2" d="M75.34,276.76c2.07-.77,4.14-1.54,4.34-3.09a5.5,5.5,0,0,0-.34-2" transform="translate(0.71 1.24)"/>
    <path class="cls-2" d="M73.59,272.94a40.87,40.87,0,0,0-1.86,5.4,16.57,16.57,0,0,0,.28,9.17c0.69,2.13,1.86,4.3,1.18,6.08a7.5,7.5,0,0,1-1.69,2.25" transform="translate(0.71 1.24)"/>
    <path class="cls-2" d="M71.51,295.84l8.39,4.74" transform="translate(0.71 1.24)"/>
    <path class="cls-1" d="M83.32,220.65c7.83,1.46,15.67,2.93,19.22,8.18,1.71,2.53,2.42,5.93,3.52,9.41,0.67,2.13,1.48,4.29,3.23,5.23a8.57,8.57,0,0,0,1.52.57" transform="translate(0.71 1.24)"/>
    <path class="cls-1" d="M110.82,244c-0.72.72-1.45,1.45-2.26,2.23-1.84,1.77-4.12,3.83-6.39,3.32a7.07,7.07,0,0,1-1.08-.37" transform="translate(0.71 1.24)"/>
    <path class="cls-1" d="M101.09,249.22a38.73,38.73,0,0,0,3.61,5.42c2.33,2.77,5.48,5,7,8.21,0.94,2,1.26,4.37,2.58,6.1a12.67,12.67,0,0,0,1.56,1.62" transform="translate(0.71 1.24)"/>
    <path class="cls-4" d="M115.84,270.58a14.21,14.21,0,0,1-3.29,3.41,7,7,0,0,1-5.57,1.08l-0.46-.16" transform="translate(0.71 1.24)"/>
    <path class="cls-1" d="M102.16,265.15a21.9,21.9,0,0,1,3.84,6.33c1,3.15.31,6.71-.1,10.36-0.52,4.68-.6,9.53,1.92,13.15s7.27,5.83,8.26,9.79c0.39,1.55.18,3.34,0.48,5a16.06,16.06,0,0,0,1.82,4.51" transform="translate(0.71 1.24)"/>
    <path class="cls-1" d="M118.38,314.28c-0.68.44-1.36,0.87-2.11,1.28-2.41,1.31-5.58,2.34-7.82,1.14a9,9,0,0,1-1.86-1.5" transform="translate(0.71 1.24)"/>
    <path class="cls-2" d="M106.59,315.2a34.84,34.84,0,0,1,.85,9,26.21,26.21,0,0,1-2.51,8.48c-0.92,2.05-2,4.12-1.93,6.17a13.12,13.12,0,0,0,1.64,5" transform="translate(0.71 1.24)"/>
    <path class="cls-2" d="M104.64,343.82a61.61,61.61,0,0,1-6.21,1c-2.33.23-4.86,0.25-6.66-1a10.91,10.91,0,0,1-2.12-2.12" transform="translate(0.71 1.24)"/>
    <path class="cls-2" d="M95.88,345q0.46,1.52.87,3.12c1.22,4.73,2.07,10-.29,13.83-1.21,2-3.25,3.58-4.28,5.64-1.23,2.48-1,5.61-.68,8.46,0.06,0.56.13,1.11,0.19,1.65" transform="translate(0.71 1.24)"/>
    <path class="cls-2" d="M91.69,377.68a20.68,20.68,0,0,1-7.79.29c-2.57-.52-5.31-1.91-6.13-4-0.72-1.83,0-4.2.39-6.42a29.41,29.41,0,0,0,.29-4.45" transform="translate(0.71 1.24)"/>
    <path class="cls-2" d="M97.91,354.54a7.41,7.41,0,0,1,1.35,3.95c0,1.43-.7,2.93-1,4.47a6.6,6.6,0,0,0,.11,2.94,10.52,10.52,0,0,0,.38,1" transform="translate(0.71 1.24)"/>
    <path class="cls-2" d="M98.8,366.93l-3.17,2.18" transform="translate(0.71 1.24)"/>
    <path class="cls-2" d="M95.63,369.11c-0.43-.45-0.85-0.9-1.26-1.37a16.49,16.49,0,0,1-1.25-1.66" transform="translate(0.71 1.24)"/>
    <path class="cls-2" d="M82.41,364.74l-6.93-2.85" transform="translate(0.71 1.24)"/>
    <path class="cls-2" d="M74.95,361.82a19.71,19.71,0,0,1-.85-6.23c0.3-3.38,2.55-6.49,3.85-9.81a28.41,28.41,0,0,0,1.67-8.36c0.11-1.54.15-3.08,0.2-4.62" transform="translate(0.71 1.24)"/>
    <path class="cls-2" d="M80.53,308.29c-0.87,3.16-1.74,6.33-2.76,9.66-1.19,3.88-2.58,8-1.62,11.57a10.4,10.4,0,0,0,5.41,6.34c1.9,1,4.23,1.66,4.42,3.42a4.78,4.78,0,0,1,0,.75" transform="translate(0.71 1.24)"/>
    <path class="cls-2" d="M95,332.09a38.54,38.54,0,0,0-3.13-6.76,33.29,33.29,0,0,0-4.89-5.7,15.61,15.61,0,0,1-3.63-4.51,14.06,14.06,0,0,1-.69-5.89,10.89,10.89,0,0,1,.81-4.7,11.22,11.22,0,0,1,2-2.51" transform="translate(0.71 1.24)"/>
    <path class="cls-2" d="M80.07,297.68c1.37-2.84,2.75-5.68,2.79-8.62a20.33,20.33,0,0,0-1.58-7c-0.52-1.44-1.05-2.84-1.59-4.25" transform="translate(0.71 1.24)"/>
    <path class="cls-2" d="M79.9,300.58c2-1.67,4.09-3.34,5.18-5.5,2-4,.76-9.66-1.65-13.81-0.63-1.09-1.35-2.08-1.84-3.17a18.87,18.87,0,0,1-1.2-6.21" transform="translate(0.71 1.24)"/>
    <path class="cls-2" d="M84.68,229.46c3.27,5.53,6.54,11.07,7.62,17.07,0.86,4.76.35,9.82-.51,14.83-0.8,4.65-1.89,9.26-1,13.71,0.65,3.32,2.41,6.54,2.44,10,0,0.1,0,.2,0,0.3" transform="translate(0.71 1.24)"/>
    <path class="cls-2" d="M74.81,259c1.92-.38,3.83-0.75,5.15-1.85,2.72-2.27,2.86-7.62,1.27-11.27a42.29,42.29,0,0,0-2.87-4.71,32.52,32.52,0,0,1-1.85-3.88" transform="translate(0.71 1.24)"/>
    <path class="cls-2" d="M75.69,257.94c1.5-2.44,3-4.87,2.93-7.32s-1.63-4.81-2.87-7.19A67.8,67.8,0,0,1,73,237.19" transform="translate(0.71 1.24)"/>
    <path class="cls-2" d="M78,292.71c-1.22,8-2.43,16-3.59,24-1.86,12.84-3.57,25.7-5.74,38.48-2.41,14.13-5.39,28.16-8.41,42.18C57.06,412,53.86,426.6,51,441.29c-2.37,12.09-4.52,24.23-5.95,36.45-1.17,10-1.84,20.1-2.56,30.18-0.21,2.87-.41,5.74-0.59,8.61" transform="translate(0.71 1.24)"/>
    <path class="cls-2" d="M41.47,525.1q-0.06,2-.07,4c0,2.37,0,4.74.11,7.11" transform="translate(0.71 1.24)"/>
    <path class="cls-2" d="M42.31,554.29c0.09,2.11.18,4.21,0.28,6.32" transform="translate(0.71 1.24)"/>
    <path class="cls-2" d="M43.88,576.08q0.24,1.93.51,3.85" transform="translate(0.71 1.24)"/>
    <path class="cls-2" d="M80.73,293.13q-1.07,7-2.12,14.05-0.82,5.51-1.62,11t-1.57,11c-1,7.36-2.11,14.73-3.31,22.1q-0.88,5.4-1.86,10.78t-2,10.74c-1.42,7.15-2.92,14.27-4.45,21.37-2.55,11.86-5.14,23.69-7.59,35.54q-1.45,7-2.82,14c-0.91,4.68-1.78,9.36-2.58,14q-1,5.79-1.83,11.58-0.74,5.18-1.32,10.37c-0.38,3.46-.71,6.93-1,10.42-0.28,3.27-.53,6.55-0.77,9.83q-0.29,3.93-.56,7.87-0.2,2.76-.39,5.5" transform="translate(0.71 1.24)"/>
    <path class="cls-2" d="M44.2,529.43q0,1.5,0,3" transform="translate(0.71 1.24)"/>
    <path class="cls-2" d="M45.24,557.31q0.08,1.87.18,3.74" transform="translate(0.71 1.24)"/>
    <path class="cls-2" d="M47.27,580.34l0.17,1.2" transform="translate(0.71 1.24)"/>
    <path class="cls-2" d="M71.42,180.37c-2.39-4.81-4.78-9.62-9.76-11.31-2.45-.83-5.53-0.91-6.74-2.94a5,5,0,0,1,.23-5,6.37,6.37,0,0,1,2.56-1.7" transform="translate(0.71 1.24)"/>
    <path class="cls-2" d="M68.32,179c-2.65-2.5-5.3-5-8.91-5.81a8.38,8.38,0,0,0-6.28.78c-1.74,1.19-2.54,3.5-3.33,5.81" transform="translate(0.71 1.24)"/>
    <path class="cls-2" d="M62.41,137.9c-4-1.3-8.08-2.61-11.32-5.07a12.16,12.16,0,0,1-4.78-7c-0.47-2-.46-4.47,1-5.51a5.66,5.66,0,0,1,1.37-.63" transform="translate(0.71 1.24)"/>
    <path class="cls-2" d="M54.95,137.46c-5.61-1.46-11.23-2.93-13.41-6.73a5.86,5.86,0,0,1-.54-4.58c0.3-1.25.91-2.73,1.61-2.34a2,2,0,0,1,.39.34" transform="translate(0.71 1.24)"/>
    <path class="cls-2" d="M60.17,114.39C55.3,109,50.43,103.63,48.52,97a18.1,18.1,0,0,1,.16-11.17c0.78-2.13,2.06-4.19,4-5.08a10.52,10.52,0,0,1,1.64-.55" transform="translate(0.71 1.24)"/>
    <path class="cls-2" d="M46.18,103.37c-1.8-3-3.61-6-4.3-9.85-0.56-3.07-.39-6.65,1.72-8.52a10,10,0,0,1,1.64-1.09" transform="translate(0.71 1.24)"/>
    <path class="cls-2" d="M57.12,89.83a103.24,103.24,0,0,1,6.21-16.17c1.87-3.62,4.19-7.08,7.62-9.42a10.37,10.37,0,0,1,5.66-2,14,14,0,0,1,2.51.31" transform="translate(0.71 1.24)"/>
    <path class="cls-1" d="M75.61,128.27c1.56,1.44,3.12,2.87,3.28,6.39s-1.06,9.1.32,7.17l0,0" transform="translate(0.71 1.24)"/>
    <path class="cls-1" d="M81.26,171.83a12.38,12.38,0,0,1,1.1,5.17c-0.18,1.85-1.36,3.59-2.54,5.33" transform="translate(0.71 1.24)"/>
    <path class="cls-1" d="M81.31,610.53a78.49,78.49,0,0,1,4.3,10c1.78,5.5,2.3,11.37,2.83,17.24" transform="translate(0.71 1.24)"/>
    <line class="cls-1" x1="0.71" y1="967.9" x2="0.71" y2="34.46"/>
    <path class="cls-2" d="M15.81,33.22a11.49,11.49,0,0,1,1-2,5.53,5.53,0,0,1,1.56-1.54c1.43-.9,3.2-0.88,5-0.67" transform="translate(0.71 1.24)"/>
    <line class="cls-2" x1="24.12" y1="30.29" x2="24.12" y2="26.12"/>
    <path class="cls-2" d="M16.39,24.88c7,0,11.49-.19,14.69-0.3,5.12-.17,7-0.13,8-0.83s1.43-2.42,1.09-3.93a9,9,0,0,0-1.95-3.62c-3.75-4.56-10-7-15.44-8.65C18.31,6.2,14.33,5.39,4.1,4.76" transform="translate(0.71 1.24)"/>
    <line class="cls-2" x1="7.93" y1="6.22" x2="7.93" y2="4.29"/>
    <path class="cls-2" d="M7.22,3C6,2.84,4.85,2.63,3.52,2.33S0.89,1.67.32,0.74A2.55,2.55,0,0,1,0-.12" transform="translate(0.71 1.24)"/>
  </g>
  <g>
    <line class="cls-1" x1="331.46" y1="1001.24" x2="0.71" y2="1001.24"/>
    <line class="cls-1" x1="331.46" y1="967.91" x2="0.71" y2="967.91"/>
    <line class="cls-1" x1="0.71" y1="1.25" x2="331.46" y2="1.25"/>
    <line class="cls-1" x1="0.71" y1="34.59" x2="331.46" y2="34.59"/>
    <line class="cls-1" x1="271.65" y1="251.33" x2="271.65" y2="967.91"/>
    <line class="cls-2" x1="0.71" y1="6.35" x2="331.46" y2="6.35"/>
    <line class="cls-2" x1="0.71" y1="30.42" x2="331.46" y2="30.42"/>
    <line class="cls-2" x1="0.71" y1="26.25" x2="331.46" y2="26.25"/>
    <line class="cls-2" x1="331.46" y1="4.42" x2="0.71" y2="4.42"/>
    <line class="cls-1" x1="331.46" y1="34.59" x2="331.46" y2="967.91"/>
    <path class="cls-1" d="M36.7,221.27a50.56,50.56,0,0,1-5.24,3.67C22.3,230.46,11.25,232.45,0,234" transform="translate(0.71 1.24)"/>
    <line class="cls-3" x1="331.46" y1="972.08" x2="0.71" y2="972.08"/>
    <path class="cls-2" d="M29.74,33.35C29.64,39,29.6,44.6,30.88,50.23c1.82,8,6.32,16,13.28,20,9,5.14,22.06,3.58,30.86-2.55A26.24,26.24,0,0,0,85.66,52.26c1.13-4.64,1.07-9.8-1.48-13.64a12.79,12.79,0,0,0-4.4-4,4.64,4.64,0,0,0-3.27-.65,1.35,1.35,0,0,0-1.24.74,1.3,1.3,0,0,0,.16.55A19.46,19.46,0,0,1,77,39.43c0.49,2.41.27,5.55-1.61,7-0.14.11-.3,0.22-0.45,0.32" transform="translate(0.71 1.24)"/>
    <path class="cls-2" d="M36,33.35c0,2.14.08,4.3,0.28,6.54,0.61,6.73,2.59,14.24,8,17.89a15.63,15.63,0,0,0,10.19,2.43c1.2-.13,2.36-0.4,3.56-0.56a4.54,4.54,0,0,1,1.93.07,4.14,4.14,0,0,0,1,.29,2.3,2.3,0,0,0,.95-0.26" transform="translate(0.71 1.24)"/>
    <path class="cls-2" d="M61.82,59.75a4.81,4.81,0,0,1,.48,2.44C62,63.42,59.92,63.75,59,65.56a1.06,1.06,0,0,0-.15,1.06,1.13,1.13,0,0,0,.8,0A5.22,5.22,0,0,0,61.22,66a7.32,7.32,0,0,0,3.48-5.61,9.47,9.47,0,0,1,.17-2.52C65.35,56.6,67.2,56,68.39,55a12.54,12.54,0,0,0,1.2-1.2,2.19,2.19,0,0,0,.75-1.18,2,2,0,0,0-.15-0.7" transform="translate(0.71 1.24)"/>
    <path class="cls-2" d="M70.19,51.91a5.49,5.49,0,0,1,2.58.94A4.32,4.32,0,0,1,74,55.7a7.84,7.84,0,0,1-.48,3.35,5,5,0,0,1-1,1.85l-0.33.31" transform="translate(0.71 1.24)"/>
    <path class="cls-2" d="M72.15,61.22a8.14,8.14,0,0,0,1.94-2.07,6.21,6.21,0,0,0,.59-3.5c-0.09-1-.34-2-0.41-3.06a5.11,5.11,0,0,1,1.26-4.1,3.18,3.18,0,0,0,1-1.14,2.09,2.09,0,0,0,.06-0.52" transform="translate(0.71 1.24)"/>
    <path class="cls-2" d="M76.63,46.83a8.52,8.52,0,0,1,1.69,1.35,6.93,6.93,0,0,1,1.38,3.37,6.8,6.8,0,0,1,0,3.06A8.58,8.58,0,0,1,79,56.13" transform="translate(0.71 1.24)"/>
    <path class="cls-2" d="M74.92,46.79A4.44,4.44,0,0,0,74.47,48a2.83,2.83,0,0,0,0,1,4.71,4.71,0,0,0,.21.76" transform="translate(0.71 1.24)"/>
    <path class="cls-2" d="M41.86,33.35a38.38,38.38,0,0,0,.83,4.85,22.6,22.6,0,0,0,6.68,11.22,19.35,19.35,0,0,0,8.49,4.46,16.5,16.5,0,0,0,10.61-1.15c1.31-.59,2.63-1.35,2.92-2.59a4.74,4.74,0,0,0,.09-0.64" transform="translate(0.71 1.24)"/>
    <path class="cls-2" d="M71.48,49.5a4,4,0,0,1,1.6,1.19,3.07,3.07,0,0,1,.35,1.82,6.34,6.34,0,0,1-.14.95" transform="translate(0.71 1.24)"/>
    <path class="cls-2" d="M48.21,33.35a14.19,14.19,0,0,0,.47,4.16c1.18,3.8,5.26,6.4,9.46,8.11C61,46.79,64,47.55,66.66,47a12.45,12.45,0,0,0,4.49-2.23,2.47,2.47,0,0,0,1.31-1.64,2.52,2.52,0,0,0,0-.36" transform="translate(0.71 1.24)"/>
    <path class="cls-2" d="M72.43,42.73A11.86,11.86,0,0,1,74.24,44a4.25,4.25,0,0,1,1.14,1.49,3.66,3.66,0,0,1,.23.82" transform="translate(0.71 1.24)"/>
    <path class="cls-2" d="M29.9,43.56a1.47,1.47,0,0,0-1,1.33c0,0.75.64,1.81,0.12,2.29a1.12,1.12,0,0,1-1.16.14,1.22,1.22,0,0,1-.45-1.06,8.43,8.43,0,0,1,.5-2.1,3.39,3.39,0,0,0-.68-3.09,3,3,0,0,1-.58-0.58,0.63,0.63,0,0,1-.1-0.44,0.79,0.79,0,0,1,.14-0.26" transform="translate(0.71 1.24)"/>
    <path class="cls-2" d="M26.69,39.8a6.15,6.15,0,0,0-3,.31A3.13,3.13,0,0,0,22,41.75a10.59,10.59,0,0,0-.17,1.75,0.93,0.93,0,0,1-.3.73,0.88,0.88,0,0,1-.66-0.49c-0.83-1.2.43-2.33,0.78-3.58a3.23,3.23,0,0,0-.34-2.45A7.44,7.44,0,0,0,20,36.18a1.46,1.46,0,0,1-.58-0.91,1.39,1.39,0,0,1,.19-0.55" transform="translate(0.71 1.24)"/>
    <path class="cls-2" d="M19.58,34.71a24,24,0,0,0-5.11,1.91,7.8,7.8,0,0,0-2.87,2.44c-0.64,1-.66,2.25-0.58,4.05,0,0.74.08,1.58-.36,1.64A1.27,1.27,0,0,1,10,44.58a1,1,0,0,1-.38-0.26,1.37,1.37,0,0,1,.23-1.19,6.15,6.15,0,0,0,.56-4.51,11.24,11.24,0,0,0-1.74-2.87,10.45,10.45,0,0,0-1.56-1.85,5.28,5.28,0,0,0-.77-0.54" transform="translate(0.71 1.24)"/>
    <path class="cls-2" d="M23.33,69.9c2.35-2.81,4.27-1.54,5.08,0a4.33,4.33,0,0,1-.62,4.87c-2,2.3-6.2,2-8.47-.08a6.25,6.25,0,0,1-1.93-5.51c0.54-3.4,4.15-5.84,7.64-7.09a15.61,15.61,0,0,1,6.67-.92,17,17,0,0,1,4.07.89" transform="translate(0.71 1.24)"/>
    <path class="cls-2" d="M47.21,71.66a18,18,0,0,1,1,2.33,3.5,3.5,0,0,0,1,1.86,3.11,3.11,0,0,0,.83.36" transform="translate(0.71 1.24)"/>
    <path class="cls-2" d="M50,76.2a6.67,6.67,0,0,1-3.71,1.85c-1.28.09-2.87-.33-3.16-1.34a3,3,0,0,1,0-1.14" transform="translate(0.71 1.24)"/>
    <path class="cls-2" d="M27.31,75.2A3.35,3.35,0,0,1,28,76.32c0.37,1,.08,2.29.2,3.53a5.45,5.45,0,0,0,2.3,4.08,8.23,8.23,0,0,0,1.9.79" transform="translate(0.71 1.24)"/>
    <path class="cls-2" d="M32.43,84.73a12,12,0,0,1,.87-2.85c0.47-1,1.19-1.89.71-2.93a1.34,1.34,0,0,1-.32-1,0.67,0.67,0,0,1,.67-0.24,0.75,0.75,0,0,1,.44.79,1.61,1.61,0,0,1-.12.4,5.49,5.49,0,0,0,.87,4.87c1.86,2.6,5.56,3.16,7,6.15,0.59,1.25.79,2.93,0,3.89a4.38,4.38,0,0,1-1.15.87" transform="translate(0.71 1.24)"/>
    <path class="cls-2" d="M41.4,94.69a11.59,11.59,0,0,0,4.8-2.1c1.91-1.75,2.39-5,1.87-8a9.22,9.22,0,0,0-3.18-5.88,12.18,12.18,0,0,1-2.24-1.63c-0.44-.46-0.86-1.09-0.55-1.48a0.6,0.6,0,0,1,.42-0.22,0.58,0.58,0,0,1,.39.17,1.35,1.35,0,0,1,.31.59" transform="translate(0.71 1.24)"/>
    <path class="cls-2" d="M17.42,71.18a25.69,25.69,0,0,1-5.7,4,23.69,23.69,0,0,1-8.95,2c-0.93,0-1.86.06-2.78,0.05" transform="translate(0.71 1.24)"/>
    <path class="cls-2" d="M22.46,76.17a20.39,20.39,0,0,1-1.35,2.1c-2.44,3.27-6.21,5.52-10.1,7.07a33.91,33.91,0,0,1-7.47,2.07A35,35,0,0,1,0,87.76" transform="translate(0.71 1.24)"/>
    <path class="cls-2" d="M45.33,93.23a11.8,11.8,0,0,1,.33,4.08,8.08,8.08,0,0,1-4.5,6.36,6.68,6.68,0,0,1-3.46.35,15.22,15.22,0,0,1-1.95-.48" transform="translate(0.71 1.24)"/>
    <path class="cls-2" d="M35.76,103.53c0.86,1.64,1.71,3.29,1.49,4.88-0.27,1.86-2,3.65-4,4.44a5.48,5.48,0,0,1-3.77.21,9.14,9.14,0,0,1-1.51-.73" transform="translate(0.71 1.24)"/>
    <path class="cls-2" d="M27.95,112.32a9.83,9.83,0,0,1-.34,4.54c-0.91,2.12-3.53,3.63-6,3.88a7,7,0,0,1-3.62-.57,13.2,13.2,0,0,1-1.22-.65" transform="translate(0.71 1.24)"/>
    <path class="cls-2" d="M16.74,119.51a6.9,6.9,0,0,1-.73,2.36,5.72,5.72,0,0,1-6.61,2,6.74,6.74,0,0,1-1.83-1.5" transform="translate(0.71 1.24)"/>
    <path class="cls-2" d="M7.57,122.4A11.83,11.83,0,0,1,5,125.58,7.45,7.45,0,0,1,1.58,127a9,9,0,0,1-1.58.09" transform="translate(0.71 1.24)"/>
    <path class="cls-2" d="M18.89,84.52c0.12,2.8.23,5.61,1.34,8.05a14.84,14.84,0,0,0,7.25,6.85,11.82,11.82,0,0,0,7.67,1c1.29-.27,2.65-0.77,3.05-1.79a4.12,4.12,0,0,0,.17-1.45" transform="translate(0.71 1.24)"/>
    <path class="cls-2" d="M13,86.91c-0.08,3.3-.15,6.61.7,9.55a18.6,18.6,0,0,0,6.33,8.94c2.7,2.27,6.1,4.37,9,2.61,1-.63,2-1.74,1.82-2.79a3.54,3.54,0,0,0-.49-1.17" transform="translate(0.71 1.24)"/>
    <path class="cls-2" d="M8.45,88.49C7.7,93.63,7,98.76,7.81,103.82a19,19,0,0,0,4.37,9.64,9.75,9.75,0,0,0,6.85,3.6,4.9,4.9,0,0,0,3.47-1.1,4,4,0,0,0,1.08-2.54,2.13,2.13,0,0,0-.28-1.58,2.41,2.41,0,0,0-1.15-.55" transform="translate(0.71 1.24)"/>
    <path class="cls-2" d="M5.26,106c0.13,3.59.25,7.18,1.57,10.71A6.39,6.39,0,0,0,9.06,120a3,3,0,0,0,2.23.46,2.37,2.37,0,0,0,2.06-1.83,1.8,1.8,0,0,0-.77-1.43,3,3,0,0,0-1.26-.4" transform="translate(0.71 1.24)"/>
    <path class="cls-2" d="M4.09,113.14a17,17,0,0,1,.5,5.95A4.73,4.73,0,0,1,3,122.34a5.51,5.51,0,0,1-1.46.64" transform="translate(0.71 1.24)"/>
    <path class="cls-2" d="M54,73.19a14.69,14.69,0,0,1,5.39,4.48,12.36,12.36,0,0,1,.72,12.08,11.22,11.22,0,0,1-5.66,4.89c-0.48.2-1,.36-1.46,0.53" transform="translate(0.71 1.24)"/>
    <path class="cls-2" d="M53,95.16c3.3,1.67,6.6,3.34,7.72,6.27a9.85,9.85,0,0,1-.56,7.21c-0.68,1.49-1.66,2.75-2,4.31a4.79,4.79,0,0,0,.28,2.9,7.2,7.2,0,0,0,1.59,2" transform="translate(0.71 1.24)"/>
    <path class="cls-2" d="M60,117.83a6.69,6.69,0,0,1-2.74,1,3.69,3.69,0,0,1-3.05-1.25,5.05,5.05,0,0,1-.74-1.84" transform="translate(0.71 1.24)"/>
    <path class="cls-2" d="M53.5,115.74a3.83,3.83,0,0,0-.31,1.84c0.21,0.92,1.46,1.42,2.59,2,1.67,0.91,3.08,2.06,3.25,3.62,0.07,0.6-.05,1.27,0,1.88a5.69,5.69,0,0,0,.92,2.07" transform="translate(0.71 1.24)"/>
    <path class="cls-2" d="M60,127.19a9.69,9.69,0,0,1-3.6,1.25,9.38,9.38,0,0,1-4.19-1.09A5.54,5.54,0,0,1,49,124.59c-0.5-1-.84-2.49-1.6-2.2a1,1,0,0,0-.63.9,0.76,0.76,0,0,0,.56.6,1.13,1.13,0,0,0,.86-0.48" transform="translate(0.71 1.24)"/>
    <path class="cls-2" d="M53.51,127.9a4.68,4.68,0,0,1,.65.91c0.75,1.39.66,3.21,0.57,5" transform="translate(0.71 1.24)"/>
    <path class="cls-2" d="M54.73,133.83a5.68,5.68,0,0,1,2.17,1.85A5.17,5.17,0,0,1,57,139a2.47,2.47,0,0,0,0,1.63,2.33,2.33,0,0,0,.88.7" transform="translate(0.71 1.24)"/>
    <path class="cls-2" d="M57.83,141.3a1.12,1.12,0,0,1-.85.86c-0.47,0-1.18-.63-1.33-0.27a0.52,0.52,0,0,0,.13.56,0.55,0.55,0,0,0,.31,0,2.39,2.39,0,0,1,2,1.05,3.89,3.89,0,0,1,1.3,2.35,7.24,7.24,0,0,0,0,2,2.76,2.76,0,0,0,.63.87" transform="translate(0.71 1.24)"/>
    <path class="cls-2" d="M60,148.7a5.25,5.25,0,0,1-1.09,1.2,3.6,3.6,0,0,1-3.57.28,4.27,4.27,0,0,0-1.3-.68,1,1,0,0,0-1,.18,1.17,1.17,0,0,0,.75,1.18,2.23,2.23,0,0,0,1.13,0c1.3-.08,2.54,1.05,3.27,2.21a6.37,6.37,0,0,1,.9,2.52,2.88,2.88,0,0,1-.25,2.1c-0.29.38-.8,0.62-1.13,1a3.23,3.23,0,0,0-.35.52" transform="translate(0.71 1.24)"/>
    <path class="cls-2" d="M57.41,159.24c0.73,1,1.46,1.94,1.19,3.1s-1.33,2.28-2.21,2.06c-0.48-.12-0.9-0.66-1.42-0.83a2.44,2.44,0,0,0-.5-0.09" transform="translate(0.71 1.24)"/>
    <path class="cls-2" d="M54.47,163.48a2.25,2.25,0,0,0-.36,1.33c0.15,0.52,1,.71,1.82,1a3,3,0,0,1,1.58.95,4.16,4.16,0,0,1,.14,2.68,1.8,1.8,0,0,0,.07,1.12,1.84,1.84,0,0,0,.9.56" transform="translate(0.71 1.24)"/>
    <path class="cls-2" d="M58.62,171.08a6.92,6.92,0,0,1-2.18,1.36,4.49,4.49,0,0,1-3.59-.5,6.53,6.53,0,0,0-1.35-.85,1.46,1.46,0,0,0-1.67.23,1,1,0,0,0,0,1,1.51,1.51,0,0,0,1.09.51c0.53,0.09,1,.13,1.5.17a3,3,0,0,1,1.68.48,2.34,2.34,0,0,1,.61,1.6,7.63,7.63,0,0,1-.35,2.45" transform="translate(0.71 1.24)"/>
    <path class="cls-2" d="M54.35,177.5c-0.27,1.17-.53,2.33-1.26,2.5s-1.58-.46-2.38-0.16a1.33,1.33,0,0,0-.88,1,2,2,0,0,0,.79,1.17,6.32,6.32,0,0,1,1.83,3.19,5.2,5.2,0,0,1-1.16,4.5C50.15,191,48.17,192,47,191.26c-0.42-.24-0.74-0.68-1.21-1A1,1,0,0,0,45,190a1.08,1.08,0,0,0-.65.91c-0.09.93,1.49,1,2.44,1.57a3,3,0,0,1,1.36,2.38,4.91,4.91,0,0,1-.73,3.26,7.78,7.78,0,0,0-1,1.48,3.3,3.3,0,0,0-.15,1.18,1.84,1.84,0,0,0,.09.62l0,0.07" transform="translate(0.71 1.24)"/>
    <path class="cls-2" d="M46.46,201.43c-0.43.19-.86,0.39-1.3,0.54a5.53,5.53,0,0,1-1.92.35c-1.14,0-2.52-.39-2.84-1.43-0.2-.64,0-1.54-0.6-1.86a1.15,1.15,0,0,0-1.33.13,1.06,1.06,0,0,0,.31.79c0.74,1,1.61,1.62,1.84,2.52a3.58,3.58,0,0,1-1.41,3.36,3.64,3.64,0,0,1-4.1.23A5.31,5.31,0,0,1,34,204.83" transform="translate(0.71 1.24)"/>
    <path class="cls-2" d="M34,204.83a1.43,1.43,0,0,0-1.18.23,1.3,1.3,0,0,0,.57,1.25,5.88,5.88,0,0,0,1.28.47,2.15,2.15,0,0,1,.92,2.44,4.45,4.45,0,0,0-.56,1.45,1.85,1.85,0,0,0,.32.72" transform="translate(0.71 1.24)"/>
    <path class="cls-2" d="M35.32,211.38a8.28,8.28,0,0,1-2.37,2.21c-1.47.74-3.4,0.36-5.25-.53-1.06-.51-2.1-1.18-1.92-2.33,0.09-.58.48-1.28,0.12-1.5a1.1,1.1,0,0,0-1.13.18,1.67,1.67,0,0,0,.52,1,2,2,0,0,1-.2,2.08c-0.77,1.23-2.1,1.72-3.56,2.47a2.61,2.61,0,0,0-1.45,1.23,2.61,2.61,0,0,0,.31,1.51" transform="translate(0.71 1.24)"/>
    <path class="cls-2" d="M20.37,217.72a4,4,0,0,1-2.61-.92,2,2,0,0,1-.49-2,3.33,3.33,0,0,0,.62-1.3,1.13,1.13,0,0,0-.83-1,1.24,1.24,0,0,0-1,1c-0.23.86,0.29,1.57,0.48,2.35a3.69,3.69,0,0,1-.06,1.79,6.67,6.67,0,0,1-3.28,4,7.37,7.37,0,0,1-4,.69c-1.49-.09-3.27-0.39-3.76.6a3.21,3.21,0,0,0-.2,1.11" transform="translate(0.71 1.24)"/>
    <path class="cls-2" d="M5.23,224.1a3.17,3.17,0,0,1-.46-1.58c0.08-.83.91-1.66,0.7-2.52a1,1,0,0,0-.58-0.72,0.78,0.78,0,0,0-.75.12,0.86,0.86,0,0,0-.22.86,2.3,2.3,0,0,0,.43.63,3,3,0,0,1,0,3.07,8.08,8.08,0,0,1-2.68,2.33c-0.58.41-1.1,0.88-1.63,1.34" transform="translate(0.71 1.24)"/>
    <path class="cls-2" d="M29.32,113l2,9.23a72.65,72.65,0,0,0,3.23,11.59c1.88,4.71,4.78,9.29,9.07,11.81a16.09,16.09,0,0,0,4.91,1.87" transform="translate(0.71 1.24)"/>
    <path class="cls-2" d="M25.38,119.37q0,1.95,0,3.9c0.05,6,.11,11.92,1.25,17.77a41.87,41.87,0,0,0,10,20.49,20.77,20.77,0,0,0,9.13,6.21" transform="translate(0.71 1.24)"/>
    <path class="cls-2" d="M16.4,121q0,2.74-.05,5.47c-0.08,8-.15,15.92.53,23.94,0.78,9,2.53,18.11,6.52,26.16A56.35,56.35,0,0,0,31.9,189q1.21,1.35,2.48,2.64" transform="translate(0.71 1.24)"/>
    <path class="cls-2" d="M11.66,124.26q-0.17,1.64-.35,3.28a250.41,250.41,0,0,0-1.94,27.22,118.27,118.27,0,0,0,2.24,22.92,75.72,75.72,0,0,0,5.22,16.85,81,81,0,0,0,4,7.46" transform="translate(0.71 1.24)"/>
    <path class="cls-2" d="M81.25,58c2.05,1.29,4.1,2.59,5.35,4.4,1.51,2.19,1.85,5.14,2.13,8.09a7.92,7.92,0,0,0,.65,3c1,1.87,3.85,2.48,5.67,3.89,2.74,2.11,3.19,6,3.73,9.63,0.38,2.6.8,5.06-.89,7.37-0.69.94-1.72,1.85-1.54,2.59A3.65,3.65,0,0,0,98,98.47a16.35,16.35,0,0,1,6.36,7.4c2,4.36,3,10.14.91,14.15-0.76,1.44-1.93,2.64-2.73,4.28a4,4,0,0,0-.52,2.34c0.27,1.26,2,2,3.25,2.86,5.73,4.05,3,12.34.13,19.37-1.47,3.57-3,6.82-6.49,7.4-1.06.17-2.3,0.11-2.86,0.78a2.86,2.86,0,0,0-.42,1.81c0,1.92.85,3.52,1.23,5.15,1.31,5.63-2.62,11.48-6.06,17.33-1.42,2.42-2.75,4.84-5.07,5.64-2.94,1-7.47-.59-9.56,1.31a8.45,8.45,0,0,0-1.8,3.76" transform="translate(0.71 1.24)"/>
    <path class="cls-5" d="M74.7,111.52a18.37,18.37,0,0,1,3.72.35A12.15,12.15,0,0,1,85,116.36c2.92,3.79,3.68,8.82,3.66,13.58a36.17,36.17,0,0,1-2.58,13.64c-1.16,2.91-2.76,5.85-5.41,7.16a7.82,7.82,0,0,1-5.66.42,5,5,0,0,1-2.5-1.58,4.37,4.37,0,0,1-.83-2.58,3.27,3.27,0,0,1,1.25-2.91,1.7,1.7,0,0,1,1.33-.33c0.57,0.19.76,1.09,1.25,1.66a2.5,2.5,0,0,0,2.25.75c1.92-.31,2.62-2.87,3.16-5.16a37.51,37.51,0,0,0,1.17-13.23c-0.31-3.09-1-6.49-2.75-8.82a5.33,5.33,0,0,0-3.58-2.25c-0.94-.18-2.1-0.23-2.16.25,0,0.32.39,0.86,0.42,1.38a1.54,1.54,0,0,1-1,1.37c-1.46.58-2.87-1.58-3.25-3.49a3.83,3.83,0,0,1,.8-3.51C71.49,111.8,73.09,111.66,74.7,111.52Z" transform="translate(0.71 1.24)"/>
    <path class="cls-5" d="M65.88,75.88a3.19,3.19,0,0,0-.34,1.49c0.2,0.81,2,.46,3.53,0a15,15,0,0,0,9.39-6.57c0.86-1.26,1.69-2.66,2.51-4.06" transform="translate(0.71 1.24)"/>
    <path class="cls-5" d="M61.29,85.48A37.65,37.65,0,0,0,66,85.22a22.91,22.91,0,0,0,8.48-2.86,14.44,14.44,0,0,0,5.35-5,20.12,20.12,0,0,0,1.1-2.29" transform="translate(0.71 1.24)"/>
    <path class="cls-5" d="M71,88.66a59.45,59.45,0,0,0,6.87-2.14A18.29,18.29,0,0,0,84,82.8,24.93,24.93,0,0,0,86.27,80" transform="translate(0.71 1.24)"/>
    <path class="cls-5" d="M72.53,96.93a39.75,39.75,0,0,0,6.28-.38,15.46,15.46,0,0,0,8.43-4,21.52,21.52,0,0,0,2.5-3.26" transform="translate(0.71 1.24)"/>
    <path class="cls-5" d="M60.76,101.64a60.72,60.72,0,0,0,7,.9,46.34,46.34,0,0,0,12.9-1.11,23.62,23.62,0,0,0,6.89-2.5c0.69-.41,1.34-0.87,2-1.33" transform="translate(0.71 1.24)"/>
    <path class="cls-5" d="M76.2,107.22a31.77,31.77,0,0,0,5.19.31A22,22,0,0,0,89,105.59c0.88-.38,1.73-0.8,2.58-1.22" transform="translate(0.71 1.24)"/>
    <path class="cls-5" d="M84.93,116.29a19,19,0,0,0,3.73.5,10.34,10.34,0,0,0,7.14-2.2,13.45,13.45,0,0,0,1.57-1.82" transform="translate(0.71 1.24)"/>
    <path class="cls-5" d="M88,123.28c0.81,0,1.62,0,2.42.06,1.16,0.06,2.32.19,3.52,0.21a10.75,10.75,0,0,0,5.41-1.09,5.62,5.62,0,0,0,2.42-2.74A2,2,0,0,0,102,118a2.08,2.08,0,0,0-.95-0.56" transform="translate(0.71 1.24)"/>
    <path class="cls-5" d="M88.64,128.9a14.21,14.21,0,0,1,3.19.63,17.21,17.21,0,0,1,4.81,2.83l1.17,0.92" transform="translate(0.71 1.24)"/>
    <path class="cls-5" d="M86,143.78a11.86,11.86,0,0,0,3.82.52,9.53,9.53,0,0,0,5.11-1.87,17.83,17.83,0,0,0,2.5-2.44" transform="translate(0.71 1.24)"/>
    <path class="cls-5" d="M59.34,145.39a30.74,30.74,0,0,1,4.19.72c1.63,0.42,3.23,1,4.86,1.46a28.46,28.46,0,0,0,3.47.68" transform="translate(0.71 1.24)"/>
    <path class="cls-5" d="M82.92,149c1.63,0.12,3.26.28,4.9,0.55a9.48,9.48,0,0,1,4.54,1.68,3.47,3.47,0,0,1,1.46,2.29,4.16,4.16,0,0,1-.07.89" transform="translate(0.71 1.24)"/>
    <path class="cls-5" d="M78.49,154.36c3.19,0.5,6.37,1,9.22,2.55a11.57,11.57,0,0,1,3.95,3.33,6.54,6.54,0,0,1,1.15,2.8,1.91,1.91,0,0,1-.22,1.61,2,2,0,0,1-.86.36" transform="translate(0.71 1.24)"/>
    <path class="cls-5" d="M75.75,164.95a35.59,35.59,0,0,0,4.08,1.84,28.6,28.6,0,0,0,6,1.26,8.29,8.29,0,0,0,4.08-.18,8.45,8.45,0,0,0,1.16-.61" transform="translate(0.71 1.24)"/>
    <path class="cls-5" d="M57.61,169.7c1.5-.37,3-0.71,4.52-0.94a34.56,34.56,0,0,1,12.92.62,26.07,26.07,0,0,1,7.91,3,5.56,5.56,0,0,1,2.21,2.32c0.32,0.63.59,1.44,0.18,1.71a1.41,1.41,0,0,1-.47.14" transform="translate(0.71 1.24)"/>
    <path class="cls-5" d="M71.47,175.84a35.2,35.2,0,0,1,5.59.64,6.75,6.75,0,0,1,4.77,3,1.84,1.84,0,0,1,.29,1.92,1.23,1.23,0,0,1-.52.35,2.81,2.81,0,0,1-1.45,0" transform="translate(0.71 1.24)"/>
    <line class="cls-2" x1="101.47" y1="53.8" x2="114.45" y2="60.83"/>
    <polyline class="cls-5" points="314.4 185.03 314.4 53.8 101.47 53.8"/>
    <polyline class="cls-5" points="307.38 156.47 307.38 60.83 114.45 60.83"/>
    <line class="cls-2" x1="314.4" y1="53.8" x2="307.38" y2="60.83"/>
    <path class="cls-5" d="M100.76,52.56c5.38,7.92,10.61,15.9,14.26,24.58a96.85,96.85,0,0,1,6.08,21.95" transform="translate(0.71 1.24)"/>
    <path class="cls-5" d="M113.74,59.59a115.7,115.7,0,0,1,6.78,12.59c0.6,1.33,1.18,2.68,1.72,4s1,2.74,1.51,4.12c0.93,2.77,1.74,5.56,2.42,8.38l0.05,0.2" transform="translate(0.71 1.24)"/>
    <path class="cls-5" d="M306.67,155.23q-1.3-1.48-2.72-2.83a49,49,0,0,0-7.68-5.93,61.94,61.94,0,0,0-8.58-4.47,80.92,80.92,0,0,0-8.72-3.14" transform="translate(0.71 1.24)"/>
    <path class="cls-5" d="M233.67,133.42c-7,.08-13.87.52-20.65,1.23" transform="translate(0.71 1.24)"/>
    <path class="cls-5" d="M237.14,133.41h-1.2" transform="translate(0.71 1.24)"/>
    <path class="cls-5" d="M208,135.23c-6.54.81-13,1.86-19.44,3" transform="translate(0.71 1.24)"/>
    <path class="cls-5" d="M313.7,183.79c-3.22-8.5-6.44-17-11.88-23.43-6-7.07-14.64-11.64-24.27-14.6" transform="translate(0.71 1.24)"/>
    <path class="cls-5" d="M268.42,143.45l-1-.19" transform="translate(0.71 1.24)"/>
    <path class="cls-5" d="M233.94,140.45q-4.12,0-8.19.25" transform="translate(0.71 1.24)"/>
    <path class="cls-5" d="M212.71,141.75l-2.61.3" transform="translate(0.71 1.24)"/>
    <path class="cls-5" d="M204.9,142.72c-5.84.81-11.65,1.8-17.48,2.9l-2.85.55" transform="translate(0.71 1.24)"/>
    <line class="cls-2" x1="314.4" y1="185.03" x2="307.38" y2="156.47"/>
    <path class="cls-6" d="M270.95,250.09c-0.1-5.14-.2-10.27-1.45-15.11-1.93-7.47-6.59-14.24-12.29-19.94-4.43-4.44-9.47-8.23-15.07-10.22-8.14-2.91-17.44-2-26-.28" transform="translate(0.71 1.24)"/>
    <path class="cls-5" d="M278.39,249.94q0-.85,0-1.72c0-1.16-.06-2.35-0.11-3.57-0.09-2.11-.25-4.29-0.56-6.54-0.13-1-.29-1.93-0.49-2.91-0.15-.73-0.31-1.46-0.5-2.19a41.36,41.36,0,0,0-1.79-5.36,48.54,48.54,0,0,0-4.35-8.19,60.73,60.73,0,0,0-5.57-7.21q-1-1.16-2.12-2.27c-0.65-.66-1.31-1.31-2-2s-1.37-1.27-2.09-1.89a55.25,55.25,0,0,0-4.5-3.52q-1.84-1.29-3.81-2.41a40.73,40.73,0,0,0-3.87-1.92c-0.81-.35-1.65-0.68-2.5-1s-1.54-.51-2.32-0.72" transform="translate(0.71 1.24)"/>
    <path class="cls-5" d="M233.81,195.22l-1-.07" transform="translate(0.71 1.24)"/>
    <path class="cls-5" d="M227.67,195.1l-0.87,0" transform="translate(0.71 1.24)"/>
    <path class="cls-5" d="M280.89,249.89c0-.57,0-1.14,0-1.73,0-1.17-.06-2.38-0.12-3.62-0.09-2-.24-4.15-0.52-6.35-0.12-1-.28-1.92-0.46-2.91-0.13-.7-0.28-1.42-0.46-2.13s-0.29-1.15-.45-1.72-0.33-1.14-.52-1.7q-0.55-1.68-1.23-3.29a49.83,49.83,0,0,0-3.09-6.15,57.76,57.76,0,0,0-3.77-5.6q-1.5-2-3.12-3.8-1.08-1.21-2.19-2.37c-0.59-.61-1.19-1.21-1.8-1.8s-1.24-1.18-1.88-1.75c-1.28-1.15-2.63-2.27-4-3.33a49.53,49.53,0,0,0-6.32-4.07q-1.43-.77-2.95-1.44-1.06-.47-2.15-0.88c-0.5-.19-1-0.37-1.51-0.53" transform="translate(0.71 1.24)"/>
    <path class="cls-5" d="M304.14,249.43c0-.55,0-1.14,0-1.75,0-1.22-.06-2.56-0.13-4-0.08-1.86-.21-3.92-0.43-6.16s-0.56-4.68-1.09-7.3c-0.23-1.17-.51-2.38-0.83-3.62a66.92,66.92,0,0,0-2.46-7.61,71.43,71.43,0,0,0-3.14-6.92c-1.14-2.19-2.36-4.28-3.64-6.25a84.77,84.77,0,0,0-6.22-8.41q-1.23-1.46-2.48-2.85t-2.33-2.48l-1.48-1.48q-0.75-.74-1.54-1.48-1.57-1.47-3.28-2.93a80,80,0,0,0-6.85-5.23,70.33,70.33,0,0,0-8.11-4.77q-1.52-.76-3.13-1.46t-3.11-1.26c-0.63-.23-1.27-0.46-1.9-0.67l-0.86-.28" transform="translate(0.71 1.24)"/>
    <path class="cls-5" d="M310,249.31c0-.55,0-1.13,0-1.75,0-1.24-.06-2.61-0.13-4.11s-0.16-3.15-.31-4.93-0.36-3.7-.67-5.75-0.72-4.23-1.27-6.53c-0.16-.64-0.32-1.3-0.5-1.95s-0.36-1.29-.55-1.93q-0.57-1.9-1.23-3.73c-0.88-2.43-1.86-4.76-2.92-7s-2.2-4.33-3.39-6.34a87.17,87.17,0,0,0-6-8.76,96.92,96.92,0,0,0-6.44-7.51q-0.73-.77-1.47-1.52l-1.24-1.24L282.65,185q-1.31-1.24-2.72-2.47c-1.88-1.65-3.89-3.28-6.08-4.88a79,79,0,0,0-7.08-4.63,72.46,72.46,0,0,0-8.24-4.11q-1.74-.73-3.58-1.39t-3.66-1.19q-1.4-.41-2.78-0.75" transform="translate(0.71 1.24)"/>
    <path class="cls-5" d="M243.9,164.63l-1.88-.31" transform="translate(0.71 1.24)"/>
    <path class="cls-6" d="M205.64,206.95l-2.54.74" transform="translate(0.71 1.24)"/>
    <path class="cls-6" d="M183.68,215.32l-0.34.17c-8.49,4.33-13.14,8.39-37.66,16.09-7.4,2.33-16.6,5-20.86,5.93" transform="translate(0.71 1.24)"/>
    <path class="cls-5" d="M233.3,194.71l-0.45,0" transform="translate(0.71 1.24)"/>
    <path class="cls-5" d="M227.54,194.63l-0.94,0" transform="translate(0.71 1.24)"/>
    <path class="cls-5" d="M186.66,210.3a3.38,3.38,0,0,0,1.57,1.53c1.17,0.28,2.82-1.43,3-2.94,0.16-1.67-1.49-3.11-3.14-3.36a4.57,4.57,0,0,0-4.36,2.17,6.18,6.18,0,0,0-.81,2.77c-0.19,2,.06,4.31,1.35,5.55,1.51,1.47,4.47,1.45,6.73.53a8.64,8.64,0,0,0,4.43-4.18,13.13,13.13,0,0,0,1-8c-0.46-2.94-1.63-5.91-3.82-7.43a9.61,9.61,0,0,0-5.52-1.38c-2.14,0-4.37.4-5.59,1.88a8.15,8.15,0,0,0-.88,1.45" transform="translate(0.71 1.24)"/>
    <path class="cls-5" d="M180.54,198.85a44.1,44.1,0,0,0,4-6.12c0.93-1.8,1.72-3.83,1-5.66-0.37-.9-1.12-1.75-1-2.64a3.5,3.5,0,0,1,.39-1.1" transform="translate(0.71 1.24)"/>
    <path class="cls-5" d="M184.89,183.32a5.73,5.73,0,0,0-5.42,3.27" transform="translate(0.71 1.24)"/>
    <path class="cls-5" d="M179.47,186.59a10.78,10.78,0,0,1,1.17-2.78c1.09-1.65,3.15-2.86,3.54-4.65a7.35,7.35,0,0,0,0-2.29,5.55,5.55,0,0,1,.25-3.08,5.65,5.65,0,0,1,.64-0.93" transform="translate(0.71 1.24)"/>
    <path class="cls-5" d="M185,172.86a15,15,0,0,0-4.42-2.8c-3-1-6.64.31-9.81,2.08a7.71,7.71,0,0,0-3.61,3.28,5.81,5.81,0,0,0-.29,3.24,13,13,0,0,0,.55,1.93" transform="translate(0.71 1.24)"/>
    <path class="cls-5" d="M175.57,170.12a20.92,20.92,0,0,1,2.64-2.69c2.15-1.75,4.86-2.74,7-4.73,2.49-2.3,4.25-5.95,3.57-9.09-0.25-1.16-.83-2.25-1-3.46a4.62,4.62,0,0,1,.29-2.65,7,7,0,0,1,1-1.4" transform="translate(0.71 1.24)"/>
    <path class="cls-5" d="M189,146.11c-1.79.1-3.58,0.19-4.87,1.25a3.9,3.9,0,0,0-1.27,1.84,6.27,6.27,0,0,0-.18,1" transform="translate(0.71 1.24)"/>
    <path class="cls-5" d="M182.69,150.19a1.44,1.44,0,0,1-.89-0.16,1.25,1.25,0,0,1-.22-1.29,2.45,2.45,0,0,1,1.22-1.11,11.4,11.4,0,0,0,4.07-4.88,23.08,23.08,0,0,0,2.26-7.77,25.65,25.65,0,0,0-.22-6.87,11.24,11.24,0,0,1-.27-2.93,11.37,11.37,0,0,0,.21-1.83,3.63,3.63,0,0,0-1.69-2.62,3.11,3.11,0,0,0-2-.6,4.6,4.6,0,0,0-1.69.72" transform="translate(0.71 1.24)"/>
    <path class="cls-5" d="M183.42,120.86A4.47,4.47,0,0,1,184.6,122c0.62,1,.28,2.57-0.3,3.73a11.31,11.31,0,0,1-.63,1.06" transform="translate(0.71 1.24)"/>
    <path class="cls-5" d="M185.87,122.11a7.37,7.37,0,0,1-.63,3.17c-0.73,1.28-2.38,2-3.89,2.66a23,23,0,0,0-5.75,3.28c-1.53,1.28-3,3-2.95,4.88,0,0.45.12,0.91,0.15,1.37,0,0.22,0,.44,0,0.67" transform="translate(0.71 1.24)"/>
    <path class="cls-5" d="M180.77,128.21a21.63,21.63,0,0,0,2.17-3.75,16.26,16.26,0,0,0,1-3.21" transform="translate(0.71 1.24)"/>
    <path class="cls-5" d="M184,120.51a65.59,65.59,0,0,0,.57-7.25c0.17-3.33.47-6.69-1-9.55-0.82-1.64-2.21-3.1-2.54-4.88a6.52,6.52,0,0,1,0-1.79c0-.36.09-0.72,0.15-1.08" transform="translate(0.71 1.24)"/>
    <path class="cls-5" d="M181.22,96c-1.87.88-3.74,1.76-4.59,3.32a12.57,12.57,0,0,0-.9,4.21c-0.11.79-.26,1.55-0.41,2.31" transform="translate(0.71 1.24)"/>
    <path class="cls-5" d="M177.39,100.22a18.15,18.15,0,0,1,.86-4c0.66-1.72,1.85-3.25,2.4-5,1-3.21-.15-7.12-2.2-10-1.13-1.57-2.54-2.82-2.84-4.89-0.25-1.68.23-3.9,1.93-4.17a1.46,1.46,0,0,1,1.4.38,1.65,1.65,0,0,1-.11,1.17" transform="translate(0.71 1.24)"/>
    <path class="cls-5" d="M178.28,81.92a11,11,0,0,1,.74-2.55c0.92-1.92,3-3.34,3.44-5.44a5,5,0,0,0-1.17-4.25c-1.53-1.62-4.31-1.56-6.7-1A15,15,0,0,0,167,73.21a34.29,34.29,0,0,0-3.8,5.19,31.64,31.64,0,0,0-3.64,7.18,10.5,10.5,0,0,0-.53,5c0.32,1.79,1.37,3.49,1.49,5.27a11.16,11.16,0,0,1-.35,3" transform="translate(0.71 1.24)"/>
    <path class="cls-5" d="M160.23,98.85a10.7,10.7,0,0,0-.18-2.9,9.07,9.07,0,0,0-2.48-3.77c-0.74-.78-1.55-1.58-1.55-2.5a3.87,3.87,0,0,1,.32-1.26" transform="translate(0.71 1.24)"/>
    <path class="cls-5" d="M156.33,88.42a14.94,14.94,0,0,0-4.28,3.48,16.17,16.17,0,0,0-2,4.81,28,28,0,0,0-1.69,7.61,12.54,12.54,0,0,0,1.67,6.76c0.63,1,1.43,1.75,1.29,3.54,0,0.6-.2,1.32-0.41,1.2s-0.27-.44-0.49-0.59l-0.08,0" transform="translate(0.71 1.24)"/>
    <path class="cls-5" d="M150.33,115.19a7.32,7.32,0,0,0-.41-2.25,5.94,5.94,0,0,0-2.22-2.46,9,9,0,0,0-1.44-.77,1.46,1.46,0,0,1-1-.79,1.25,1.25,0,0,1,0-.36" transform="translate(0.71 1.24)"/>
    <path class="cls-5" d="M145.27,108.55a3.72,3.72,0,0,0-1.89.84,2.75,2.75,0,0,0-.6,2,6.24,6.24,0,0,0,.12.84" transform="translate(0.71 1.24)"/>
    <path class="cls-5" d="M142.91,112.18a35.24,35.24,0,0,0,.75-4.38,22.44,22.44,0,0,0-2.32-11.4A57.09,57.09,0,0,0,138,90.6c-0.94-1.5-1.83-2.92-1.14-5.4,0.23-.83.63-1.77,1-1.54a1.49,1.49,0,0,1,.36.43" transform="translate(0.71 1.24)"/>
    <path class="cls-5" d="M136.43,89.65a29.07,29.07,0,0,0,2-2.15c0.81-1,1.59-2.21,1.47-3.32-0.18-1.68-2.41-3.17-4.29-3.37-2.89-.31-5,2.42-6.85,4.85A51.7,51.7,0,0,0,123,94a30.57,30.57,0,0,0-3,10.8,24.56,24.56,0,0,0,.38,7.5c0.31,1.39.77,2.74,1.1,4.16a4.24,4.24,0,0,1,.15,1.35,4.82,4.82,0,0,1-.12.65" transform="translate(0.71 1.24)"/>
    <path class="cls-5" d="M121.57,118.45a10.69,10.69,0,0,0-.67-2.56,5.84,5.84,0,0,0-1.94-2.33,7.89,7.89,0,0,1-1.72-1.3,4.76,4.76,0,0,1-.61-1.19" transform="translate(0.71 1.24)"/>
    <path class="cls-5" d="M116.62,111.07c-0.44.87-.88,1.73-1.36,2.59-1.15,2-2.55,4-3,6.25a11.57,11.57,0,0,0,.2,4.91,13.77,13.77,0,0,1,.74,4.55,10,10,0,0,1-1.13,3.07" transform="translate(0.71 1.24)"/>
    <path class="cls-5" d="M112.06,132.43a7.44,7.44,0,0,0,.7-2.91,4.58,4.58,0,0,0-2.14-3.51,5.61,5.61,0,0,1-2-1.43,3.38,3.38,0,0,1-.31-1" transform="translate(0.71 1.24)"/>
    <path class="cls-5" d="M108.27,123.59a7.18,7.18,0,0,0-2.19,2.55,4.19,4.19,0,0,0-.28,2.09c0.14,1,.73,1.78.51,3.26-0.06.39-.17,0.83-0.41,0.76a0.62,0.62,0,0,1-.18-0.1" transform="translate(0.71 1.24)"/>
    <path class="cls-6" d="M124.81,237.52c-9.3,1.51-18.6,3-28.36,4.2-15.82,1.9-32.84,2.89-46.22-4.81a28.71,28.71,0,0,1-15.29-25.09" transform="translate(0.71 1.24)"/>
    <path class="cls-5" d="M35.1,207.13c0-.33.08-0.66,0.12-1" transform="translate(0.71 1.24)"/>
    <path class="cls-5" d="M52.43,185.17a34.94,34.94,0,0,1,10.69-1.83c7.18-.12,14.31,1.9,19.2,6.68A19.28,19.28,0,0,1,88,200.77a15.82,15.82,0,0,1-1.4,9.3,7.22,7.22,0,0,1-3.19,3.53,3.53,3.53,0,0,1-2.85.25,4.39,4.39,0,0,1-1-.68" transform="translate(0.71 1.24)"/>
    <path class="cls-5" d="M84.18,206.42c0.59-1.61,1.18-3.23.43-4.18-1-1.25-4.27-1.36-5.49-.05-0.86.92-.69,2.54-1.13,3.7-1,2.75-5.44,2.83-8.87,2.46a20.12,20.12,0,0,0-5-.29c-2.65.41-5.22,2.46-6.91,5a7.32,7.32,0,0,0-1.46,5.27,5.47,5.47,0,0,0,1.2,2.44,10.76,10.76,0,0,0,.94.94" transform="translate(0.71 1.24)"/>
    <path class="cls-5" d="M101.2,227.26a12.68,12.68,0,0,1,4.07-2.8c2.89-1,6.4.73,9.75,0.43a7.43,7.43,0,0,0,4.24-1.73,11.49,11.49,0,0,0,2.55-4,13.07,13.07,0,0,1,2.34-4,3,3,0,0,1,1.54-1,3.63,3.63,0,0,1,1.47.17" transform="translate(0.71 1.24)"/>
    <path class="cls-5" d="M127.17,214.36c-1.34-2-2.69-3.91-4.59-4.63a11.23,11.23,0,0,0-4.72-.24" transform="translate(0.71 1.24)"/>
    <path class="cls-5" d="M117.86,209.5a24.79,24.79,0,0,1,6.48-.58c2.09,0.18,4.23.87,6.18,0.68,3.14-.31,5.8-2.93,8.22-5.69,1.73-2,3.34-4,3.3-6.32,0-.86-0.25-1.75-0.19-2.63a5.07,5.07,0,0,1,.63-2c0.12-.23.26-0.44,0.39-0.66" transform="translate(0.71 1.24)"/>
    <path class="cls-5" d="M142.86,192.29a7.87,7.87,0,0,0-1.93.76,6.9,6.9,0,0,1-1.24.74c-1.1.36-2.26-.81-3.48-1.69a9.38,9.38,0,0,0-9.17-1.33,5.8,5.8,0,0,0-2.87,2.18,7.71,7.71,0,0,0-.54,1.18" transform="translate(0.71 1.24)"/>
    <path class="cls-5" d="M134.09,191.21a12.33,12.33,0,0,1,3.59-3.1c1.61-.77,3.62-0.77,5.31-1.52a9.28,9.28,0,0,0,4.91-7.23c0.13-1.13,0-2.24.17-3.36a5,5,0,0,1,.78-2.25,6.91,6.91,0,0,1,.53-0.64" transform="translate(0.71 1.24)"/>
    <path class="cls-5" d="M149.37,173.11a19.2,19.2,0,0,0-4.31-.45c-1.92.06-4.24,0.53-4.67,2.08a4.39,4.39,0,0,0-.11,1" transform="translate(0.71 1.24)"/>
    <path class="cls-5" d="M141.47,174.24a7.92,7.92,0,0,1,1.45-2c1.86-1.65,5.27-.93,7.65-2,3-1.36,4.37-5.59,4.38-9,0-1.09-.13-2.1-0.22-3.17a7.7,7.7,0,0,1,.54-4.38c0.12-.21.26-0.42,0.4-0.63" transform="translate(0.71 1.24)"/>
    <path class="cls-5" d="M155.67,153a8.29,8.29,0,0,0-2.86.45c-2.25,1-3,4.29-4.82,6.25s-4.19,2.49-6.7,3.17c-2.29.63-4.57,1.28-6.12,2.9a7.23,7.23,0,0,0-1.92,4.15c0,0.42,0,.83,0,1.25" transform="translate(0.71 1.24)"/>
    <path class="cls-5" d="M133.43,156.51c1.56-2.64,3.11-5.28,5.43-6.94s5.3-2.34,8.25-2.75a8.31,8.31,0,0,0,3.75-1.08,3.36,3.36,0,0,0,1.58-2.43,4.17,4.17,0,0,0-.42-1.61" transform="translate(0.71 1.24)"/>
    <path class="cls-5" d="M146.51,147.44a16.43,16.43,0,0,0,2.46-2.09,6.58,6.58,0,0,0,1.92-4.63,8.43,8.43,0,0,0-.51-2" transform="translate(0.71 1.24)"/>
    <path class="cls-5" d="M150.38,138.69c2.12,0.77,4.23,1.54,5.08,3.16s0.38,4.37-.71,6.27a12.7,12.7,0,0,1-1.53,2c-0.72.82-1.48,1.62-2.23,2.43" transform="translate(0.71 1.24)"/>
    <path class="cls-5" d="M145.52,148a31,31,0,0,0,3.7-4.41c2.26-3.51,2.93-7.86,3.08-12.39,0.13-4-.13-8-2.91-10.74-0.85-.82-1.93-1.52-2.18-2.59a2.57,2.57,0,0,1,.09-1.41,4.86,4.86,0,0,1,.73-1.23" transform="translate(0.71 1.24)"/>
    <path class="cls-5" d="M148,115.23c-2.65.29-5.29,0.58-6.69,2.27a8,8,0,0,0-1.41,4.23c-0.08.86-.09,1.68-0.09,2.5" transform="translate(0.71 1.24)"/>
    <path class="cls-5" d="M57.88,221.74c-0.89-1.68-1.77-3.35-1.56-4.93s1.41-2.94,2.75-4.13a8.71,8.71,0,0,1,4.82-2.43c0.67-.05,1.35,0,2.11,0a1.37,1.37,0,0,0,1-.37,1.4,1.4,0,0,0,.18-0.37" transform="translate(0.71 1.24)"/>
    <path class="cls-5" d="M67.16,209.47a11.19,11.19,0,0,1,1.06,3.67c0.09,2.66-2.09,5.16-3.12,7.85a12.88,12.88,0,0,0,.83,10.33c1.18,2.47,3,4.87,5.28,5.23a9.51,9.51,0,0,0,3.67-.46" transform="translate(0.71 1.24)"/>
    <path class="cls-5" d="M84.31,237.85c-4.76-2.29-9.53-4.59-11.93-9a12.3,12.3,0,0,1-.83-10.26c0.61-1.42,1.6-2.66,2.22-4.07a17.55,17.55,0,0,0,.83-2.63" transform="translate(0.71 1.24)"/>
    <path class="cls-5" d="M88.84,235.07a39.53,39.53,0,0,1-5.46-7.81,17.82,17.82,0,0,1-1.85-8.59,19.33,19.33,0,0,1,.28-2.26,15.22,15.22,0,0,0,.42-3.6,6,6,0,0,0-.65-2.36,11.07,11.07,0,0,0-.83-1.29" transform="translate(0.71 1.24)"/>
    <path class="cls-5" d="M92.45,231.75a22.22,22.22,0,0,1-3.61-4.53,12.09,12.09,0,0,1-1.43-5.73,16.62,16.62,0,0,1,.56-3.93,23.64,23.64,0,0,0,1-5.13,17.14,17.14,0,0,0-.56-3.88" transform="translate(0.71 1.24)"/>
    <path class="cls-5" d="M107.72,207.1c2.41-2.71,4.82-5.42,7.73-6.51,3.52-1.31,7.79-.24,12.2.44,2.44,0.38,4.92.64,6.73-.48a10.52,10.52,0,0,0,2.51-2.58" transform="translate(0.71 1.24)"/>
    <path class="cls-5" d="M110.45,181.81A65.29,65.29,0,0,0,113,170a20.29,20.29,0,0,0-1.22-9.77,19.07,19.07,0,0,1-1.73-4.35,11.46,11.46,0,0,1,0-2.2" transform="translate(0.71 1.24)"/>
    <path class="cls-5" d="M100.36,191A11.91,11.91,0,0,1,99,186.23c0-2.48,2.07-4.75,3.34-7.32a8.45,8.45,0,0,0,1-5.54,11.26,11.26,0,0,0-.7-1.93" transform="translate(0.71 1.24)"/>
    <path class="cls-5" d="M184.25,178.74a5,5,0,0,0,2.14-2.49c0.49-1.43.21-3.38,1.13-4.36,0.75-.8,2.28-1,3.24-1.72a5.53,5.53,0,0,0,1.25-1.63" transform="translate(0.71 1.24)"/>
    <path class="cls-5" d="M192,168.53a15,15,0,0,1,1.54,4.13,6.63,6.63,0,0,1-.56,4.13,9.82,9.82,0,0,1-1.22,1.66" transform="translate(0.71 1.24)"/>
    <path class="cls-5" d="M191.92,172a28.85,28.85,0,0,1,1.67-3.31,12,12,0,0,1,6-5.13c1.71-.61,3.65-0.77,4.83-2a3.73,3.73,0,0,0,.9-1.64,6.88,6.88,0,0,0,.12-0.72" transform="translate(0.71 1.24)"/>
    <path class="cls-5" d="M205.46,159.19c1,1.86,2.06,3.72,1.76,5.52s-1.67,3.26-1.94,5a6.12,6.12,0,0,0,.06,1.91,5.6,5.6,0,0,1,.12,2.59c-0.32.85-1.35,1.38-1.49,2.65-0.08.73,0.14,1.72,0.42,1.7a2,2,0,0,0,.66-1" transform="translate(0.71 1.24)"/>
    <path class="cls-5" d="M206.69,164c0.3-1.19.59-2.38,1.34-2.86s2.25-.2,3.49-0.63a2.28,2.28,0,0,0,1.64-1.61,2.77,2.77,0,0,0,0-.57" transform="translate(0.71 1.24)"/>
    <path class="cls-5" d="M213.17,158.38c0.56,1.12,1.11,2.23.92,3.13s-1.32,1.72-1.61,3.25c-0.13.7-.09,1.56,0.24,1.64a1.76,1.76,0,0,0,1-.63" transform="translate(0.71 1.24)"/>
    <path class="cls-5" d="M213.34,161.59a13.78,13.78,0,0,1,1.87-2.11,9.18,9.18,0,0,1,3.87-1.81,3.33,3.33,0,0,0,1.52-.6,2.94,2.94,0,0,0,.6-1.08" transform="translate(0.71 1.24)"/>
    <path class="cls-5" d="M221.2,156a5,5,0,0,1,.87,2c0.09,1.16-.86,2.33-1.23,3.56a12.07,12.07,0,0,0-.12,3.78,6.24,6.24,0,0,1-1,3.74c-0.51.81-1.27,1.69-.75,2.25a1.3,1.3,0,0,0,1.5.27,1.18,1.18,0,0,0,.18-0.75" transform="translate(0.71 1.24)"/>
    <path class="cls-5" d="M220.2,165.73a16.68,16.68,0,0,1,1.13-2.74,9.57,9.57,0,0,0,1.33-2.66,9.28,9.28,0,0,1,.34-2c0.53-1.07,2.41-1,3.7-1.9a1.42,1.42,0,0,0,.73-1.07,1.63,1.63,0,0,0-.09-0.43" transform="translate(0.71 1.24)"/>
    <path class="cls-5" d="M227.34,155a5.45,5.45,0,0,1,1.77,1.76,3.13,3.13,0,0,1,0,3c-0.44.64-1.26,1-1.37,2a0.55,0.55,0,0,0,.15.59,0.42,0.42,0,0,0,.35-0.21,0.6,0.6,0,0,0,.06-0.35" transform="translate(0.71 1.24)"/>
    <path class="cls-5" d="M228.52,158.07a12.17,12.17,0,0,1,2.11-2.71c2.18-1.9,5.8-2.17,8.74-1.18a5,5,0,0,1,3.32,2.81,1.06,1.06,0,0,0,.25.46,0.94,0.94,0,0,0,.8-0.15" transform="translate(0.71 1.24)"/>
    <path class="cls-5" d="M243.74,157.29a3.7,3.7,0,0,1-1,1.48c-0.74.52-1.93,0.09-3.11-.34" transform="translate(0.71 1.24)"/>
    <path class="cls-5" d="M241,158c-1.05-.62-2.1-1.24-2.92-0.91a3.14,3.14,0,0,0-1.46,2.53c-0.18,1.65.76,3,.85,4.48a6,6,0,0,1-1.52,3.93c-0.78,1-1.79,1.91-2.86,1.83a4.13,4.13,0,0,1-1-.27" transform="translate(0.71 1.24)"/>
    <path class="cls-5" d="M236.51,162.31A4.76,4.76,0,0,1,238,160a3.52,3.52,0,0,1,2.46-.21c0.75,0.14,1.53.4,2,0a2.24,2.24,0,0,0,.51-0.71" transform="translate(0.71 1.24)"/>
    <path class="cls-5" d="M243,159.1a5.74,5.74,0,0,1,.65,2.23c0,1.28-1.12,2.44-2.14,3.55a2,2,0,0,0-.63,1,1.91,1.91,0,0,0,0,.31" transform="translate(0.71 1.24)"/>
    <path class="cls-5" d="M240.1,167a8.25,8.25,0,0,1,1.44-1.51,5,5,0,0,1,3.26-.84c2.55,0.1,5.62,1.41,5.67,3.79,0,1.07-.56,2.35,0,3.07a2.71,2.71,0,0,0,.71.52" transform="translate(0.71 1.24)"/>
    <path class="cls-5" d="M251.22,172a16.59,16.59,0,0,1-1.33,4c-0.94,1.8-2.58,3.62-4.68,3.2-0.86-.17-1.81-0.73-2.33,0a0.7,0.7,0,0,0-.15.73,0.69,0.69,0,0,0,.37.15" transform="translate(0.71 1.24)"/>
    <path class="cls-5" d="M243.09,180c1.2,0.76,2.4,1.51,2.64,2.53s-0.61,2.49-.46,3.93a2.18,2.18,0,0,0,1,1.76,2.78,2.78,0,0,0,1,.21" transform="translate(0.71 1.24)"/>
    <path class="cls-5" d="M247.23,188.41a4.34,4.34,0,0,1-5.79.15" transform="translate(0.71 1.24)"/>
    <path class="cls-5" d="M241.44,188.57a4.08,4.08,0,0,0,3.93,2.17" transform="translate(0.71 1.24)"/>
    <path class="cls-5" d="M245.37,190.74a9.11,9.11,0,0,1-.83,3.57c-1.11,2-3.88,3.08-6.41,2.84a7.44,7.44,0,0,1-5.19-2.88" transform="translate(0.71 1.24)"/>
    <path class="cls-5" d="M231.52,190.17a4.51,4.51,0,0,1,1.62,2.13c0.28,1.32-.84,3.09-0.26,4.27a3.76,3.76,0,0,0,1,1.07" transform="translate(0.71 1.24)"/>
    <path class="cls-5" d="M233.85,197.64c-2.16.13-4.32,0.25-5.57-.52s-1.59-2.47-2.72-5c-1.2-2.63-3.3-6.15-4.11-4.37a1.63,1.63,0,0,0-.1,1.33c0.23,0.31.86,0.14,1.49,0" transform="translate(0.71 1.24)"/>
    <path class="cls-5" d="M225.92,193h0c1.44-.29,2,2.43,2,4.62,0,0.75,0,1.44.41,1.68a1.88,1.88,0,0,0,.72.14" transform="translate(0.71 1.24)"/>
    <path class="cls-5" d="M229.09,199.44a7,7,0,0,1-2.86,1.64,3.9,3.9,0,0,1-3.83-1.45c-0.66-.93-0.88-2.27-2.16-2.26a0.83,0.83,0,0,0-.77.29,0.84,0.84,0,0,0,.33.47" transform="translate(0.71 1.24)"/>
    <path class="cls-5" d="M219.78,198.12A3.14,3.14,0,0,1,221,199a2.91,2.91,0,0,1,.14,1.77,1.26,1.26,0,0,0,.19,1.14,1.17,1.17,0,0,0,.68-0.1" transform="translate(0.71 1.24)"/>
    <path class="cls-5" d="M222,201.81a5.75,5.75,0,0,1-1.23,1.38c-1.35,1-3.57.58-5.13-.48l-0.35-.25" transform="translate(0.71 1.24)"/>
    <path class="cls-5" d="M213.46,200.05a6.48,6.48,0,0,1-.44-1.39,7,7,0,0,0-.78-2.82c-0.52-.86-1.47-1.85-1.93-1.3a0.6,0.6,0,0,0,0,.76c0.25,0.27.9,0.37,0.88,0.13a0.5,0.5,0,0,0-.05-0.14" transform="translate(0.71 1.24)"/>
    <path class="cls-5" d="M212,200.09a3.9,3.9,0,0,1,2,.13c0.9,0.45,1.26,1.84,1.39,3a3.8,3.8,0,0,0,.25,1.26,3.31,3.31,0,0,0,.67.82" transform="translate(0.71 1.24)"/>
    <path class="cls-6" d="M216.36,205.35a18.58,18.58,0,0,1-7.36,2.09c-2,0-4.32-.48-5.39-1.84-0.72-.92-0.89-2.23-2.35-3a0.85,0.85,0,0,0-.88-0.17,0.76,0.76,0,0,0,.25.82,0.78,0.78,0,0,0,.63,0" transform="translate(0.71 1.24)"/>
    <path class="cls-5" d="M201.26,203.21a6,6,0,0,1,1,.77,3.8,3.8,0,0,1,.86,2.72c0,0.81-.11,1.72.36,2a2,2,0,0,0,1.05.11" transform="translate(0.71 1.24)"/>
    <path class="cls-6" d="M204.52,208.81a14.79,14.79,0,0,1-2.68,2.34,6.88,6.88,0,0,1-2,.86,10.6,10.6,0,0,1-4.2-.12" transform="translate(0.71 1.24)"/>
    <path class="cls-5" d="M180.53,170a139.45,139.45,0,0,0,11-9.45,64.94,64.94,0,0,0,15.26-21.93,29.23,29.23,0,0,0,2.47-12c0-.35,0-0.7-0.07-1" transform="translate(0.71 1.24)"/>
    <path class="cls-5" d="M184,172a98.32,98.32,0,0,0,10.48-7.56c5.16-4.39,9.57-9.65,14.76-14.06a54.08,54.08,0,0,1,14-8.72,46.81,46.81,0,0,1,9.67-2.89" transform="translate(0.71 1.24)"/>
    <path class="cls-5" d="M236.11,132.95a82.53,82.53,0,0,0-11.21,2.75,48.61,48.61,0,0,0-8.19,3.57,71.71,71.71,0,0,0-8,5.39" transform="translate(0.71 1.24)"/>
    <path class="cls-5" d="M208.67,144.65a54.92,54.92,0,0,0,2.64-5.13,26.85,26.85,0,0,0,2.44-9.71,24.14,24.14,0,0,0-.09-2.95" transform="translate(0.71 1.24)"/>
    <path class="cls-5" d="M210.6,114a24.86,24.86,0,0,1,1.15,5.14c0.2,2.21,0,4.79-1.54,5.94s-3.8.9-5.58,0.24c-4.1-1.53-4.77-5.8-5.46-11.63-0.33-2.79-.67-5.93,1.07-6.06a2.74,2.74,0,0,1,1.94.79c0.34,0.35.55,0.79,0.83,1.11,0.9,1,2.61.78,4.31,0.55" transform="translate(0.71 1.24)"/>
    <path class="cls-5" d="M207.86,109.59c-1.27.16-2.53,0.31-3.4-.32s-1.27-1.89-2.18-2.38c-0.62-.33-1.44-0.29-2.11-0.59a2.54,2.54,0,0,1-.79-0.6c-1.36-1.48-1-4.11-.06-6.06,1.42-2.85,4.19-4.26,5.14-7.23,0.39-1.21.48-2.69,1.33-3.36a3.76,3.76,0,0,1,3.62,0c2.44,1.19,2.7,4.37,2.92,7.17a17.17,17.17,0,0,1-.19,6,18.55,18.55,0,0,1-.89,2.35" transform="translate(0.71 1.24)"/>
    <path class="cls-5" d="M211.67,91.92a3.49,3.49,0,0,0,.49-0.94c0.2-.62.2-1.34,0.4-1.91,0.68-2,3.71-2.16,6.44-1.75,4.07,0.61,7.47,2.57,8.15,5.68a6.11,6.11,0,0,1-.36,3.62l-0.2.46" transform="translate(0.71 1.24)"/>
    <path class="cls-5" d="M226.6,97.08a6,6,0,0,1,.87.14,7.15,7.15,0,0,1,4.56,4.15c1.08,2.55.62,5.53-.24,8-0.5,1.44-1.14,2.7-1.68,4.35a3.71,3.71,0,0,1-.8,1.68c-0.73.55-2.12-.43-3.32-1.16a14.35,14.35,0,0,0-3.92-1.76,33.16,33.16,0,0,0-5.43-.8" transform="translate(0.71 1.24)"/>
    <path class="cls-5" d="M216.64,111.69a6.17,6.17,0,0,0,.46.89c1.09,1.62,3.54,1.34,5.94,1.69,1.31,0.19,2.6.56,3,1.44a4.05,4.05,0,0,1-.12,2.77,8.62,8.62,0,0,1-2.57,4.29c-1.5,1.25-3.59,1.77-5.34,3a6.83,6.83,0,0,1-2.53,1.44,3.46,3.46,0,0,1-2.95-1.12c-1.32-1.54-.38-4.18-0.22-6.21a18.11,18.11,0,0,0-.3-3.8c-0.08-.65-0.16-1.39-0.63-1.46a1,1,0,0,0-.91.47,1.23,1.23,0,0,0,.13,1" transform="translate(0.71 1.24)"/>
    <path class="cls-5" d="M210.09,105.67a5.82,5.82,0,0,1,2.39-2.26,4,4,0,0,1,3.89.87,4.69,4.69,0,0,1,1.08,3.88,7.35,7.35,0,0,1-1.63,3.88,5.48,5.48,0,0,1-2.86,2c-1.76.45-4.09-.05-4.9-1.5a4.24,4.24,0,0,1-.42-1.84,19.88,19.88,0,0,1,.06-2.37" transform="translate(0.71 1.24)"/>
    <path class="cls-5" d="M200.75,97.53c-1.87-.93-3.44-2-4-3.58-0.76-2.13.35-5.17-.26-7.61a10.89,10.89,0,0,0-2-3.64" transform="translate(0.71 1.24)"/>
    <path class="cls-5" d="M194.47,82.71c2.07-.65,4.15-1.31,6.4-0.67a3,3,0,0,1,2,1.35,3.4,3.4,0,0,1,.07,1.68" transform="translate(0.71 1.24)"/>
    <path class="cls-5" d="M203,85.07c-0.52-1.8-1-3.6-2.29-4.64-1.46-1.23-3.93-1.4-5.59-2.49-2.07-1.36-2.9-4.17-2.56-7.2,0.16-1.45.59-3-.34-3.64a3.08,3.08,0,0,0-.47-0.27" transform="translate(0.71 1.24)"/>
    <path class="cls-5" d="M191.71,66.83a55.63,55.63,0,0,1,10.78,1.88c2.86,0.87,5.85,2.2,7.07,4.51,0.84,1.58.86,3.62,0.88,5.66" transform="translate(0.71 1.24)"/>
    <path class="cls-5" d="M210.43,78.88a3.53,3.53,0,0,1-.5-1.55c0.05-1.12,1.63-2,2.12-3.13a4.29,4.29,0,0,0,.24-1.57" transform="translate(0.71 1.24)"/>
    <path class="cls-5" d="M212.3,72.62A19.42,19.42,0,0,1,216,76.23,10.25,10.25,0,0,1,217.94,82a9.63,9.63,0,0,1-.59,3,9.1,9.1,0,0,0-.56,2.09" transform="translate(0.71 1.24)"/>
    <path class="cls-5" d="M220.06,87.51a8.65,8.65,0,0,1-.3-3.11c0.31-2.36,2.35-4.34,3.81-6.59a5.41,5.41,0,0,0,1-2.57,6.38,6.38,0,0,0-.13-1.37" transform="translate(0.71 1.24)"/>
    <path class="cls-5" d="M224.46,73.88c2.34,1.28,4.67,2.55,5.09,4.53A8.66,8.66,0,0,1,229,82.3" transform="translate(0.71 1.24)"/>
    <path class="cls-5" d="M228.61,80.25a6.48,6.48,0,0,0,.9-3.51c-0.11-.88-0.57-1.81-0.34-2.57a3,3,0,0,1,1.59-1.5c1.7-.86,3.45-0.75,5-1.67a3.31,3.31,0,0,0,1.71-2,4,4,0,0,0,0-1.07" transform="translate(0.71 1.24)"/>
    <path class="cls-5" d="M237.51,67.93c1.72,2.85,3.44,5.69,3.77,8.94,0.25,2.46-.31,5.16-3.21,6.63-1,.53-2.39.9-2.27,1.37a3,3,0,0,0,1.33.94" transform="translate(0.71 1.24)"/>
    <path class="cls-5" d="M237.13,85.81a2.59,2.59,0,0,1,1.06-.89,13.84,13.84,0,0,0,1.58-.24,2.28,2.28,0,0,0,.83-1.29" transform="translate(0.71 1.24)"/>
    <path class="cls-5" d="M240.6,83.39c0.86,2.49,1.71,5,1.1,7.29a8.34,8.34,0,0,1-3.31,4.47,17.45,17.45,0,0,1-4.64,2.06,6.13,6.13,0,0,0-1.55.69,4.92,4.92,0,0,0-1.43,1.47" transform="translate(0.71 1.24)"/>
    <path class="cls-5" d="M212.68,88.78a35.39,35.39,0,0,0-1.41-5.33c-1.08-3-2.78-5.89-6.18-6.83-1.23-.34-2.68-0.43-3-1.42a3,3,0,0,1-.11-0.57" transform="translate(0.71 1.24)"/>
    <path class="cls-5" d="M226.55,91.45c0.35-1.25.72-2.53,1.16-3.84,0.68-2.06,1.49-4.21,3.34-5.18s4.58-.75,4.93-3.42c0.08-.62,0-1.39-0.22-1.37a1.5,1.5,0,0,0-.57.57" transform="translate(0.71 1.24)"/>
    <path class="cls-5" d="M239.34,135.39c-1.66-1.09-3.32-2.18-4.06-3.57-1.26-2.38.2-5.66,2-9,1.73-3.19,3.79-6.48,6.35-6a5.57,5.57,0,0,1,3.48,2.77,7.3,7.3,0,0,1,.75,3.74,29.21,29.21,0,0,1-.66,4.89" transform="translate(0.71 1.24)"/>
    <path class="cls-5" d="M245.18,119.29c-0.07-1.45-.14-2.91.52-3.92,0.87-1.32,3-1.89,4.86-1.77,2.34,0.15,4.31,1.38,6.46.3a4.49,4.49,0,0,1,1.46-.66c0.74,0,.85,1.64.88,3a12,12,0,0,1-.48,4.35" transform="translate(0.71 1.24)"/>
    <path class="cls-5" d="M256.32,121.91a4.47,4.47,0,0,1,1.42-1.15,3.73,3.73,0,0,1,3.5.88c2,1.69,1.91,4.69,1.63,7.29a26.54,26.54,0,0,1-.78,4.38,8.62,8.62,0,0,1-3,4.93,3.25,3.25,0,0,1-2.47.8c-0.81-.21-1.39-1.16-2.13-1.8a5.67,5.67,0,0,0-2.8-1.19,20.88,20.88,0,0,0-2.16-.22" transform="translate(0.71 1.24)"/>
    <path class="cls-5" d="M256.45,139a3.77,3.77,0,0,1,.3.94,5.33,5.33,0,0,1-1.65,4.48c-1.27,1.2-3.07,1.54-4.55,2.37-1.13.63-2.08,1.54-3.52,1.7-1,.11-2.18-0.13-2.54-0.73-0.48-.79.51-2.22,0.61-3.43a4.61,4.61,0,0,0-.84-2.62" transform="translate(0.71 1.24)"/>
    <path class="cls-5" d="M244.26,141.71c-0.24,2.61-.47,5.22-2,5.71a5.86,5.86,0,0,1-3.24-.51c-1.5-.53-2.9-1.14-3.47-2.34-0.41-.88-0.38-2.06-0.79-3a14.84,14.84,0,0,0-1.32-1.86,2.65,2.65,0,0,1-.59-2.23c0.51-1.26,3.49-1.62,3.3-3.07a5.35,5.35,0,0,0-.17-0.63c-0.41-1.58,2.4.1,5.22,1.77" transform="translate(0.71 1.24)"/>
    <path class="cls-5" d="M243.51,129.57c1.8-1.64,3.59-3.28,5-2.67,1,0.43,1.76,2,2,3.44a6.17,6.17,0,0,1-1.18,5,4.81,4.81,0,0,1-4,2.26,2.55,2.55,0,0,1-1.95-1,3.37,3.37,0,0,1-.32-0.86" transform="translate(0.71 1.24)"/>
    <path class="cls-5" d="M259.24,114.49a5.4,5.4,0,0,0,2.53-2.86c0.39-1.45-.22-3.38.28-4.79s2.33-2.46,3.55-3.73a13.25,13.25,0,0,0,1.71-2.4" transform="translate(0.71 1.24)"/>
    <path class="cls-5" d="M267.31,100.7c1.17,0.95,2.33,1.89,2.58,3.09a4.29,4.29,0,0,1-.16,2" transform="translate(0.71 1.24)"/>
    <path class="cls-5" d="M269.73,105.76c0.61-.7,1.21-1.39,1.81-2.09A8,8,0,0,0,273,101.5c0.46-1.14.54-2.62,1.21-3.29,1.61-1.61,6.59,1.28,8.32-.66a4.44,4.44,0,0,0,.58-1" transform="translate(0.71 1.24)"/>
    <path class="cls-5" d="M283.1,96.59c0.68,2.7,1.36,5.39.81,8.64-0.6,3.56-2.67,7.78-6.24,7.18-1.55-.26-3.39-1.44-4.13,0a1.24,1.24,0,0,0-.15,1.13,1.28,1.28,0,0,0,1-.26" transform="translate(0.71 1.24)"/>
    <path class="cls-5" d="M274.37,113.24a9.21,9.21,0,0,1,2.57.55,1.5,1.5,0,0,0,.84.2,1.29,1.29,0,0,0,.55-0.43" transform="translate(0.71 1.24)"/>
    <path class="cls-5" d="M278.33,113.56a14,14,0,0,1,.19,4.24c-0.44,2.61-2.51,4.85-4.85,6.61-2,1.49-4.18,2.62-6.52,2.4-1.37-.13-2.8-0.72-4.13-0.33" transform="translate(0.71 1.24)"/>
    <path class="cls-5" d="M272.54,125.19a1.63,1.63,0,0,1,.57.4,5.47,5.47,0,0,0,1.08,1.3,2.22,2.22,0,0,0,1.13.11" transform="translate(0.71 1.24)"/>
    <path class="cls-5" d="M275.32,127c0.26,1.47.53,2.94-.18,3.67-0.91.93-3.41,0.64-3.93,2.56a1.12,1.12,0,0,0,.15,1.22,1.37,1.37,0,0,0,.66-0.24,3.87,3.87,0,0,1,2.87-.14c1.44,0.37,3,1.09,3.65,2.29,0.79,1.53,0,3.86,1,5.38a5.56,5.56,0,0,0,.55.7" transform="translate(0.71 1.24)"/>
    <path class="cls-5" d="M280.07,142.45a2,2,0,0,1,.37,1.12,1.9,1.9,0,0,1-.77,1.07,7.6,7.6,0,0,1-4.85,1.53c-2.35.14-5.32,0.07-6-1.38-0.31-.63-0.19-1.53-1-2.51a1.88,1.88,0,0,0-1-.79,2.16,2.16,0,0,0,.31.63" transform="translate(0.71 1.24)"/>
    <path class="cls-5" d="M267.08,142.1a5.82,5.82,0,0,1,.5,2.43,11.17,11.17,0,0,1-.74,2.19,2.68,2.68,0,0,0-.12,1.74,3.21,3.21,0,0,0,.53.83" transform="translate(0.71 1.24)"/>
    <path class="cls-5" d="M267.25,149.29c-2.41,0-4.81.06-6.92-1.06a5.33,5.33,0,0,1-3-3.72,2.5,2.5,0,0,0-.59-1.86c-0.56-.43-1.74-0.57-1.89-0.15a1.46,1.46,0,0,0,.27.89" transform="translate(0.71 1.24)"/>
    <path class="cls-5" d="M282.75,108.93a3.48,3.48,0,0,1,1.44.17,7.35,7.35,0,0,1,2.95,2.85,2.38,2.38,0,0,0,1.19,1.09,2.3,2.3,0,0,0,.86,0" transform="translate(0.71 1.24)"/>
    <path class="cls-5" d="M289.18,113a3.85,3.85,0,0,1-2.85,1.71c-0.76,0-1.71-.17-1.81.14a2,2,0,0,0,.52,1" transform="translate(0.71 1.24)"/>
    <path class="cls-5" d="M285,115.89a6.27,6.27,0,0,1,2.66-.48c1.69,0.28,2.55,2.63,3.42,4.84,0.41,1,.81,2,1.61,2.23a3.27,3.27,0,0,0,1.24,0" transform="translate(0.71 1.24)"/>
    <path class="cls-5" d="M294,122.45c-1,1.57-1.93,3.14-3.23,3.89-1.51.88-3.47,0.67-5.85-.57-0.84-.44-1.73-1-1.95-0.71a2.52,2.52,0,0,0,.19,1.43" transform="translate(0.71 1.24)"/>
    <path class="cls-5" d="M283.14,126.49c1.69,0.19,3.38.38,3.66,1.52,0.13,0.55-.06,1.31.14,1.9a2.92,2.92,0,0,0,.71,1" transform="translate(0.71 1.24)"/>
    <path class="cls-5" d="M287.66,130.9a6.35,6.35,0,0,0-3.42,2c-0.66,1-.83,2.43-1.47,3.23-0.8,1-2.34.94-4.09,0.57" transform="translate(0.71 1.24)"/>
    <path class="cls-5" d="M226.6,97.08c-1.88.06-3.76,0.13-4.7,1.17-0.69.76-.88,2.06-1.38,3.28a3.61,3.61,0,0,1-2.23,2.4,4.14,4.14,0,0,1-1,0" transform="translate(0.71 1.24)"/>
    <path class="cls-5" d="M150.17,227.2c6.44-3.2,12.88-6.4,18.06-11.1a52.89,52.89,0,0,0,8.23-9.83c1.71-2.55,3.29-5.21,5.81-7a9.2,9.2,0,0,1,7.39-1.7A6.86,6.86,0,0,1,194,201a10.7,10.7,0,0,1,.74,4.41" transform="translate(0.71 1.24)"/>
    <path class="cls-5" d="M167.63,161.6c2.29-5.43,4.59-10.87,8.17-15.35,2.59-3.24,5.85-6,8.34-9.4a17.26,17.26,0,0,0,2.93-5.91,16.42,16.42,0,0,0,.39-4.72c0-.72-0.1-1.44-0.17-2.16" transform="translate(0.71 1.24)"/>
    <path class="cls-5" d="M166,189.82c1-3.31,2-6.62,4.1-9.26a16.76,16.76,0,0,1,8.25-5.5,4.25,4.25,0,0,0,2.36-1.23c0.52-.66.82-1.73,0.34-2.24a1.85,1.85,0,0,0-.5-0.34" transform="translate(0.71 1.24)"/>
    <path class="cls-5" d="M91.89,33.35a11.48,11.48,0,0,1,1-2,5.52,5.52,0,0,1,1.56-1.54c1.42-.9,3.2-0.88,5-0.67" transform="translate(0.71 1.24)"/>
    <line class="cls-2" x1="100.2" y1="30.42" x2="100.2" y2="26.25"/>
    <path class="cls-5" d="M92.47,25c7,0,11.49-.19,14.69-0.3,5.12-.17,7-0.13,8-0.83s1.43-2.42,1.09-3.93a9,9,0,0,0-1.95-3.62c-3.75-4.56-10-7-15.44-8.64C94.39,6.34,90.4,5.52,80.18,4.9" transform="translate(0.71 1.24)"/>
    <line class="cls-2" x1="84.01" y1="6.35" x2="84.01" y2="4.42"/>
    <path class="cls-5" d="M83.3,3.18C82.11,3,80.93,2.76,79.61,2.46S77,1.8,76.4.87A2.59,2.59,0,0,1,76.08,0" transform="translate(0.71 1.24)"/>
    <line class="cls-1" x1="271.24" y1="251.33" x2="331.46" y2="251.33"/>
    <line class="cls-2" x1="310.76" y1="967.91" x2="310.76" y2="251.33"/>
    <line class="cls-2" x1="304.85" y1="967.91" x2="304.85" y2="251.33"/>
    <line class="cls-2" x1="281.6" y1="967.91" x2="281.6" y2="251.33"/>
    <line class="cls-2" x1="279.1" y1="967.91" x2="279.1" y2="251.33"/>
    <path class="cls-5" d="M7.57,122.4A11.83,11.83,0,0,1,5,125.58,7.45,7.45,0,0,1,1.58,127a9,9,0,0,1-1.58.09" transform="translate(0.71 1.24)"/>
    <path class="cls-5" d="M4.09,113.14a17,17,0,0,1,.5,5.95A4.73,4.73,0,0,1,3,122.34a5.51,5.51,0,0,1-1.46.64" transform="translate(0.71 1.24)"/>
    <path class="cls-6" d="M195.59,211.9c-1.79,2.26-3.58,4.53-6.06,5.18a7.09,7.09,0,0,1-3.79-.13,3.28,3.28,0,0,1-1.67-1,3.89,3.89,0,0,1-.4-0.67" transform="translate(0.71 1.24)"/>
  </g>
  <g>
    <line class="cls-1" x1="0.9" y1="34.04" x2="0.9" y2="967.41"/>
    <line class="cls-1" x1="0.9" y1="967.41" x2="0.9" y2="34.04"/>
    <line class="cls-1" x1="0.9" y1="34.04" x2="0.9" y2="1000.75"/>
    <line class="cls-1" x1="0.9" y1="0.71" x2="128.77" y2="0.71"/>
    <line class="cls-1" x1="0.9" y1="34.04" x2="128.77" y2="34.04"/>
    <line class="cls-2" x1="0.9" y1="5.8" x2="128.77" y2="5.8"/>
    <line class="cls-2" x1="0.9" y1="29.88" x2="128.77" y2="29.88"/>
    <line class="cls-2" x1="0.9" y1="25.71" x2="128.77" y2="25.71"/>
    <line class="cls-2" x1="128.77" y1="3.88" x2="0.9" y2="3.88"/>
    <line class="cls-1" x1="0.9" y1="0.71" x2="0.9" y2="34.04"/>
    <line class="cls-1" x1="128.77" y1="1000.75" x2="0.9" y2="1000.75"/>
    <line class="cls-1" x1="128.77" y1="967.41" x2="0.9" y2="967.41"/>
    <line class="cls-3" x1="128.77" y1="971.58" x2="0.9" y2="971.58"/>
    <line class="cls-1" x1="0.9" y1="967.41" x2="0.9" y2="1000.75"/>
    <line class="cls-1" x1="128.77" y1="967.41" x2="128.77" y2="34.04"/>
    <rect class="cls-2" x="0.9" y="34.04" width="127.88" height="933.37"/>
  </g>
</svg>
