<svg width="32" height="22" viewBox="0 0 32 22" fill="none" xmlns="http://www.w3.org/2000/svg">
<path d="M29.6034 0.515625H2.39656C1.07294 0.515625 0 1.58856 0 2.91219V19.0846C0 20.4082 1.07294 21.4812 2.39656 21.4812H29.6034C30.927 21.4812 32 20.4083 32 19.0846V2.91219C32 1.58856 30.9271 0.515625 29.6034 0.515625Z" fill="#F5F5F5"/>
<path d="M0.131836 2.12838H31.8681C31.5434 1.18981 30.6524 0.515625 29.6035 0.515625H2.39659C1.34759 0.515625 0.456648 1.18981 0.131836 2.12838Z" fill="#FF4B55"/>
<path d="M32 6.96484H0V8.57753H32V6.96484Z" fill="#FF4B55"/>
<path d="M32 3.74219H0V5.35487H32V3.74219Z" fill="#FF4B55"/>
<path d="M0 11.2524C0 11.5571 0.247063 11.8042 0.55175 11.8042H32V10.1914H0V11.2524Z" fill="#FF4B55"/>
<path d="M32 16.6445H0V18.2573H32V16.6445Z" fill="#FF4B55"/>
<path d="M31.8682 19.8672H0.131836C0.456648 20.8058 1.34765 21.4799 2.39659 21.4799H29.6035C30.6525 21.4799 31.5434 20.8058 31.8682 19.8672Z" fill="#FF4B55"/>
<path d="M32 13.418H0V15.0307H32V13.418Z" fill="#FF4B55"/>
<path d="M0.55175 11.8048H14.3449C14.6496 11.8048 14.8966 11.5578 14.8966 11.2531V1.06738C14.8966 0.762625 14.6496 0.515625 14.3449 0.515625H2.39656C1.07294 0.515688 0 1.58863 0 2.91225V11.2531C0 11.5578 0.247063 11.8048 0.55175 11.8048Z" fill="#41479B"/>
<path d="M1.54915 1.78166L1.67127 2.14791L2.05733 2.15085C2.10733 2.15129 2.12802 2.21504 2.08783 2.24473L1.77727 2.47404L1.89377 2.8421C1.9089 2.88973 1.85458 2.92923 1.8139 2.9001L1.49983 2.67566L1.18577 2.90016C1.14508 2.92929 1.0909 2.88979 1.1059 2.84216L1.2224 2.4741L0.911835 2.24479C0.871647 2.21504 0.892335 2.15129 0.942335 2.15091L1.3284 2.14798L1.45052 1.78173C1.46627 1.73423 1.53327 1.73423 1.54915 1.78166Z" fill="#F5F5F5"/>
<path d="M1.54915 3.69568L1.67127 4.06193L2.05733 4.06487C2.10733 4.06531 2.12802 4.129 2.08783 4.15875L1.77727 4.38812L1.89377 4.75619C1.9089 4.80381 1.85458 4.84331 1.8139 4.81419L1.49983 4.58975L1.18577 4.81425C1.14508 4.84331 1.0909 4.80387 1.1059 4.75625L1.2224 4.38818L0.911835 4.15881C0.871647 4.12906 0.892335 4.06537 0.942335 4.06493L1.3284 4.06199L1.45052 3.69574C1.46627 3.6483 1.53327 3.6483 1.54915 3.69568Z" fill="#F5F5F5"/>
<path d="M1.54915 5.6137L1.67127 5.97995L2.05733 5.98288C2.10733 5.98332 2.12802 6.04701 2.08783 6.07676L1.77727 6.30613L1.89377 6.6742C1.9089 6.72182 1.85458 6.76132 1.8139 6.7322L1.49983 6.50776L1.18577 6.73226C1.14508 6.76132 1.0909 6.72195 1.1059 6.67426L1.2224 6.3062L0.911835 6.07682C0.871647 6.04707 0.892335 5.98338 0.942335 5.98295L1.3284 5.98001L1.45052 5.61376C1.46627 5.56626 1.53327 5.56626 1.54915 5.6137Z" fill="#F5F5F5"/>
<path d="M1.54915 7.52776L1.67127 7.89401L2.05733 7.89694C2.10733 7.89738 2.12802 7.96113 2.08783 7.99082L1.77727 8.22019L1.89377 8.58825C1.9089 8.63588 1.85458 8.67538 1.8139 8.64625L1.49983 8.42181L1.18577 8.64631C1.14508 8.67538 1.0909 8.63594 1.1059 8.58831L1.2224 8.22025L0.911835 7.99088C0.871647 7.96125 0.892335 7.89744 0.942335 7.89701L1.3284 7.89407L1.45052 7.52782C1.46627 7.48032 1.53327 7.48032 1.54915 7.52776Z" fill="#F5F5F5"/>
<path d="M1.54915 9.44568L1.67127 9.81193L2.05733 9.81487C2.10733 9.8153 2.12802 9.87899 2.08783 9.90874L1.77727 10.1381L1.89377 10.5062C1.9089 10.5538 1.85458 10.5933 1.8139 10.5642L1.49983 10.3397L1.18577 10.5642C1.14508 10.5933 1.0909 10.5539 1.1059 10.5062L1.2224 10.1382L0.911835 9.9088C0.871647 9.87905 0.892335 9.81537 0.942335 9.81493L1.3284 9.81199L1.45052 9.44574C1.46627 9.3983 1.53327 9.3983 1.54915 9.44568Z" fill="#F5F5F5"/>
<path d="M3.03645 2.71912L3.15858 3.08537L3.54464 3.08831C3.59464 3.08875 3.61533 3.1525 3.57514 3.18219L3.26458 3.41156L3.38108 3.77962C3.3962 3.82725 3.34189 3.86675 3.3012 3.83762L2.98714 3.61312L2.67308 3.83762C2.63239 3.86669 2.5782 3.82725 2.5932 3.77962L2.7097 3.41156L2.39914 3.18219C2.35895 3.15244 2.37964 3.08875 2.42964 3.08831L2.8157 3.08537L2.93783 2.71912C2.95358 2.67175 3.02064 2.67175 3.03645 2.71912Z" fill="#F5F5F5"/>
<path d="M3.03645 4.63714L3.15858 5.00339L3.54464 5.00633C3.59464 5.00677 3.61533 5.07052 3.57514 5.1002L3.26458 5.32958L3.38108 5.69764C3.3962 5.74527 3.34189 5.78477 3.3012 5.75564L2.98714 5.53114L2.67308 5.75564C2.63239 5.7847 2.5782 5.74533 2.5932 5.69764L2.7097 5.32958L2.39914 5.1002C2.35895 5.07058 2.37964 5.00677 2.42964 5.00633L2.8157 5.00339L2.93783 4.63714C2.95358 4.5897 3.02064 4.5897 3.03645 4.63714Z" fill="#F5F5F5"/>
<path d="M3.03645 6.5512L3.15858 6.91745L3.54464 6.92039C3.59464 6.92083 3.61533 6.98452 3.57514 7.01427L3.26458 7.24364L3.38108 7.61171C3.3962 7.65933 3.34189 7.69883 3.3012 7.66971L2.98714 7.44521L2.67308 7.66971C2.63239 7.69877 2.5782 7.65933 2.5932 7.61171L2.7097 7.24364L2.39914 7.01427C2.35895 6.98452 2.37964 6.92083 2.42964 6.92039L2.8157 6.91745L2.93783 6.5512C2.95358 6.50377 3.02064 6.50377 3.03645 6.5512Z" fill="#F5F5F5"/>
<path d="M3.03645 8.46912L3.15858 8.83537L3.54464 8.83831C3.59464 8.83875 3.61533 8.90244 3.57514 8.93219L3.26458 9.16156L3.38108 9.52962C3.3962 9.57725 3.34189 9.61675 3.3012 9.58762L2.98714 9.36312L2.67308 9.58762C2.63239 9.61675 2.5782 9.57725 2.5932 9.52962L2.7097 9.16156L2.39914 8.93219C2.35895 8.90244 2.37964 8.83875 2.42964 8.83831L2.8157 8.83537L2.93783 8.46912C2.95358 8.42175 3.02064 8.42175 3.03645 8.46912Z" fill="#F5F5F5"/>
<path d="M4.52327 1.78167L4.64539 2.14792L5.03145 2.15086C5.08145 2.1513 5.10214 2.21505 5.06195 2.24473L4.75139 2.47405L4.86789 2.84211C4.88302 2.88974 4.8287 2.92924 4.78802 2.90011L4.47395 2.67561L4.15989 2.90011C4.11921 2.92924 4.06502 2.88974 4.08002 2.84211L4.19652 2.47405L3.88596 2.24473C3.84577 2.21498 3.86646 2.15123 3.91646 2.15086L4.30252 2.14792L4.42464 1.78167C4.44039 1.73423 4.50745 1.73423 4.52327 1.78167Z" fill="#F5F5F5"/>
<path d="M4.52327 3.69569L4.64539 4.06194L5.03145 4.06488C5.08145 4.06531 5.10214 4.129 5.06195 4.15875L4.75139 4.38812L4.86789 4.75619C4.88302 4.80381 4.8287 4.84331 4.78802 4.81419L4.47395 4.58969L4.15989 4.81419C4.11921 4.84325 4.06502 4.80381 4.08002 4.75619L4.19652 4.38812L3.88596 4.15875C3.84577 4.129 3.86646 4.06531 3.91646 4.06488L4.30252 4.06194L4.42464 3.69569C4.44039 3.64831 4.50745 3.64831 4.52327 3.69569Z" fill="#F5F5F5"/>
<path d="M4.52327 5.6137L4.64539 5.97995L5.03145 5.98289C5.08145 5.98333 5.10214 6.04702 5.06195 6.07677L4.75139 6.30614L4.86789 6.6742C4.88302 6.72183 4.8287 6.76133 4.78802 6.7322L4.47395 6.5077L4.15989 6.7322C4.11921 6.76127 4.06502 6.72189 4.08002 6.6742L4.19652 6.30614L3.88596 6.07677C3.84577 6.04702 3.86646 5.98333 3.91646 5.98289L4.30252 5.97995L4.42464 5.6137C4.44039 5.56627 4.50745 5.56627 4.52327 5.6137Z" fill="#F5F5F5"/>
<path d="M4.52327 7.52777L4.64539 7.89402L5.03145 7.89695C5.08145 7.89739 5.10214 7.96114 5.06195 7.99083L4.75139 8.22021L4.86789 8.58827C4.88302 8.63589 4.8287 8.67539 4.78802 8.64627L4.47395 8.42177L4.15989 8.64627C4.11921 8.67533 4.06502 8.63589 4.08002 8.58827L4.19652 8.22021L3.88596 7.99083C3.84577 7.9612 3.86646 7.89739 3.91646 7.89695L4.30252 7.89402L4.42464 7.52777C4.44039 7.48033 4.50745 7.48033 4.52327 7.52777Z" fill="#F5F5F5"/>
<path d="M4.52327 9.44569L4.64539 9.81194L5.03145 9.81487C5.08145 9.81531 5.10214 9.879 5.06195 9.90875L4.75139 10.1381L4.86789 10.5062C4.88302 10.5538 4.8287 10.5933 4.78802 10.5642L4.47395 10.3397L4.15989 10.5642C4.11921 10.5932 4.06502 10.5538 4.08002 10.5062L4.19652 10.1381L3.88596 9.90875C3.84577 9.879 3.86646 9.81531 3.91646 9.81487L4.30252 9.81194L4.42464 9.44569C4.44039 9.39831 4.50745 9.39831 4.52327 9.44569Z" fill="#F5F5F5"/>
<path d="M6.01057 2.71912L6.1327 3.08537L6.51876 3.08831C6.56876 3.08875 6.58945 3.1525 6.54926 3.18219L6.2387 3.41156L6.3552 3.77962C6.37032 3.82725 6.31601 3.86675 6.27532 3.83762L5.96126 3.61312L5.6472 3.83762C5.60651 3.86669 5.55232 3.82725 5.56732 3.77962L5.68382 3.41156L5.37326 3.18219C5.33307 3.15244 5.35376 3.08875 5.40376 3.08831L5.78982 3.08537L5.91195 2.71912C5.92764 2.67175 5.99476 2.67175 6.01057 2.71912Z" fill="#F5F5F5"/>
<path d="M6.01057 4.63714L6.1327 5.00339L6.51876 5.00633C6.56876 5.00677 6.58945 5.07052 6.54926 5.1002L6.2387 5.32958L6.3552 5.69764C6.37032 5.74527 6.31601 5.78477 6.27532 5.75564L5.96126 5.53114L5.6472 5.75564C5.60651 5.7847 5.55232 5.74533 5.56732 5.69764L5.68382 5.32958L5.37326 5.1002C5.33307 5.07058 5.35376 5.00677 5.40376 5.00633L5.78982 5.00339L5.91195 4.63714C5.92764 4.5897 5.99476 4.5897 6.01057 4.63714Z" fill="#F5F5F5"/>
<path d="M6.01057 6.5512L6.1327 6.91745L6.51876 6.92039C6.56876 6.92083 6.58945 6.98452 6.54926 7.01427L6.2387 7.24364L6.3552 7.61171C6.37032 7.65933 6.31601 7.69883 6.27532 7.66971L5.96126 7.44521L5.6472 7.66971C5.60651 7.69877 5.55232 7.65933 5.56732 7.61171L5.68382 7.24364L5.37326 7.01427C5.33307 6.98452 5.35376 6.92083 5.40376 6.92039L5.78982 6.91745L5.91195 6.5512C5.92764 6.50377 5.99476 6.50377 6.01057 6.5512Z" fill="#F5F5F5"/>
<path d="M6.01057 8.46912L6.1327 8.83537L6.51876 8.83831C6.56876 8.83875 6.58945 8.90244 6.54926 8.93219L6.2387 9.16156L6.3552 9.52962C6.37032 9.57725 6.31601 9.61675 6.27532 9.58762L5.96126 9.36312L5.6472 9.58762C5.60651 9.61675 5.55232 9.57725 5.56732 9.52962L5.68382 9.16156L5.37326 8.93219C5.33307 8.90244 5.35376 8.83875 5.40376 8.83831L5.78982 8.83537L5.91195 8.46912C5.92764 8.42175 5.99476 8.42175 6.01057 8.46912Z" fill="#F5F5F5"/>
<path d="M7.49745 1.78166L7.61957 2.14791L8.00563 2.15085C8.05563 2.15129 8.07632 2.21504 8.03613 2.24473L7.72557 2.47404L7.84207 2.8421C7.8572 2.88973 7.80289 2.92923 7.7622 2.9001L7.44807 2.67566L7.13401 2.90016C7.09333 2.92929 7.03914 2.88979 7.05414 2.84216L7.17064 2.4741L6.86008 2.24479C6.81989 2.21504 6.84058 2.15129 6.89058 2.15091L7.27664 2.14798L7.39876 1.78173C7.41457 1.73423 7.48164 1.73423 7.49745 1.78166Z" fill="#F5F5F5"/>
<path d="M7.49745 3.69569L7.61957 4.06194L8.00563 4.06488C8.05563 4.06531 8.07632 4.129 8.03613 4.15875L7.72557 4.38812L7.84207 4.75619C7.8572 4.80381 7.80289 4.84331 7.7622 4.81419L7.44807 4.58969L7.13401 4.81419C7.09333 4.84325 7.03914 4.80381 7.05414 4.75619L7.17064 4.38812L6.86008 4.15875C6.81989 4.129 6.84058 4.06531 6.89058 4.06488L7.27664 4.06194L7.39876 3.69569C7.41457 3.64831 7.48164 3.64831 7.49745 3.69569Z" fill="#F5F5F5"/>
<path d="M7.49745 5.61371L7.61957 5.97996L8.00563 5.9829C8.05563 5.98334 8.07632 6.04702 8.03613 6.07677L7.72557 6.30615L7.84207 6.67421C7.8572 6.72184 7.80289 6.76134 7.7622 6.73221L7.44807 6.50765L7.13401 6.73215C7.09333 6.76121 7.03914 6.72177 7.05414 6.67415L7.17064 6.30609L6.86008 6.07671C6.81989 6.04696 6.84058 5.98327 6.89058 5.98284L7.27664 5.9799L7.39876 5.61365C7.41457 5.56627 7.48164 5.56627 7.49745 5.61371Z" fill="#F5F5F5"/>
<path d="M7.49745 7.52777L7.61957 7.89402L8.00563 7.89695C8.05563 7.89739 8.07632 7.96114 8.03613 7.99083L7.72557 8.22021L7.84207 8.58827C7.8572 8.63589 7.80289 8.67539 7.7622 8.64627L7.44807 8.42177L7.13401 8.64627C7.09333 8.67533 7.03914 8.63589 7.05414 8.58827L7.17064 8.22021L6.86008 7.99083C6.81989 7.9612 6.84058 7.89739 6.89058 7.89695L7.27664 7.89402L7.39876 7.52777C7.41457 7.48033 7.48164 7.48033 7.49745 7.52777Z" fill="#F5F5F5"/>
<path d="M7.49745 9.44569L7.61957 9.81194L8.00563 9.81487C8.05563 9.81531 8.07632 9.879 8.03613 9.90875L7.72557 10.1381L7.84207 10.5062C7.8572 10.5538 7.80289 10.5933 7.7622 10.5642L7.44807 10.3397L7.13401 10.5642C7.09333 10.5932 7.03914 10.5538 7.05414 10.5062L7.17064 10.1381L6.86008 9.90875C6.81989 9.879 6.84058 9.81531 6.89058 9.81487L7.27664 9.81194L7.39876 9.44569C7.41457 9.39831 7.48164 9.39831 7.49745 9.44569Z" fill="#F5F5F5"/>
<path d="M8.98469 2.71912L9.10681 3.08537L9.49288 3.08831C9.54287 3.08875 9.56356 3.1525 9.52337 3.18219L9.21281 3.41156L9.32931 3.77962C9.34444 3.82725 9.29013 3.86675 9.24944 3.83762L8.93538 3.61312L8.62132 3.83762C8.58063 3.86669 8.52644 3.82725 8.54144 3.77962L8.65794 3.41156L8.34738 3.18219C8.30719 3.15244 8.32788 3.08875 8.37788 3.08831L8.76394 3.08537L8.88607 2.71912C8.90188 2.67175 8.96888 2.67175 8.98469 2.71912Z" fill="#F5F5F5"/>
<path d="M8.98469 4.63714L9.10681 5.00339L9.49288 5.00633C9.54287 5.00677 9.56356 5.07052 9.52337 5.1002L9.21281 5.32958L9.32931 5.69764C9.34444 5.74527 9.29013 5.78477 9.24944 5.75564L8.93538 5.53114L8.62132 5.75564C8.58063 5.7847 8.52644 5.74533 8.54144 5.69764L8.65794 5.32958L8.34738 5.1002C8.30719 5.07058 8.32788 5.00677 8.37788 5.00633L8.76394 5.00339L8.88607 4.63714C8.90188 4.5897 8.96888 4.5897 8.98469 4.63714Z" fill="#F5F5F5"/>
<path d="M8.98469 6.5512L9.10681 6.91745L9.49288 6.92039C9.54287 6.92083 9.56356 6.98452 9.52337 7.01427L9.21281 7.24364L9.32931 7.61171C9.34444 7.65933 9.29013 7.69883 9.24944 7.66971L8.93538 7.44521L8.62132 7.66971C8.58063 7.69877 8.52644 7.65933 8.54144 7.61171L8.65794 7.24364L8.34738 7.01427C8.30719 6.98452 8.32788 6.92083 8.37788 6.92039L8.76394 6.91745L8.88607 6.5512C8.90188 6.50377 8.96888 6.50377 8.98469 6.5512Z" fill="#F5F5F5"/>
<path d="M8.98469 8.46912L9.10681 8.83537L9.49288 8.83831C9.54287 8.83875 9.56356 8.90244 9.52337 8.93219L9.21281 9.16156L9.32931 9.52962C9.34444 9.57725 9.29013 9.61675 9.24944 9.58762L8.93538 9.36312L8.62132 9.58762C8.58063 9.61675 8.52644 9.57725 8.54144 9.52962L8.65794 9.16156L8.34738 8.93219C8.30719 8.90244 8.32788 8.83875 8.37788 8.83831L8.76394 8.83537L8.88607 8.46912C8.90188 8.42175 8.96888 8.42175 8.98469 8.46912Z" fill="#F5F5F5"/>
<path d="M10.4715 1.78167L10.5936 2.14792L10.9797 2.15086C11.0297 2.1513 11.0504 2.21505 11.0102 2.24473L10.6996 2.47405L10.8161 2.84211C10.8313 2.88974 10.7769 2.92924 10.7363 2.90011L10.4222 2.67561L10.1081 2.90011C10.0674 2.92924 10.0133 2.88974 10.0283 2.84211L10.1448 2.47405L9.8342 2.24473C9.79401 2.21498 9.8147 2.15123 9.8647 2.15086L10.2508 2.14792L10.3729 1.78167C10.3886 1.73423 10.4557 1.73423 10.4715 1.78167Z" fill="#F5F5F5"/>
<path d="M10.4715 3.69569L10.5936 4.06194L10.9797 4.06488C11.0297 4.06531 11.0504 4.129 11.0102 4.15875L10.6996 4.38812L10.8161 4.75619C10.8313 4.80381 10.7769 4.84331 10.7363 4.81419L10.4222 4.58969L10.1081 4.81419C10.0674 4.84325 10.0133 4.80381 10.0283 4.75619L10.1448 4.38812L9.8342 4.15875C9.79401 4.129 9.8147 4.06531 9.8647 4.06488L10.2508 4.06194L10.3729 3.69569C10.3886 3.64831 10.4557 3.64831 10.4715 3.69569Z" fill="#F5F5F5"/>
<path d="M10.4715 5.6137L10.5936 5.97995L10.9797 5.98289C11.0297 5.98333 11.0504 6.04702 11.0102 6.07677L10.6996 6.30614L10.8161 6.6742C10.8313 6.72183 10.7769 6.76133 10.7363 6.7322L10.4222 6.5077L10.1081 6.7322C10.0674 6.76127 10.0133 6.72189 10.0283 6.6742L10.1448 6.30614L9.8342 6.07677C9.79401 6.04702 9.8147 5.98333 9.8647 5.98289L10.2508 5.97995L10.3729 5.6137C10.3886 5.56627 10.4557 5.56627 10.4715 5.6137Z" fill="#F5F5F5"/>
<path d="M10.4715 7.52777L10.5936 7.89402L10.9797 7.89695C11.0297 7.89739 11.0504 7.96114 11.0102 7.99083L10.6996 8.22021L10.8161 8.58827C10.8313 8.63589 10.7769 8.67539 10.7363 8.64627L10.4222 8.42177L10.1081 8.64627C10.0674 8.67533 10.0133 8.63589 10.0283 8.58827L10.1448 8.22021L9.8342 7.99083C9.79401 7.9612 9.8147 7.89739 9.8647 7.89695L10.2508 7.89402L10.3729 7.52777C10.3886 7.48033 10.4557 7.48033 10.4715 7.52777Z" fill="#F5F5F5"/>
<path d="M10.4715 9.44569L10.5936 9.81194L10.9797 9.81487C11.0297 9.81531 11.0504 9.879 11.0102 9.90875L10.6996 10.1381L10.8161 10.5062C10.8313 10.5538 10.7769 10.5933 10.7363 10.5642L10.4222 10.3397L10.1081 10.5642C10.0674 10.5932 10.0133 10.5538 10.0283 10.5062L10.1448 10.1381L9.8342 9.90875C9.79401 9.879 9.8147 9.81531 9.8647 9.81487L10.2508 9.81194L10.3729 9.44569C10.3886 9.39831 10.4557 9.39831 10.4715 9.44569Z" fill="#F5F5F5"/>
<path d="M11.9588 2.71912L12.0809 3.08537L12.467 3.08831C12.517 3.08875 12.5377 3.1525 12.4975 3.18219L12.1869 3.41156L12.3034 3.77962C12.3186 3.82725 12.2643 3.86675 12.2236 3.83762L11.9095 3.61312L11.5954 3.83762C11.5548 3.86669 11.5006 3.82725 11.5156 3.77962L11.6321 3.41156L11.3215 3.18219C11.2813 3.15244 11.302 3.08875 11.352 3.08831L11.7381 3.08537L11.8602 2.71912C11.8759 2.67175 11.943 2.67175 11.9588 2.71912Z" fill="#F5F5F5"/>
<path d="M11.9588 4.63714L12.0809 5.00339L12.467 5.00633C12.517 5.00677 12.5377 5.07052 12.4975 5.1002L12.1869 5.32958L12.3034 5.69764C12.3186 5.74527 12.2643 5.78477 12.2236 5.75564L11.9095 5.53114L11.5954 5.75564C11.5548 5.7847 11.5006 5.74533 11.5156 5.69764L11.6321 5.32958L11.3215 5.1002C11.2813 5.07058 11.302 5.00677 11.352 5.00633L11.7381 5.00339L11.8602 4.63714C11.8759 4.5897 11.943 4.5897 11.9588 4.63714Z" fill="#F5F5F5"/>
<path d="M11.9588 6.5512L12.0809 6.91745L12.467 6.92039C12.517 6.92083 12.5377 6.98452 12.4975 7.01427L12.1869 7.24364L12.3034 7.61171C12.3186 7.65933 12.2643 7.69883 12.2236 7.66971L11.9095 7.44521L11.5954 7.66971C11.5548 7.69877 11.5006 7.65933 11.5156 7.61171L11.6321 7.24364L11.3215 7.01427C11.2813 6.98452 11.302 6.92083 11.352 6.92039L11.7381 6.91745L11.8602 6.5512C11.8759 6.50377 11.943 6.50377 11.9588 6.5512Z" fill="#F5F5F5"/>
<path d="M11.9588 8.46912L12.0809 8.83537L12.467 8.83831C12.517 8.83875 12.5377 8.90244 12.4975 8.93219L12.1869 9.16156L12.3034 9.52962C12.3186 9.57725 12.2643 9.61675 12.2236 9.58762L11.9095 9.36312L11.5954 9.58762C11.5548 9.61675 11.5006 9.57725 11.5156 9.52962L11.6321 9.16156L11.3215 8.93219C11.2813 8.90244 11.302 8.83875 11.352 8.83831L11.7381 8.83537L11.8602 8.46912C11.8759 8.42175 11.943 8.42175 11.9588 8.46912Z" fill="#F5F5F5"/>
<path d="M13.4456 1.78167L13.5678 2.14792L13.9538 2.15086C14.0038 2.1513 14.0245 2.21505 13.9843 2.24473L13.6738 2.47405L13.7903 2.84211C13.8054 2.88974 13.7511 2.92924 13.7104 2.90011L13.3963 2.67561L13.0823 2.90011C13.0416 2.92924 12.9874 2.88974 13.0024 2.84211L13.1189 2.47405L12.8083 2.24473C12.7681 2.21498 12.7888 2.15123 12.8388 2.15086L13.2249 2.14792L13.347 1.78167C13.3628 1.73423 13.4298 1.73423 13.4456 1.78167Z" fill="#F5F5F5"/>
<path d="M13.4456 3.69569L13.5678 4.06194L13.9538 4.06488C14.0038 4.06531 14.0245 4.129 13.9843 4.15875L13.6738 4.38812L13.7903 4.75619C13.8054 4.80381 13.7511 4.84331 13.7104 4.81419L13.3963 4.58969L13.0823 4.81419C13.0416 4.84325 12.9874 4.80381 13.0024 4.75619L13.1189 4.38812L12.8083 4.15875C12.7681 4.129 12.7888 4.06531 12.8388 4.06488L13.2249 4.06194L13.347 3.69569C13.3628 3.64831 13.4298 3.64831 13.4456 3.69569Z" fill="#F5F5F5"/>
<path d="M13.4456 5.6137L13.5678 5.97995L13.9538 5.98289C14.0038 5.98333 14.0245 6.04702 13.9843 6.07677L13.6738 6.30614L13.7903 6.6742C13.8054 6.72183 13.7511 6.76133 13.7104 6.7322L13.3963 6.5077L13.0823 6.7322C13.0416 6.76127 12.9874 6.72189 13.0024 6.6742L13.1189 6.30614L12.8083 6.07677C12.7681 6.04702 12.7888 5.98333 12.8388 5.98289L13.2249 5.97995L13.347 5.6137C13.3628 5.56627 13.4298 5.56627 13.4456 5.6137Z" fill="#F5F5F5"/>
<path d="M13.4456 7.52777L13.5678 7.89402L13.9538 7.89695C14.0038 7.89739 14.0245 7.96114 13.9843 7.99083L13.6738 8.22021L13.7903 8.58827C13.8054 8.63589 13.7511 8.67539 13.7104 8.64627L13.3963 8.42177L13.0823 8.64627C13.0416 8.67533 12.9874 8.63589 13.0024 8.58827L13.1189 8.22021L12.8083 7.99083C12.7681 7.9612 12.7888 7.89739 12.8388 7.89695L13.2249 7.89402L13.347 7.52777C13.3628 7.48033 13.4298 7.48033 13.4456 7.52777Z" fill="#F5F5F5"/>
<path d="M13.4456 9.44569L13.5678 9.81194L13.9538 9.81487C14.0038 9.81531 14.0245 9.879 13.9843 9.90875L13.6738 10.1381L13.7903 10.5062C13.8054 10.5538 13.7511 10.5933 13.7104 10.5642L13.3963 10.3397L13.0823 10.5642C13.0416 10.5932 12.9874 10.5538 13.0024 10.5062L13.1189 10.1381L12.8083 9.90875C12.7681 9.879 12.7888 9.81531 12.8388 9.81487L13.2249 9.81194L13.347 9.44569C13.3628 9.39831 13.4298 9.39831 13.4456 9.44569Z" fill="#F5F5F5"/>
</svg>
