<?xml version="1.0" encoding="utf-8"?>
<!-- Generator: Adobe Illustrator 12.0.1, SVG Export Plug-In . SVG Version: 6.00 Build 51448)  -->
<!DOCTYPE svg PUBLIC "-//W3C//DTD SVG 1.1//EN" "http://www.w3.org/Graphics/SVG/1.1/DTD/svg11.dtd" [
	<!ENTITY ns_svg "http://www.w3.org/2000/svg">
	<!ENTITY ns_xlink "http://www.w3.org/1999/xlink">
]>
<svg  version="1.1" id="Layer_1" xmlns="&ns_svg;" xmlns:xlink="&ns_xlink;" width="276.453" height="287.744"
	 viewBox="0 0 276.453 287.744" overflow="visible" enable-background="new 0 0 276.453 287.744" xml:space="preserve">
<g>
	<path fill-rule="evenodd" clip-rule="evenodd" fill="#FFE292" d="M194.851,19.68c4.271,12.916-14.69,16.411-13.44,30.72
		c0.36,4.122,2.848,8.199,3.36,12.48c1.183,9.878-2.759,15.626-10.08,21.6c-1.17-0.75-2.848-0.992-3.84-1.92
		c1.866-4.433,4.487-6.553,5.76-10.56c2.656-8.361-2.226-17.763,0-26.88C179.349,33.906,192.809,31.564,194.851,19.68z"/>
	<path fill-rule="evenodd" clip-rule="evenodd" fill="#FFE292" d="M191.971,21.6c-3.196,9.99-12.979,8.94-17.76,20.16
		c-3.265,7.66,1.174,17.957-0.48,26.4c-1.243,6.342-7.374,15.72-14.88,9.12c1.147-3.972,5.667-4.573,8.16-7.2
		c0.972-4.25,2.828-6.572,2.399-11.52c-0.453-5.235-2.836-8.731-2.399-12.96c0.802-7.771,7.909-13.847,12.96-16.8
		c3.809-2.227,8.972-2.711,10.56-7.2C191.011,21.6,191.491,21.6,191.971,21.6z"/>
	<path fill-rule="evenodd" clip-rule="evenodd" fill="#FFE292" d="M135.811,22.08c0.558-0.078,0.854,0.106,0.96,0.48
		c0.027,16.157-0.088,35.565-0.48,51.84c-2.443,0.718-7.191,0.734-9.12,0.48C130.7,58.549,132.236,37.864,135.811,22.08z"/>
	<path fill-rule="evenodd" clip-rule="evenodd" fill="#FFE292" d="M140.131,33.12c4.689,12.912,7.969,27.23,11.041,41.76
		c-2.708,1.127-7.199,0.261-9.601-0.48C139.559,63.045,139.94,47.24,140.131,33.12z"/>
	<path fill-rule="evenodd" clip-rule="evenodd" fill="#FFE292" d="M215.971,63.36c1.113,1.891-0.987,1.293-1.92,2.4
		c-1.148,1.361-1.573,3.823-2.881,5.28c-0.667,0.744-2.265,0.955-3.359,1.92c-1.405,1.239-1.794,3.555-3.36,5.28
		c-2.318,2.553-6.528,5.169-9.6,8.16c-5.729,5.577-8.874,10.598-14.4,2.4C191.675,79.704,204.802,72.511,215.971,63.36z"/>
	<path fill-rule="evenodd" clip-rule="evenodd" fill="#FFE292" d="M213.091,72c0.816-0.177,0.905,0.374,0.96,0.96
		c-5.384,11.256-12.465,20.815-18.721,31.2c-2.504-1.176-3.631-3.729-4.8-6.24C197.374,88.602,205.973,81.042,213.091,72z"/>
	<path fill-rule="evenodd" clip-rule="evenodd" d="M159.811,91.68c-9.291-2.715-20.158-2.239-31.68-3.84
		c0.841-2.089,3.831-1.83,5.76-1.92C142.601,85.514,155.854,87.07,159.811,91.68z"/>
	<path fill-rule="evenodd" clip-rule="evenodd" fill="#FFE292" d="M266.851,89.76c-1.304,7.275-9,10.926-16.8,11.52
		c-4.17,0.318-6.76-0.881-10.08,0.48c-7.781,3.19-8.372,13.074-13.92,19.2c-5.125,5.658-10.957,6.592-19.681,8.64
		c-1.135-1.756-2.802-4.411-1.92-6.72c3.114-1.414,4.619-0.222,7.681-0.96c10.756-2.594,12.682-15.703,21.119-21.12
		c5.484-3.156,15.917-1.364,22.08-3.84c-0.437-3.023-3.692-1.027-5.76-0.96c-3.547,0.115-7.548-0.494-10.56,0
		c-10.333,1.692-16.621,10.498-20.16,18.24c-4.387,3.225-10.106,3.92-16.8,3.84c-1.706-2.533-2.647-3.25-2.4-7.2
		c5.283-1.079,11.127,1.879,15.36-1.44c7.224-9.095,13.47-16.8,27.359-17.76c7.496-0.518,18.562,3.384,23.521-1.92
		c0.408-0.088,0.452,0.187,0.479,0.48C266.779,90.328,266.824,90.053,266.851,89.76z M256.771,96c1.732,0.563,3.772,0.856,4.32-1.44
		C259.731,93.55,257.009,94.387,256.771,96z"/>
	<path fill-rule="evenodd" clip-rule="evenodd" d="M109.411,92.64c-2.054,3.386-5.166,5.714-9.6,6.72
		C101.637,95.746,104.717,93.386,109.411,92.64z"/>
	<path fill-rule="evenodd" clip-rule="evenodd" d="M261.091,94.56c-0.548,2.296-2.588,2.003-4.32,1.44
		C257.009,94.387,259.731,93.55,261.091,94.56z"/>
	<path fill-rule="evenodd" clip-rule="evenodd" d="M175.651,104.16c-2.916-0.764-5.031-2.328-5.76-5.28
		C172.945,97.706,174.188,102.175,175.651,104.16z"/>
	<path fill-rule="evenodd" clip-rule="evenodd" fill="#FFE292" d="M28.771,99.36c6.665,3.268,10.766,6.728,18.72,5.28
		c5.404-0.983,9.641-3.884,15.36-3.36c5.271,0.483,7.836,3.732,12.96,4.8c1.349,3.313,1.904,6.974-0.96,9.12
		c-5.792-4.62-14.001-7.688-24.48-6.24c-0.918,0.202-2.066,0.174-1.92,1.44C38.637,109.974,31.394,106.978,28.771,99.36z"/>
	<path fill-rule="evenodd" clip-rule="evenodd" d="M178.531,99.36c3.333,0.423,6.229,3.587,5.76,6.24
		C181.997,103.894,179.947,101.944,178.531,99.36z"/>
	<path fill-rule="evenodd" clip-rule="evenodd" d="M90.211,105.6c-0.494,1.906-1.213,3.587-3.84,3.36
		C86.962,107.292,88.256,104.371,90.211,105.6z"/>
	<path fill-rule="evenodd" clip-rule="evenodd" fill="#FFE292" d="M166.531,112.8c-0.526,2.134,1.16,3.499,0,4.8
		C162.921,117.378,161.15,110.544,166.531,112.8z"/>
	<path fill-rule="evenodd" clip-rule="evenodd" fill="#FFE292" d="M171.811,112.8c2.34,0.379,2.897,2.542,4.8,3.36
		c1.507,0.227,1.269-1.292,2.4-1.44c2.966,0.554,2.769,4.271,4.8,5.76c2.827,0.368,0.787-3.064,2.4-2.88
		c-1.102,4.757,6.034,4.739,5.279,9.6c-0.559,3.595-6.094,4.062-9.12,1.92c-0.945-0.669-1.41-2.965-2.399-4.32
		c-2.771-3.793-6.393-7.067-10.08-7.2C169.929,115.397,171.997,115.226,171.811,112.8z"/>
	<path fill-rule="evenodd" clip-rule="evenodd" fill="#FFE292" d="M120.451,118.56c0.861-0.061,1.012,0.588,1.92,0.48
		c0.145,1.265-0.665,1.576-1.92,1.44C120.451,119.84,120.451,119.2,120.451,118.56z"/>
	<path fill-rule="evenodd" clip-rule="evenodd" fill="#FFE292" d="M167.971,122.88c-1.973,0.587-4.306,0.815-5.76,1.92
		C161.215,123.582,167.85,120,167.971,122.88z"/>
	<path fill-rule="evenodd" clip-rule="evenodd" fill="#FFE292" d="M124.771,121.92c1.636,1.207-1.652,1.51-1.92,2.4
		C121.392,123.29,124.542,122.849,124.771,121.92z"/>
	<path fill-rule="evenodd" clip-rule="evenodd" fill="#FFE292" d="M149.731,125.28c-1.248-0.192-1.447-1.433-2.88-1.44
		C147.239,122.052,149.781,123.747,149.731,125.28z"/>
	<path fill-rule="evenodd" clip-rule="evenodd" fill="#FFE292" d="M169.891,126.24c-1.828,0.765-3.867,1.172-3.36,5.28
		c2.954,3.12,7.312-0.046,6.72-2.88c4.848,7.392-13.588,7.949-9.119-0.96C165.63,126.921,167.903,124.978,169.891,126.24z"/>
	<path fill-rule="evenodd" clip-rule="evenodd" fill="#FFE292" d="M119.491,130.08c0.514,1.793-1.191,1.368-0.96,2.88
		c-0.562-0.078-0.405-0.875-0.48-1.44c-1.848,0.265,0.37,1.855-0.96,2.88c-1.393-0.627-2.761-0.39-3.36,0.96
		c-1.667-1.466-5.677-0.291-5.28-4.8c1.248-0.192,1.447-1.432,2.88-1.44c-0.348,1.468,0.828,1.412,0.48,2.88
		C115.792,136.901,116.575,124.558,119.491,130.08z"/>
	<path fill-rule="evenodd" clip-rule="evenodd" fill="#FFE292" d="M159.811,130.56c-0.24,1.51,1.046,1.876,0,2.88
		c-1.366-0.394-2.437-1.083-2.88-2.4C157.499,130.487,158.627,130.497,159.811,130.56z"/>
	<path fill-rule="evenodd" clip-rule="evenodd" fill="#FFE292" d="M69.091,132.96c-0.098,4.222,0.517,9.156-1.44,11.52
		c-12.971,2.437-30.481,1.89-46.08,2.4c2.279-3.696,6.257-2.542,9.6-3.36C43.464,140.513,55.079,134.299,69.091,132.96z"/>
	<path fill-rule="evenodd" clip-rule="evenodd" fill="#FFE292" d="M250.051,144c-11.802,2.431-30.598,0.832-42.721,0
		c-0.325-2.969-1.639-7.191-0.479-10.08C221.758,137.289,235.262,140.163,250.051,144z"/>
	<path fill-rule="evenodd" clip-rule="evenodd" d="M182.371,170.4c-1.77,1.271-2.969,3.111-5.76,3.359
		c0.047-2.993,1.828-4.251,3.84-5.279c1.86-2.301,1.97-6.351,5.28-7.2c0.129,3.809-1.756,5.604-2.88,8.16
		c6.089-3.19,8.345-10.216,10.08-17.76c2.133,3.729-0.994,10.091-2.4,13.439c6.352-6.534,5.747-19.655,7.2-28.8
		c3.622,13.11-1.501,31.607-10.56,36.479c-0.348-1.466,0.49-1.749,0.479-2.88c-1.89-0.913-1.921,4.147-5.28,3.36
		C181.714,172.666,181.714,171.013,182.371,170.4z"/>
	<path fill-rule="evenodd" clip-rule="evenodd" fill="#FFE292" d="M127.651,142.56c0.642,3.984-4.218,10.487-2.4,16.32
		c-3.579-0.101-4.768-2.592-4.32-6.72C124.327,150.116,126.138,146.487,127.651,142.56z"/>
	<path fill-rule="evenodd" clip-rule="evenodd" fill="#FFE292" d="M68.131,149.28c0.576,2.719,2.132,6.698,0.96,9.6
		c-16.403-1.393-31.158-6.328-45.12-8.64C37.595,147.504,54.917,149.062,68.131,149.28z"/>
	<path fill-rule="evenodd" clip-rule="evenodd" fill="#FFE292" d="M150.211,149.28c2.072-0.027,8.59,5.597,3.84,8.16
		C148.945,157.677,152.965,150.546,150.211,149.28z"/>
	<path fill-rule="evenodd" clip-rule="evenodd" d="M89.251,164.16c0.48,0,0.96,0,1.44,0c0.746,6.135,6.398,7.361,7.68,12.96
		C93.96,176.056,90.312,170.164,89.251,164.16z"/>
	<path fill-rule="evenodd" clip-rule="evenodd" d="M177.571,166.08c-1.298,3.022-2.221,6.419-5.76,7.2
		C170.976,170.148,175.145,165.894,177.571,166.08z"/>
	<path fill-rule="evenodd" clip-rule="evenodd" d="M166.531,181.44c-3.689-2.092-7.126-1.591-11.04,0.479
		c3.175,12.15-16.114,16.411-23.52,10.08c-2.774-2.371-3.92-7.354-7.2-9.6c-3.084-2.112-6.571-2.49-11.04-2.4
		c-2.347,0.053-1.513,3.287-3.36,3.84c-4.643-1.39-1.9-10.739,1.44-11.52c2.715,0.701,3.826,3.125,9.12,2.4
		c3.811-0.522,7.142-4.164,11.04-4.32c2.57-0.104,5.251,2.021,7.68,1.92c1.714-0.071,2.862-1.628,4.8-1.92
		c3.354-0.506,9.811,3.399,13.92,2.88c2.076-0.263,4.186-2.146,5.28-1.92C167.438,172.143,167.588,178.379,166.531,181.44z
		 M138.211,179.04c3.452,0.956,7.146-1.31,8.64-3.84C142.968,173.654,140.348,177.266,138.211,179.04z M127.171,177.6
		c3.462-0.849,6.314-0.552,9.12,0.96C136.259,174.285,128.265,174.181,127.171,177.6z M136.771,183.839
		c-2.086-0.079-3.636-2.018-5.76-0.479c1.977,7.155,10.574,6.604,18.239,4.8c0.699-1.56,2.415-4.06,1.44-5.76
		C147.471,180.123,142.357,184.052,136.771,183.839z"/>
	<path fill-rule="evenodd" clip-rule="evenodd" d="M99.331,170.879c1.887,1.153,3.88,2.2,4.32,4.801
		C101.089,177.199,98.049,173.205,99.331,170.879z"/>
	<path fill-rule="evenodd" clip-rule="evenodd" fill="#FFE292" d="M146.851,175.2c-1.494,2.53-5.188,4.796-8.64,3.84
		C140.348,177.266,142.968,173.654,146.851,175.2z"/>
	<path fill-rule="evenodd" clip-rule="evenodd" fill="#FFE292" d="M136.291,178.56c-2.806-1.512-5.658-1.809-9.12-0.96
		C128.265,174.181,136.259,174.285,136.291,178.56z"/>
	<path fill-rule="evenodd" clip-rule="evenodd" fill="#FFE292" d="M255.331,204c-7.669-1.931-9.291-9.909-14.88-13.92
		c-8.667-4.795-18.129,4.666-27.359,3.84c-7.55-0.676-20.861-8.579-13.921-17.279c5.855,2.784,10.047,7.233,16.801,9.119
		c6.146-0.396,11.467-2.236,16.8-1.92C245.258,184.583,249.827,195.5,255.331,204z"/>
	<path fill-rule="evenodd" clip-rule="evenodd" fill="#FFE292" d="M77.251,180.48c1.567,0.976,8.218,7.132,8.16,10.08
		c-0.054,2.754-4.06,4.951-7.2,8.64c-2.944,3.458-4.052,7.686-6.24,9.6c-2.876,2.518-7.472,7.402-10.08,10.561
		c-2.107,2.551-4.212,5.724-7.2,7.68C59.863,211.091,70.778,196.727,77.251,180.48z"/>
	<path fill-rule="evenodd" clip-rule="evenodd" fill="#FFE292" d="M150.691,182.4c0.975,1.7-0.741,4.2-1.44,5.76
		c-7.665,1.805-16.263,2.355-18.239-4.8c2.124-1.538,3.674,0.4,5.76,0.479C142.357,184.052,147.471,180.123,150.691,182.4z"/>
	<path fill-rule="evenodd" clip-rule="evenodd" d="M88.771,181.919c3.984,2.097,5.344,6.816,8.64,9.601
		c2.803,0.717,5.365,1.675,6.24,4.319c-2.992,1.56-4.596-2.012-7.2-2.399C94.424,189.354,88.987,186.228,88.771,181.919z"/>
	<path fill-rule="evenodd" clip-rule="evenodd" d="M180.931,182.4c-3.577,5.27-8.372,11.725-15.84,11.52
		C169.304,189.013,175.583,186.172,180.931,182.4z"/>
	<path fill-rule="evenodd" clip-rule="evenodd" fill="#FFE292" d="M219.811,224.64c-3.513-1.737-7.674-4.554-10.561-7.681
		c-2.858-3.098-4.197-6.441-7.68-9.6c-4.504-4.085-9.721-8.666-13.92-13.44c1.55-2.77,2.855-5.784,5.76-7.199
		C203.196,198.375,211.302,211.708,219.811,224.64z"/>
	<path fill-rule="evenodd" clip-rule="evenodd" d="M180.451,188.16c-3.29,7.749-11.95,10.13-18.239,14.88
		c-6.175,0.731-11.871,4.414-18.24,3.36c0.304-1.776,2.695-1.465,4.8-1.44c3.016-1.156,6.285-3.485,10.08-2.399
		C165.254,196.963,173.684,193.393,180.451,188.16z"/>
	<path fill-rule="evenodd" clip-rule="evenodd" fill="#FFE292" d="M81.091,213.12c-7.824,3.216-12.647,9.433-20.64,12.48
		c8.867-11.133,18.637-21.363,28.8-31.2c2.456,2.206,7.194,3.203,6.72,6.72C95.471,204.828,81.763,208.813,81.091,213.12z"/>
	<path fill-rule="evenodd" clip-rule="evenodd" d="M110.371,195.36c1.136,0.464,2.358,0.842,1.92,2.88
		C109.919,199.004,109.288,196.584,110.371,195.36z"/>
	<path fill-rule="evenodd" clip-rule="evenodd" d="M113.251,202.56c-3.841-0.159-5.661-2.34-7.68-4.32
		C108.34,195.878,112.613,199.659,113.251,202.56z"/>
	<path fill-rule="evenodd" clip-rule="evenodd" fill="#FFE292" d="M217.411,228c-14.958-6.801-26.58-16.939-39.84-25.439
		c5.936-13.256,19.088,5.247,24.48,10.08C208.703,218.6,214.157,222.664,217.411,228z"/>
	<path fill-rule="evenodd" clip-rule="evenodd" fill="#FFE292" d="M260.131,202.56c2.263-0.023,3.637,0.843,5.76,0.96
		c-0.435,3.05-4.477,2.382-7.2,1.92C258.402,203.71,260.156,204.025,260.131,202.56z"/>
	<path fill-rule="evenodd" clip-rule="evenodd" fill="#FFE292" d="M171.811,206.4c2.178,4.05-0.66,8.374,0,12.479
		c0.931,5.791,5.948,9.148,10.08,11.521c2.554,3.986,5.42,6.734,6.72,11.52c1.662,6.121-0.142,11.962-0.479,18.721
		c-0.337,6.726,3.326,11.383,3.359,16.319c-2.9-1.099-5.501-2.499-7.2-4.8c-0.044-2.123,2.405,0.597,2.881-1.44
		c-0.471-2.984-3.071-5.562-3.36-9.119c-0.349-4.287,1.712-8.802,1.439-12.96c-0.58-8.856-4.386-14.685-12.96-17.761
		c-4.563-5.42-9.915-13.629-6.239-23.04C168.036,207.31,169.569,205.256,171.811,206.4z"/>
	<path fill-rule="evenodd" clip-rule="evenodd" fill="#FFE292" d="M159.811,210.72c1.551,6.771,3.084,14.724,7.68,19.68
		c3.538,1.422,5.962,3.958,9.601,5.279c2.809,5.276,6.547,10.034,6.239,17.28c-0.211,4.995-4.231,10.438-0.96,15.36
		c-6.094-2.748-2.559-11.286-3.359-17.76c-0.551-4.449-2.897-10.018-6.721-12c-1.569-0.814-3.836-0.457-5.279-0.96
		c-9.169-3.196-14.638-12.16-12.96-24.48C155.473,211.822,157.495,211.123,159.811,210.72z"/>
	<path fill-rule="evenodd" clip-rule="evenodd" fill="#FFE292" d="M133.891,214.56c2.778,13.314,1.262,31.792,3.36,46.56
		c-5.826-13.374-7.763-33.196-11.04-47.52C128.299,212.654,131.435,214.323,133.891,214.56z"/>
	<path fill-rule="evenodd" clip-rule="evenodd" fill="#FFE292" d="M149.25,213.6c1.102,2.776-0.29,6.147-1.439,8.159
		c-0.393,8.088-1.793,15.168-4.8,20.641c-0.977,5.743-0.791,12.648-3.84,16.319c-0.008-14.774-0.268-29.445,0-43.68
		C141.664,213.693,145.569,213.757,149.25,213.6z"/>
	<path fill-rule="evenodd" clip-rule="evenodd" d="M86.851,269.28c1.266-0.146,1.238,1.002,1.44,1.92
		C86.689,271.682,86.717,270.534,86.851,269.28z"/>
	<path fill-rule="evenodd" clip-rule="evenodd" fill="#FFE292" d="M89.251,21.12c-2.685,2.731,0.288,7.074,0,12
		c-0.22,3.772-1.624,7.08-1.44,10.08c0.406,6.637,3.907,14.545,8.16,17.28c1.27,0.816,3.253,0.499,4.32,0.96
		c6.641,2.869,10.116,9.727,11.04,17.28c-2.139,1.701-3.413,4.267-7.68,3.84c-0.252-19.044-20.344-17.647-19.68-36.96
		c0.193-5.633,2.598-10.047,2.88-15.36c0.304-5.747-2.522-10.998-4.32-14.88c5.297,1.067,9.44,6.417,11.04,11.52
		c1.779,5.676,0.227,12.446,1.92,18.24c2.727,9.331,15.928,9.195,22.08,16.8c3.224,3.985,4.511,8.007,3.84,14.4
		c-1.458,0.782-3.071,1.409-5.28,1.44c-1.772-6.615-3.675-12.468-9.12-16.32c-9.389-2.507-16.008-8.343-16.8-18.72
		c-0.468-6.129,2.581-13.012,0-19.68c0.135-0.775-0.454-0.827-0.48-1.44C89.819,21.192,89.544,21.147,89.251,21.12z"/>
	<path fill-rule="evenodd" clip-rule="evenodd" fill="#FFE292" d="M56.611,63.36c9.438,4.002,15.436,11.445,25.92,14.4
		c1.459,4.568,13.312,5.981,13.44,10.56c0.084,3.036-4.319,3.787-6.72,5.76c-2.765,0.193-3.907-3.757-5.76-2.88
		C76.898,81.456,63.69,74.213,56.611,63.36z"/>
	<path fill-rule="evenodd" clip-rule="evenodd" fill="#FFE292" d="M52.291,65.76c12.342,8.346,23.427,21.445,32.64,32.16
		c-0.987,3.013-2.296,5.704-5.28,6.72C69.137,93.074,62.05,78.081,52.291,65.76z"/>
	<path fill-rule="evenodd" clip-rule="evenodd" fill="#FFE292" d="M70.531,124.8c-5.147-0.716-5.771-6.389-12-7.2
		c-3.243-0.422-6.305,0.634-9.6,0.48c-10.275-0.478-17.169-4.238-23.04-11.04c-0.831-4.449-3.64-6.92-4.8-11.04
		c-2.485-3.115-5.896-5.305-10.08-6.72c4.099-4.948,11.603,0.87,13.92,3.84c-2.719,9.451,8.36,17.604,13.92,18.72
		c7.158,2.117,18.178-2.088,27.84,1.44c1.017,2.823,4.124,3.557,5.76,5.76C73.439,121.649,72.012,123.374,70.531,124.8z"/>
	<path fill-rule="evenodd" clip-rule="evenodd" fill="#FFE292" d="M104.611,132.96c-2.972-0.697-0.279-4.789-0.48-5.76
		C112.085,125.163,104.116,128.105,104.611,132.96z"/>
	<path fill-rule="evenodd" clip-rule="evenodd" fill="#FFE292" d="M132.451,209.759c-0.448-2.271-1.235-4.204-3.84-4.319
		c0.131-0.989,2.125-0.114,1.92-1.44c-3.615-2.464-10.12-2.04-13.44-4.8c-0.786,3.513,6.638,2.957,8.64,5.28
		c-1.68,1.412-4.47,0.905-6.24,0c-1.512-0.232-0.359,2.2-1.44,2.399c-18.273-5.406-29.438-17.921-38.88-32.159
		c-5.176-14.334-8.034-25.439-6.24-40.32c1.29-10.7,7.276-20.564,12.48-28.8c8.071-12.774,25.868-23.792,44.64-26.4
		c3.492-0.485,7.432,0.489,10.08-1.44c2.935,2.663,6.398,1.453,9.6,1.92c30.719,4.482,52.329,33.527,53.76,65.28
		c-1.951,6.079-0.902,12.099-2.88,17.76c-0.622,1.781-1.191,2.441-1.92,5.76c-0.876,3.991-5.415,11.752-8.16,15.359
		c-3.468,4.557-9.906,9.619-14.88,13.44C165.718,204.911,152.108,210.941,132.451,209.759z M182.371,173.28
		c3.359,0.787,3.391-4.273,5.28-3.36c0.011,1.131-0.827,1.414-0.479,2.88c9.059-4.872,14.182-23.369,10.56-36.479
		c-1.453,9.145-0.849,22.266-7.2,28.8c1.406-3.349,4.533-9.71,2.4-13.439c-1.735,7.544-3.991,14.569-10.08,17.76
		c1.124-2.557,3.009-4.352,2.88-8.16c-3.311,0.85-3.42,4.899-5.28,7.2c-2.012,1.028-3.793,2.286-3.84,5.279
		c2.791-0.248,3.99-2.089,5.76-3.359C181.714,171.013,181.714,172.666,182.371,173.28z M170.851,90.24
		c-1.127-0.153-1.802-0.758-3.36-0.48c0.953-1.107-0.12-0.533-0.479-1.44c-10.533-5.119-25.119-8.069-39.36-6.72
		c-7.529,0.714-13.629,3.661-19.68,5.76c-0.712,0.568-0.747,1.813-1.44,2.4c0.18-1.312-4.359,0.246-3.84,2.4
		c12.118-5.145,29.687-11.581,47.521-7.68c1.982,0.434,4.397,2.12,6.72,2.88c2.59,0.848,5.508,1.029,7.68,1.92
		c3.49,1.431,6.105,4.979,9.601,4.8C174.062,91.829,171.353,92.138,170.851,90.24z M133.891,85.92c-1.93,0.09-4.919-0.169-5.76,1.92
		c11.522,1.601,22.389,1.125,31.68,3.84C155.854,87.07,142.601,85.514,133.891,85.92z M99.811,99.36
		c4.434-1.006,7.546-3.334,9.6-6.72C104.717,93.386,101.637,95.746,99.811,99.36z M169.891,98.88c0.729,2.952,2.844,4.516,5.76,5.28
		C174.188,102.175,172.945,97.706,169.891,98.88z M184.291,105.6c0.47-2.653-2.427-5.816-5.76-6.24
		C179.947,101.944,181.997,103.894,184.291,105.6z M86.371,108.96c2.627,0.227,3.346-1.454,3.84-3.36
		C88.256,104.371,86.962,107.292,86.371,108.96z M117.091,108.96c-1.515-0.235-1.695,0.865-3.36,0.48
		c-1.045-1.035-2.227-1.934-3.84-2.4c-10.32,2.939-23.305,3.467-24,14.88c2.559-0.708,6.253-4.258,8.16-7.2
		c2.672,1.84,3.381-0.185,5.28-1.44c4.267,2.84,4.989-3.638,9.6-1.44c-0.047,1.553-2.176,1.024-1.44,3.36
		c3.359-0.996,4.137-0.617,6.24,0.96c1.583-0.945,4.748-2.399,5.76,0c-0.663,1.097-0.525,2.995-2.4,2.88
		c-0.971,0.376-3.667-0.934-4.8-1.92c-7.637,1.23-17.059,3.785-19.2,12c-1.509,0.571-2.54,1.621-4.32,1.92
		c-0.356-3.644-2.674-5.325-6.24-5.76c-2.895,4.223,1.106,9.299,4.32,10.56c2.8,1.098,6.279-0.532,10.56,0
		c2.31,0.287,4.451,2.395,6.72,2.88c9.424,2.015,18.173-4.375,23.04-5.76c0.274,2.926,1.952,4.448,1.44,8.16
		c-1.092-0.233-2.452-0.952-3.36,0c-0.107,5.907-9.227,8.464-8.16,15.84c0.594,4.106,5.543,8.649,12,5.761
		c6.595,5.364,15.359,2.557,20.16-2.4c5.641,4.415,11.98,0.613,10.561-6.24c-1.023-4.937-10.5-8.416-9.6-14.4
		c-0.979-0.622-2.892-0.309-2.881-1.92c1.115-1.925-0.681-6.761,1.92-7.2c2.424,0.457,1.357,4.403,3.36,5.28
		c5.701,0.945,11.031,4.155,17.28,3.36c5.021-0.639,8.492-3.969,12.479-5.28c5.852,2.525,11.868-1.468,12-7.68
		c-2.242-1.662-1.735-4.752-2.88-6.72c-4.115-7.078-13.27-8.216-22.08-10.56c-1.477,2.039-3.286,0.398-4.8,0.48
		c-6.085,0.326-10.183,4.818-15.84,6.24c-0.368-3.952-2.648-5.992-5.28-7.68c-0.184,2.933-1.784,6.105-1.92,8.64
		c-0.203,3.78,3.07,9.148,3.36,15.36c0.243,5.212-1.51,9.92-0.96,13.44c0.576,3.689,2.977,6.015,2.399,9.12
		c-1.474,7.933-16.94,6.228-17.28-1.44c-0.082-1.848,1.693-2.572,2.4-4.8c1.876-5.907-1.522-11.813-1.44-18.24
		c0.045-3.487,2.386-5.826,2.4-8.64c0.019-3.653-3.557-8.745-2.88-13.44c-2.833,1.007-3.184,4.496-6.72,4.8
		C121.273,111.178,118.435,110.816,117.091,108.96z M76.771,136.8c-3.776,11.044,0.878,28.742,5.76,37.44
		c1.403-1.216,1.742,2.717,3.84,2.4c1.107,0.146,0.533-1.387,1.44-1.44c1.461,0.459,1.931,1.909,4.32,1.44
		c-4.838-6.387-9.636-14.748-9.12-24.96c-4.453,0.531-1.347,5.646-0.96,7.68c0.963,5.071,2.49,10.725,3.84,13.92
		c-7.74-7.041-8.858-23.414-8.16-36C76.617,138.697,78.668,136.166,76.771,136.8z M98.371,177.12
		c-1.282-5.599-6.935-6.825-7.68-12.96c-0.48,0-0.96,0-1.44,0C90.312,170.164,93.96,176.056,98.371,177.12z M171.811,173.28
		c3.539-0.781,4.462-4.178,5.76-7.2C175.145,165.894,170.976,170.148,171.811,173.28z M163.651,171.36
		c-1.095-0.227-3.204,1.657-5.28,1.92c-4.109,0.52-10.565-3.386-13.92-2.88c-1.938,0.292-3.086,1.849-4.8,1.92
		c-2.429,0.101-5.11-2.023-7.68-1.92c-3.898,0.156-7.229,3.798-11.04,4.32c-5.294,0.725-6.405-1.699-9.12-2.4
		c-3.34,0.78-6.083,10.13-1.44,11.52c1.847-0.553,1.013-3.787,3.36-3.84c4.469-0.09,7.956,0.288,11.04,2.4
		c3.28,2.246,4.426,7.229,7.2,9.6c7.405,6.331,26.694,2.07,23.52-10.08c3.914-2.07,7.351-2.571,11.04-0.479
		C167.588,178.379,167.438,172.143,163.651,171.36z M103.651,175.68c-0.439-2.601-2.433-3.647-4.32-4.801
		C98.049,173.205,101.089,177.199,103.651,175.68z M96.451,193.44c2.604,0.388,4.208,3.959,7.2,2.399
		c-0.875-2.645-3.437-3.603-6.24-4.319c-3.296-2.784-4.656-7.504-8.64-9.601C88.987,186.228,94.424,189.354,96.451,193.44z
		 M165.091,193.919c7.468,0.205,12.263-6.25,15.84-11.52C175.583,186.172,169.304,189.013,165.091,193.919z M158.851,202.56
		c-3.795-1.086-7.064,1.243-10.08,2.399c-2.104-0.024-4.496-0.336-4.8,1.44c6.369,1.054,12.065-2.629,18.24-3.36
		c6.289-4.75,14.949-7.131,18.239-14.88C173.684,193.393,165.254,196.963,158.851,202.56z M112.291,198.24
		c0.438-2.038-0.784-2.416-1.92-2.88C109.288,196.584,109.919,199.004,112.291,198.24z M105.571,198.24
		c2.02,1.98,3.839,4.161,7.68,4.32C112.613,199.659,108.34,195.878,105.571,198.24z"/>
	<path fill-rule="evenodd" clip-rule="evenodd" d="M77.731,137.28c-0.698,12.586,0.42,28.959,8.16,36
		c-1.35-3.195-2.877-8.849-3.84-13.92c-0.387-2.034-3.493-7.148,0.96-7.68c-0.516,10.212,4.282,18.573,9.12,24.96
		c-2.389,0.469-2.859-0.981-4.32-1.44c-0.907,0.054-0.333,1.587-1.44,1.44c-2.098,0.316-2.437-3.616-3.84-2.4
		c-4.882-8.698-9.537-26.396-5.76-37.44C78.668,136.166,76.617,138.697,77.731,137.28z"/>
	<path fill-rule="evenodd" clip-rule="evenodd" fill="#FFE292" d="M110.371,208.799c3.809-0.129,5.604,1.757,8.16,2.88
		c-1.258,3.062-4.356,4.284-6.72,6.24c-1.268,3.849-2.25,7.542-2.4,12c-0.343,10.2-1.418,18.243-7.68,24.48
		c-4.581,4.562-12.019,5.982-15.36,13.92c1.034,0.886,3.396,0.444,2.88,2.88c-0.79,1.247-3.947,1.292-3.36-1.44
		c-1.525,1.355-1.228,4.532-2.88,5.761c-10.544-17.409,12.872-25.011,13.92-39.36c0.711-9.742-9.634-17.406-2.88-28.32
		c2.82-2.591,8.257-6.721,11.04-1.439c-1.19,5.448-4.454,7.962-5.28,13.439c-0.93,6.165,2.111,11.938,1.44,17.761
		c-0.25,2.168-2.16,7.464-3.36,10.079c-3.376,7.358-13.155,10.059-12.48,19.2c0.32,0,0.64,0,0.96,0
		c6.946-12.77,20.605-20.64,18.24-38.88c-0.053-0.906-1.587-0.333-1.44-1.439C103.333,218.402,105.586,212.335,110.371,208.799z
		 M88.291,271.2c-0.202-0.918-0.174-2.066-1.44-1.92C86.717,270.534,86.689,271.682,88.291,271.2z"/>
	<path fill-rule="evenodd" clip-rule="evenodd" d="M87.811,212.64c-3.436,0.724-5.386,2.934-7.2,5.279
		c-14.038,7.241-23.318,19.242-38.4,25.44c-2.193-5.314,3.559-7.952,5.76-12c2.516-4.627,3.274-10.416,5.76-15.36
		c1.175-2.338,3.428-4.406,4.8-6.72c4.062-6.848,7.566-15.817,11.52-23.04c-14.31-4.696-15.533,10.344-23.04,14.88
		c-2.941,1.777-7.843,2.666-11.04,2.88c-5.125,0.344-10.99-2.354-16.32-1.439c-2.849,0.488-3.223,3.419-6.24,1.439
		c-3.458,1.663-4.013,6.228-6.72,8.641c-4.901-4.223-3.412-16.573,0-20.641c2.747-3.273,7.39-6.209,11.04-7.2
		c5.569-1.512,16.768,1.575,20.16-4.319c1.459-10.062,8.912-14.128,14.88-19.681c-1.763-2.394-4.372-1.477-6.72-1.92
		c-11.815-2.229-24.242-5.378-35.52-7.199c-3.051-0.493-8.315,0.757-9.6-3.36c1.321-3.429,5.255-2.296,7.68-2.88
		c5.139-1.238,9.465-3.759,14.4-4.8c1.445-0.305,2.806,0.265,4.32,0c5.959-1.043,12.269-4.457,18.72-6.24
		c6.467-1.788,12.994-2.62,19.2-5.28c0.208-9.788-16.897-5.552-26.88-8.16c-3.015-0.788-7.143-2.234-9.12-3.84
		c-1.3-1.057-1.56-3.339-2.4-4.32c-0.721-0.841-2.183-1.083-2.88-1.92c-2.794-3.353-4.254-7.805-6.72-12.96
		c-2.901-2.264-5.955-4.884-11.04-4.32c-2.374,0.263-3.398,2.333-5.76,1.44c-1.917-2.689,2.836-6.231,3.84-9.12
		c4.338-1.144,6.662-3.518,11.04-3.36c8.892,0.32,14.841,10.281,19.68,15.36c9.972,5.873,23.643-4.003,33.6,0.48
		c-0.402-4.338-5.949-7.771-4.32-11.04c-3.935-0.386-3.531-5.109-6.72-6.24c-2.735-5.621-6.849-11.019-10.56-16.32
		c-3.457-4.938-9.262-9.932-7.68-16.8c7.203,1.917,12.026,6.214,16.8,10.56c14.597,7.323,26.244,17.596,41.28,24.48
		c5.82-10.902-9.952-15.215-14.4-22.08c-3.604-8.592-2.797-15.062-3.36-24.48c5.046-7.893,0.427-18.513-5.76-22.08
		c-1.677-0.13-5.124-0.556-5.28-2.88c-0.444-6.591,16.823-2.094,19.68,0c1.087,2.112,3.337,3.063,5.28,4.32
		c2.282,5.919,5.142,10.981,5.76,17.28c0.231,2.355-0.854,4.899-0.48,7.2c2.101,12.925,20.815,11.278,25.44,23.04
		c4.162-10.792,3.923-28.51,6.24-40.32c1.166-5.944,2.74-12.358,5.28-17.28c5.078,0.67,5.2,7.155,6.24,11.04
		c4.576,17.087,7.722,37.569,13.92,54.24c4.744-3.397,8.044-2.639,9.12-8.16c1.009-5.177-2.258-9.063-1.92-15.36
		c0.298-5.575,2.824-11.708,5.76-15.36c6.971-8.676,23.512-8.483,20.16-23.52c-0.696-3.121-4.495-5.971-1.92-8.64
		c9.067,2.041,14.254,11.952,13.92,21.6c-0.444,12.826-15.502,16.63-15.36,29.28c3.099,7.874,5.514,18.812,1.44,26.4
		c10.613-2.062,17.907-11.846,26.88-18.24c3.105-2.214,6.789-4.002,10.08-6.24c2.838-1.93,5.854-6.562,10.079-4.32
		c0.848,4.549-3.346,7.401-5.76,10.56c-7.232,9.465-13.261,21.027-19.68,31.68c-3.527,3.993-6.185,8.856-8.16,14.4
		c9.775,7.057,17.232-4.688,21.12-11.04c6.728-2.53,12.104-6.106,19.68-6.72c5.928-0.48,12.365,2.117,18.24,0.96
		c5.345-1.053,7.124-5.418,11.04-8.64c5.626,4.022,0.108,14.25-1.44,18.72c-4.361,1.578-6.557,5.08-11.04,6.24
		c-4.464,1.155-11.004-0.377-15.359,0.96c-8.565,2.631-9.14,12.955-14.4,19.2c-3.477,1.963-7.095,3.785-10.08,6.24
		c7.526,5.694,21.404,5.873,32.641,8.16c3.198,0.651,5.822,2.324,8.64,2.88c3.633,0.717,11.728-1.594,11.04,5.28
		c-19.378,4.782-39.904,8.415-59.04,13.439c2.627,3.235,3.462,9.53,7.68,11.521c5.789,2.73,12.531,0.302,19.681,1.439
		c12.248,1.951,16.627,11.296,20.64,22.561c3.496,4.437,10.979,2.281,16.8,2.88c0.133,8.612-8.618,8.342-13.92,11.521
		c-4.928-1.461-7.707-0.542-11.04-2.4c-4.964-2.768-6.548-9.594-10.56-12.48c-2.798-2.013-8.889-2.732-13.44-1.92
		c-5.525,0.987-13.808,7.436-21.12,1.92c4.943,12.338,14.711,19.85,19.681,32.16c2.567,4.816,8.481,8.767,8.64,14.4
		c-4.348,1.422-8.28-2.314-11.521-4.8c-10.007-7.679-22.686-14.272-33.6-21.12c-3.305-3.256-6.826-6.295-12-7.681
		c-1.45,2.644-2.456,4.65-2.399,7.2c0.149,6.809,6.541,8.533,11.04,12.96c4.408,4.339,6.704,12.314,7.199,18.24
		c0.672,8.026-2.553,18.649,1.92,24.96c1.407,3.489,7.921,3.181,8.16,6.72c0.298,4.397-6.575,3.981-12.96,3.84
		c-7.007-3.798-14.642-9.954-15.84-19.199c-0.689-5.317,1.274-7.423,0.48-12.48c-1.745-11.114-10.417-7.588-17.28-13.439
		c-2.383-2.032-2.544-5.549-6.24-7.681c-2.565,2.463-1.438,6.526-2.4,10.08c-0.668,2.468-2.354,4.592-2.88,7.2
		c-1.125,5.581,0.232,12.3-2.88,16.32c0.608,4.8-1.416,7.929-2.88,14.399c-0.721,3.189-0.641,7.809-3.84,7.681
		c-4.871-0.196-2.428-11.05-2.88-14.881c-0.21-1.783-1.43-3.375-1.92-5.279c-1.053-4.087-1.011-8.734-1.92-12.96
		c-2.814-13.075-6.206-25.683-8.16-35.521c-2.701-0.301-2.96,1.84-5.28,1.92c-4.133,7.114-1.76,20.297-5.28,28.8
		c-5.921,14.302-22.527,17.733-24,29.761c-0.592,4.836,1.951,8.9-1.44,10.08c-5.854,2.035-6.858-10.462-9.12-12
		c0.903-3.248-1.393-2.566-0.96-8.641c0.461-6.464,3.51-11.571,6.72-16.319c1.003-0.276,1.37-1.19,2.88-0.96
		c1.479-5.349,7.618-8.636,7.2-15.36C92.197,227.568,84.575,221.024,87.811,212.64z M89.731,21.6c0.026,0.613,0.615,0.665,0.48,1.44
		c2.581,6.667-0.468,13.55,0,19.68c0.792,10.377,7.411,16.213,16.8,18.72c5.445,3.852,7.348,9.705,9.12,16.32
		c2.209-0.031,3.822-0.658,5.28-1.44c0.67-6.393-0.616-10.415-3.84-14.4c-6.151-7.605-19.353-7.469-22.08-16.8
		c-1.693-5.794-0.141-12.563-1.92-18.24c-1.599-5.103-5.743-10.453-11.04-11.52c1.797,3.882,4.624,9.133,4.32,14.88
		c-0.282,5.313-2.687,9.728-2.88,15.36c-0.665,19.313,19.427,17.916,19.68,36.96c4.267,0.427,5.541-2.14,7.68-3.84
		c-0.924-7.553-4.399-14.411-11.04-17.28c-1.067-0.461-3.05-0.144-4.32-0.96c-4.253-2.735-7.754-10.643-8.16-17.28
		c-0.184-3,1.22-6.308,1.44-10.08c0.288-4.926-2.685-9.269,0-12C89.544,21.147,89.819,21.192,89.731,21.6z M176.611,45.12
		c-2.226,9.117,2.656,18.519,0,26.88c-1.272,4.007-3.894,6.127-5.76,10.56c0.992,0.928,2.67,1.17,3.84,1.92
		c7.321-5.974,11.263-11.722,10.08-21.6c-0.513-4.281-3-8.358-3.36-12.48c-1.25-14.31,17.712-17.805,13.44-30.72
		C192.809,31.564,179.349,33.906,176.611,45.12z M190.531,21.6c-1.588,4.489-6.751,4.973-10.56,7.2
		c-5.051,2.953-12.158,9.029-12.96,16.8c-0.437,4.229,1.946,7.725,2.399,12.96c0.429,4.948-1.428,7.27-2.399,11.52
		c-2.493,2.627-7.013,3.228-8.16,7.2c7.506,6.6,13.637-2.778,14.88-9.12c1.654-8.443-2.784-18.74,0.48-26.4
		c4.78-11.219,14.563-10.17,17.76-20.16C191.491,21.6,191.011,21.6,190.531,21.6z M127.171,74.88c1.929,0.254,6.677,0.238,9.12-0.48
		c0.392-16.274,0.507-35.683,0.48-51.84c-0.106-0.374-0.402-0.558-0.96-0.48C132.236,37.864,130.7,58.549,127.171,74.88z
		 M141.571,74.4c2.401,0.741,6.893,1.607,9.601,0.48c-3.071-14.53-6.352-28.849-11.041-41.76
		C139.94,47.24,139.559,63.045,141.571,74.4z M83.491,91.2c1.853-0.877,2.995,3.073,5.76,2.88c2.401-1.973,6.805-2.724,6.72-5.76
		c-0.128-4.579-11.981-5.992-13.44-10.56c-10.485-2.955-16.483-10.397-25.92-14.4C63.69,74.213,76.898,81.456,83.491,91.2z
		 M180.451,88.8c5.526,8.198,8.672,3.177,14.4-2.4c3.071-2.991,7.281-5.607,9.6-8.16c1.566-1.725,1.955-4.041,3.36-5.28
		c1.095-0.965,2.692-1.176,3.359-1.92c1.308-1.458,1.732-3.919,2.881-5.28c0.933-1.106,3.033-0.509,1.92-2.4
		C204.802,72.511,191.675,79.704,180.451,88.8z M79.651,104.64c2.984-1.016,4.293-3.707,5.28-6.72
		c-9.213-10.715-20.298-23.814-32.64-32.16C62.05,78.081,69.137,93.074,79.651,104.64z M190.531,97.92
		c1.169,2.511,2.296,5.064,4.8,6.24c6.256-10.384,13.337-19.944,18.721-31.2c-0.055-0.586-0.144-1.137-0.96-0.96
		C205.973,81.042,197.374,88.602,190.531,97.92z M175.651,197.28c4.974-3.821,11.412-8.884,14.88-13.44
		c2.745-3.607,7.284-11.368,8.16-15.359c0.729-3.318,1.298-3.979,1.92-5.76c1.978-5.661,0.929-11.682,2.88-17.76
		c-1.431-31.753-23.041-60.798-53.76-65.28c-3.202-0.467-6.666,0.743-9.6-1.92c-2.648,1.929-6.588,0.955-10.08,1.44
		c-18.772,2.608-36.569,13.625-44.64,26.4c-5.204,8.236-11.19,18.1-12.48,28.8c-1.794,14.881,1.064,25.986,6.24,40.32
		c9.442,14.238,20.606,26.753,38.88,32.159c1.081-0.199-0.072-2.632,1.44-2.399c1.771,0.905,4.56,1.412,6.24,0
		c-2.002-2.323-9.426-1.768-8.64-5.28c3.32,2.76,9.825,2.336,13.44,4.8c0.206,1.326-1.789,0.451-1.92,1.44
		c2.605,0.115,3.393,2.048,3.84,4.319C152.108,210.941,165.718,204.911,175.651,197.28z M72.451,119.04
		c-1.637-2.203-4.743-2.937-5.76-5.76c-9.662-3.528-20.682,0.677-27.84-1.44c-5.56-1.116-16.639-9.269-13.92-18.72
		c-2.317-2.97-9.821-8.788-13.92-3.84c4.185,1.416,7.595,3.605,10.08,6.72c1.16,4.119,3.969,6.591,4.8,11.04
		c5.871,6.802,12.765,10.562,23.04,11.04c3.295,0.154,6.357-0.902,9.6-0.48c6.229,0.812,6.853,6.484,12,7.2
		C72.012,123.374,73.439,121.649,72.451,119.04z M266.371,90.24c-0.027-0.293-0.071-0.568-0.479-0.48
		c-4.958,5.304-16.024,1.402-23.521,1.92c-13.89,0.96-20.136,8.666-27.359,17.76c-4.233,3.319-10.077,0.361-15.36,1.44
		c-0.247,3.95,0.694,4.667,2.4,7.2c6.693,0.08,12.413-0.615,16.8-3.84c3.539-7.742,9.827-16.548,20.16-18.24
		c3.012-0.494,7.013,0.115,10.56,0c2.067-0.067,5.323-2.063,5.76,0.96c-6.163,2.476-16.596,0.684-22.08,3.84
		c-8.438,5.417-10.363,18.526-21.119,21.12c-3.062,0.738-4.566-0.454-7.681,0.96c-0.882,2.309,0.785,4.964,1.92,6.72
		c8.724-2.048,14.556-2.982,19.681-8.64c5.548-6.126,6.139-16.01,13.92-19.2c3.32-1.361,5.91-0.162,10.08-0.48
		c7.8-0.594,15.496-4.245,16.8-11.52C266.824,90.053,266.779,90.328,266.371,90.24z M48.451,110.4
		c-0.146-1.266,1.002-1.238,1.92-1.44c10.479-1.449,18.688,1.62,24.48,6.24c2.864-2.146,2.309-5.807,0.96-9.12
		c-5.124-1.068-7.689-4.316-12.96-4.8c-5.719-0.524-9.956,2.376-15.36,3.36c-7.955,1.448-12.055-2.012-18.72-5.28
		C31.394,106.978,38.637,109.974,48.451,110.4z M31.171,143.52c-3.342,0.817-7.321-0.336-9.6,3.36
		c15.599-0.51,33.109,0.037,46.08-2.4c1.957-2.364,1.342-7.298,1.44-11.52C55.079,134.299,43.464,140.513,31.171,143.52z
		 M206.851,133.92c-1.159,2.888,0.154,7.111,0.479,10.08c12.123,0.832,30.919,2.431,42.721,0
		C235.262,140.163,221.758,137.289,206.851,133.92z M207.331,149.28c-1.164,2.207-2.333,5.278-1.439,8.16
		c7.044,0.093,8.554-2.378,15.359-2.4c7.104-3.616,18.529-2.911,24.96-7.2C234,147.854,219.754,146.961,207.331,149.28z
		 M23.971,150.24c13.962,2.312,28.716,7.247,45.12,8.64c1.172-2.901-0.384-6.881-0.96-9.6
		C54.917,149.062,37.595,147.504,23.971,150.24z M52.771,166.08c-4.075,3.728-7.321,5.685-9.12,9.12
		c-1.802,3.443-1.389,7.429-4.8,10.56c-4.899,4.497-11.487,1.676-18.24,2.881c-5.515,0.983-12.805,6.588-12.96,12.479
		c4.913-0.963,10.443-3.759,15.84-3.36c2.923,0.217,5.537,1.762,8.16,1.921c5.893,0.354,12.254-0.915,16.32-5.28
		c3.356-3.604,4.44-9.102,9.6-11.521c3.252-1.524,7.165-0.45,10.08-1.439c3.756-1.274,10.429-6.997,6.24-10.08
		c-4.813,1.505-6.922,0.693-11.04,1.439c-10.583,1.918-10.774,11.667-16.8,17.28c-4.233,3.943-11.105,5.79-16.32,5.76
		c-3.135-0.018-6.414-1.735-10.56-0.96c-2.424,0.454-4.853,3.81-7.2,1.92c1.974-6.293,11.373-3.053,17.28-3.359
		c5.463-0.284,12.486-3.245,15.84-7.2c3.617-4.266,4.33-9.999,8.16-13.44c5.406-4.857,11.968-1.236,18.24-7.199
		C67.456,159.264,57.845,163.989,52.771,166.08z M251.491,186.24c-3.143-3.043-7.308-6.93-12.96-8.16
		c-7.604-1.655-18.421-0.057-22.56-3.359c-2.835-2.263-4.427-10.556-9.12-10.561c-3.068-0.003-5.114,4.443-4.8,6.72
		c0.519,3.76,8.899,9.718,12.96,10.561c6.256,1.298,13.265-1.2,19.199-0.48c6.236,0.757,11.059,4.505,14.4,8.16
		c2.985,3.266,4.075,8.179,8.64,10.08C254.406,195.804,253.065,190.906,251.491,186.24z M232.771,183.839
		c-5.333-0.316-10.653,1.524-16.8,1.92c-6.754-1.886-10.945-6.335-16.801-9.119c-6.94,8.7,6.371,16.604,13.921,17.279
		c9.23,0.826,18.692-8.635,27.359-3.84c5.589,4.011,7.211,11.989,14.88,13.92C249.827,195.5,245.258,184.583,232.771,183.839z
		 M54.691,227.04c2.988-1.956,5.093-5.129,7.2-7.68c2.608-3.158,7.204-8.043,10.08-10.561c2.188-1.914,3.295-6.142,6.24-9.6
		c3.141-3.688,7.146-5.886,7.2-8.64c0.058-2.948-6.593-9.104-8.16-10.08C70.778,196.727,59.863,211.091,54.691,227.04z
		 M193.411,186.72c-2.904,1.415-4.21,4.43-5.76,7.199c4.199,4.774,9.416,9.355,13.92,13.44c3.482,3.158,4.821,6.502,7.68,9.6
		c2.887,3.127,7.048,5.943,10.561,7.681C211.302,211.708,203.196,198.375,193.411,186.72z M95.971,201.12
		c0.474-3.517-4.264-4.514-6.72-6.72c-10.163,9.837-19.933,20.067-28.8,31.2c7.993-3.048,12.816-9.265,20.64-12.48
		C81.763,208.813,95.471,204.828,95.971,201.12z M202.051,212.64c-5.393-4.833-18.545-23.336-24.48-10.08
		c13.26,8.5,24.882,18.639,39.84,25.439C214.157,222.664,208.703,218.6,202.051,212.64z M258.691,205.44
		c2.724,0.462,6.766,1.13,7.2-1.92c-2.123-0.117-3.497-0.983-5.76-0.96C260.156,204.025,258.402,203.71,258.691,205.44z
		 M103.171,226.56c-0.147,1.106,1.387,0.533,1.44,1.439c2.366,18.24-11.294,26.11-18.24,38.88c-0.32,0-0.64,0-0.96,0
		c-0.675-9.142,9.104-11.842,12.48-19.2c1.2-2.615,3.11-7.911,3.36-10.079c0.671-5.823-2.37-11.596-1.44-17.761
		c0.826-5.478,4.09-7.991,5.28-13.439c-2.783-5.281-8.22-1.151-11.04,1.439c-6.754,10.914,3.591,18.578,2.88,28.32
		c-1.048,14.35-24.464,21.951-13.92,39.36c1.652-1.229,1.354-4.405,2.88-5.761c-0.587,2.732,2.57,2.688,3.36,1.44
		c0.516-2.436-1.846-1.994-2.88-2.88c3.341-7.938,10.779-9.357,15.36-13.92c6.262-6.237,7.337-14.28,7.68-24.48
		c0.15-4.458,1.132-8.151,2.4-12c2.364-1.956,5.461-3.179,6.72-6.24c-2.556-1.123-4.351-3.009-8.16-2.88
		C105.586,212.335,103.333,218.402,103.171,226.56z M166.051,207.839c-3.676,9.411,1.676,17.62,6.239,23.04
		c8.574,3.076,12.38,8.904,12.96,17.761c0.272,4.158-1.788,8.673-1.439,12.96c0.289,3.558,2.89,6.135,3.36,9.119
		c-0.476,2.037-2.925-0.683-2.881,1.44c1.699,2.301,4.3,3.701,7.2,4.8c-0.033-4.937-3.696-9.594-3.359-16.319
		c0.338-6.759,2.142-12.6,0.479-18.721c-1.3-4.785-4.166-7.533-6.72-11.52c-4.132-2.372-9.149-5.729-10.08-11.521
		c-0.66-4.105,2.178-8.43,0-12.479C169.569,205.256,168.036,207.31,166.051,207.839z M154.051,213.12
		c-1.678,12.32,3.791,21.284,12.96,24.48c1.443,0.503,3.71,0.146,5.279,0.96c3.823,1.982,6.17,7.551,6.721,12
		c0.801,6.474-2.734,15.012,3.359,17.76c-3.271-4.923,0.749-10.365,0.96-15.36c0.308-7.246-3.431-12.004-6.239-17.28
		c-3.639-1.321-6.062-3.857-9.601-5.279c-4.596-4.956-6.129-12.909-7.68-19.68C157.495,211.123,155.473,211.822,154.051,213.12z
		 M126.211,213.6c3.277,14.323,5.214,34.146,11.04,47.52c-2.098-14.768-0.582-33.245-3.36-46.56
		C131.435,214.323,128.299,212.654,126.211,213.6z M139.171,215.04c-0.268,14.234-0.008,28.905,0,43.68
		c3.049-3.671,2.863-10.576,3.84-16.319c3.007-5.473,4.407-12.553,4.8-20.641c1.149-2.012,2.541-5.383,1.439-8.159
		C145.569,213.757,141.664,213.693,139.171,215.04z"/>
	<path fill-rule="evenodd" clip-rule="evenodd" d="M174.211,94.08c-3.495,0.18-6.11-3.369-9.601-4.8
		c-2.172-0.891-5.09-1.072-7.68-1.92c-2.322-0.76-4.737-2.446-6.72-2.88c-17.833-3.901-35.403,2.535-47.521,7.68
		c-0.52-2.154,4.02-3.712,3.84-2.4c0.693-0.587,0.729-1.832,1.44-2.4c6.05-2.1,12.151-5.046,19.68-5.76
		c14.241-1.349,28.827,1.601,39.36,6.72c0.359,0.907,1.433,0.333,0.479,1.44c1.559-0.278,2.233,0.327,3.36,0.48
		C171.353,92.138,174.062,91.829,174.211,94.08z"/>
	<path fill-rule="evenodd" clip-rule="evenodd" d="M122.851,112.8c3.536-0.304,3.887-3.793,6.72-4.8
		c-0.677,4.695,2.899,9.787,2.88,13.44c-0.015,2.813-2.355,5.153-2.4,8.64c-0.082,6.427,3.316,12.333,1.44,18.24
		c-0.707,2.228-2.481,2.952-2.4,4.8c0.339,7.668,15.806,9.373,17.28,1.44c0.577-3.105-1.823-5.431-2.399-9.12
		c-0.55-3.521,1.203-8.228,0.96-13.44c-0.29-6.212-3.563-11.58-3.36-15.36c0.136-2.534,1.736-5.707,1.92-8.64
		c2.632,1.688,4.912,3.728,5.28,7.68c5.657-1.421,9.755-5.914,15.84-6.24c1.514-0.082,3.323,1.559,4.8-0.48
		c8.811,2.344,17.965,3.482,22.08,10.56c1.145,1.967,0.638,5.058,2.88,6.72c-0.132,6.212-6.148,10.205-12,7.68
		c-3.987,1.311-7.459,4.641-12.479,5.28c-6.249,0.795-11.579-2.415-17.28-3.36c-2.003-0.877-0.937-4.824-3.36-5.28
		c-2.601,0.439-0.805,5.275-1.92,7.2c-0.011,1.611,1.902,1.298,2.881,1.92c-0.9,5.984,8.576,9.463,9.6,14.4
		c1.42,6.854-4.92,10.655-10.561,6.24c-4.801,4.957-13.565,7.765-20.16,2.4c-6.457,2.889-11.406-1.654-12-5.761
		c-1.067-7.376,8.053-9.933,8.16-15.84c0.908-0.952,2.268-0.233,3.36,0c0.512-3.712-1.166-5.234-1.44-8.16
		c-4.867,1.385-13.616,7.774-23.04,5.76c-2.269-0.485-4.41-2.593-6.72-2.88c-4.281-0.532-7.76,1.098-10.56,0
		c-3.213-1.261-7.214-6.337-4.32-10.56c3.565,0.435,5.884,2.116,6.24,5.76c1.78-0.299,2.811-1.349,4.32-1.92
		c2.142-8.215,11.563-10.77,19.2-12c1.133,0.986,3.829,2.296,4.8,1.92c1.875,0.115,1.737-1.783,2.4-2.88
		c-1.012-2.399-4.176-0.945-5.76,0c-2.103-1.577-2.88-1.956-6.24-0.96c-0.736-2.335,1.393-1.807,1.44-3.36
		c-4.611-2.198-5.333,4.28-9.6,1.44c-1.898,1.255-2.607,3.28-5.28,1.44c-1.907,2.942-5.601,6.493-8.16,7.2
		c0.695-11.414,13.68-11.941,24-14.88c1.613,0.467,2.794,1.366,3.84,2.4c1.665,0.385,1.845-0.715,3.36-0.48
		C118.435,110.816,121.273,111.178,122.851,112.8z M166.531,117.6c1.16-1.301-0.526-2.666,0-4.8
		C161.15,110.544,162.921,117.378,166.531,117.6z M169.891,117.6c3.688,0.133,7.309,3.407,10.08,7.2
		c0.989,1.354,1.454,3.65,2.399,4.32c3.026,2.143,8.562,1.675,9.12-1.92c0.755-4.861-6.381-4.843-5.279-9.6
		c-1.613-0.184,0.427,3.248-2.4,2.88c-2.031-1.489-1.834-5.206-4.8-5.76c-1.132,0.148-0.894,1.667-2.4,1.44
		c-1.902-0.817-2.46-2.98-4.8-3.36C171.997,115.226,169.929,115.397,169.891,117.6z M120.451,120.48
		c1.255,0.135,2.064-0.175,1.92-1.44c-0.908,0.108-1.059-0.541-1.92-0.48C120.451,119.2,120.451,119.84,120.451,120.48z
		 M162.211,124.8c1.454-1.105,3.787-1.333,5.76-1.92C167.85,120,161.215,123.582,162.211,124.8z M122.851,124.32
		c0.268-0.89,3.556-1.193,1.92-2.4C124.542,122.849,121.392,123.29,122.851,124.32z M146.851,123.84
		c1.433,0.007,1.632,1.248,2.88,1.44C149.781,123.747,147.239,122.052,146.851,123.84z M164.131,127.68
		c-4.469,8.909,13.967,8.352,9.119,0.96c0.593,2.834-3.766,6-6.72,2.88c-0.507-4.108,1.532-4.515,3.36-5.28
		C167.903,124.978,165.63,126.921,164.131,127.68z M104.131,127.2c0.201,0.971-2.492,5.063,0.48,5.76
		C104.116,128.105,112.085,125.163,104.131,127.2z M111.811,132c0.348-1.468-0.828-1.412-0.48-2.88
		c-1.433,0.008-1.632,1.248-2.88,1.44c-0.397,4.509,3.613,3.334,5.28,4.8c0.599-1.35,1.967-1.587,3.36-0.96
		c1.33-1.024-0.888-2.615,0.96-2.88c0.075,0.564-0.083,1.362,0.48,1.44c-0.231-1.512,1.474-1.087,0.96-2.88
		C116.575,124.558,115.792,136.901,111.811,132z M156.931,131.04c0.443,1.317,1.514,2.007,2.88,2.4c1.046-1.004-0.24-1.37,0-2.88
		C158.627,130.497,157.499,130.487,156.931,131.04z M120.931,152.16c-0.448,4.128,0.741,6.619,4.32,6.72
		c-1.818-5.833,3.042-12.336,2.4-16.32C126.138,146.487,124.327,150.116,120.931,152.16z M154.051,157.44
		c4.75-2.563-1.768-8.188-3.84-8.16C152.965,150.546,148.945,157.677,154.051,157.44z"/>
	<path fill-rule="evenodd" clip-rule="evenodd" fill="#FFE292" d="M246.21,147.84c-6.431,4.289-17.856,3.583-24.96,7.2
		c-6.806,0.022-8.315,2.493-15.359,2.4c-0.894-2.882,0.275-5.953,1.439-8.16C219.754,146.961,234,147.854,246.21,147.84z"/>
	<path fill-rule="evenodd" clip-rule="evenodd" fill="#FFE292" d="M257.25,199.2c-4.564-1.901-5.654-6.814-8.64-10.08
		c-3.342-3.655-8.164-7.403-14.4-8.16c-5.935-0.72-12.943,1.778-19.199,0.48c-4.061-0.843-12.441-6.801-12.96-10.561
		c-0.314-2.276,1.731-6.723,4.8-6.72c4.693,0.005,6.285,8.298,9.12,10.561c4.139,3.303,14.955,1.704,22.56,3.359
		c5.652,1.23,9.817,5.117,12.96,8.16C253.065,190.906,254.406,195.804,257.25,199.2z"/>
	<path fill-rule="evenodd" clip-rule="evenodd" fill="#FFE292" d="M71.491,165.6c-6.272,5.963-12.834,2.342-18.24,7.199
		c-3.83,3.441-4.543,9.175-8.16,13.44c-3.354,3.955-10.377,6.916-15.84,7.2c-5.907,0.307-15.306-2.934-17.28,3.359
		c2.347,1.89,4.775-1.466,7.2-1.92c4.146-0.775,7.425,0.942,10.56,0.96c5.215,0.03,12.087-1.816,16.32-5.76
		c6.026-5.613,6.217-15.362,16.8-17.28c4.118-0.746,6.227,0.065,11.04-1.439c4.188,3.083-2.484,8.806-6.24,10.08
		c-2.915,0.989-6.828-0.085-10.08,1.439c-5.16,2.419-6.243,7.917-9.6,11.521c-4.066,4.365-10.428,5.635-16.32,5.28
		c-2.623-0.159-5.237-1.704-8.16-1.921c-5.397-0.398-10.927,2.397-15.84,3.36c0.155-5.892,7.445-11.496,12.96-12.479
		c6.753-1.205,13.341,1.616,18.24-2.881c3.411-3.131,2.998-7.116,4.8-10.56c1.799-3.436,5.045-5.393,9.12-9.12
		C57.845,163.989,67.456,159.264,71.491,165.6z"/>
</g>
</svg>
