<svg width="38" height="52" viewBox="0 0 38 52" fill="none" xmlns="http://www.w3.org/2000/svg">
<rect x="18.3887" width="10.518" height="26.0051" rx="1.75488" transform="rotate(45 18.3887 0)" fill="white"/>
<rect x="29.6318" y="11.2461" width="10.4352" height="10.518" rx="1.75488" transform="rotate(45 29.6318 11.2461)" fill="white"/>
<path fill-rule="evenodd" clip-rule="evenodd" d="M24.5201 31.1076C25.2054 30.4223 25.2054 29.3112 24.5201 28.6258L19.6231 23.7288C18.9378 23.0435 17.8266 23.0435 17.1413 23.7288L4.80696 36.0632C4.12164 36.7485 4.12164 37.8596 4.80696 38.545L10.9439 44.6819C10.9444 44.6824 10.9453 44.6824 10.9458 44.6819C10.9463 44.6814 10.9471 44.6814 10.9476 44.6819L17.1422 50.8765C17.8275 51.5619 18.9386 51.5619 19.624 50.8765L24.5795 45.921C25.2649 45.2357 25.2649 44.1245 24.5795 43.4392L19.6249 38.4846C18.9396 37.7992 18.9396 36.6881 19.6249 36.0028L24.5201 31.1076Z" fill="white"/>
</svg>
