<svg width="37" height="51" viewBox="0 0 37 51" fill="none" xmlns="http://www.w3.org/2000/svg">
<rect x="17.9883" width="10.2891" height="25.4391" rx="1.71668" transform="rotate(45 17.9883 0)" fill="#13DCF8"/>
<rect x="28.9854" y="11" width="10.208" height="10.2891" rx="1.71668" transform="rotate(45 28.9854 11)" fill="#2B2B2B"/>
<path fill-rule="evenodd" clip-rule="evenodd" d="M23.7864 30.721C24.4568 30.0506 24.4568 28.9636 23.7864 28.2932L18.996 23.5028C18.3256 22.8324 17.2386 22.8324 16.5682 23.5028L4.50232 35.5687C3.83191 36.2391 3.83191 37.326 4.50232 37.9965L8.33576 41.8299C8.33578 41.8299 8.33578 41.83 8.33576 41.83V41.83C8.33574 41.83 8.33574 41.83 8.33576 41.8301L16.5686 50.0629C17.239 50.7333 18.326 50.7333 18.9964 50.0629L23.8441 45.2152C24.5145 44.5448 24.5145 43.4579 23.8441 42.7875L18.9959 37.9392C18.3255 37.2688 18.3255 36.1819 18.9959 35.5115L23.7864 30.721Z" fill="#6A35FF"/>
</svg>
