# 3ds Max Wavefront OBJ Exporter v0.97b - (c)2007 guruware
# File Created: 23.05.2016 12:04:45

mtllib 01body.mtl

#
# object Box001
#

v  0.8030 1.4821 1.4224
v  0.8006 1.0430 1.5616
v  0.9476 0.9709 1.3435
v  0.9476 1.2011 1.0161
v  0.8324 1.5691 0.6082
v  0.9476 1.3437 0.5493
v  0.7636 1.6405 -0.7342
v  0.9476 1.4494 -0.3667
v  0.7267 0.9416 -1.4891
v  0.9476 1.1354 -0.7344
v  0.3733 1.1164 1.7836
v  -0.0327 1.1164 1.7836
v  -0.0327 0.7175 1.4967
v  0.6938 0.6796 1.4918
v  0.6735 0.8863 1.6299
v  0.8792 0.7360 1.1090
v  1.0713 0.5543 -0.6146
v  0.6938 0.3719 -1.1309
v  0.6658 0.6999 -1.5330
v  0.8792 0.6885 0.7682
v  1.0155 0.6485 0.2946
v  1.0155 0.6485 -0.2780
v  0.5020 0.2311 -1.3316
v  0.0573 0.2366 -1.4230
v  0.4738 0.6846 -1.6509
v  -0.0327 0.3272 0.7044
v  -0.0258 0.3208 0.6920
v  0.4217 0.4369 0.6920
v  0.6165 0.4157 0.5581
v  0.6165 0.4588 -0.4706
v  0.6165 0.4052 0.4461
v  0.6165 0.4493 0.2155
v  0.6165 0.4493 -0.1380
v  -0.0327 0.3254 0.7009
v  -0.0327 0.0217 0.7009
v  -0.0327 0.0217 0.6920
v  0.4755 0.0520 -0.6179
v  0.5020 0.1496 -0.6324
v  0.5020 0.0217 0.6920
v  0.6165 0.0217 0.5581
v  0.6165 0.1084 -0.4050
v  0.6165 0.0217 0.4461
v  0.6165 -0.0271 0.1300
v  0.6165 0.0542 -0.1297
v  0.2432 -0.3283 0.2063
v  0.2432 -0.3283 -0.1473
v  -0.0327 -0.3283 0.2063
v  -0.0327 -0.3283 -0.1473
v  -0.0327 -0.2512 0.5374
v  0.1879 -0.2512 0.5374
v  -0.0327 -0.2527 0.5309
v  0.2892 -0.3074 -0.4171
v  0.3755 0.8409 -1.7572
v  0.3733 1.6003 1.6324
v  0.3733 1.7576 0.7011
v  0.3733 1.7576 -0.9593
v  -0.0327 1.6003 1.6324
v  -0.0327 1.7576 0.7011
v  -0.0327 1.7576 -0.9593
v  -0.0327 0.7900 -1.7710
v  -0.0327 0.2775 -1.3760
v  -0.0327 0.1033 -0.7141
v  -0.0327 -0.3121 -0.4250
v  -0.8684 1.4821 1.4224
v  -1.0130 1.2011 1.0161
v  -1.0130 0.9709 1.3435
v  -0.8660 1.0430 1.5616
v  -0.8978 1.5691 0.6082
v  -1.0130 1.3437 0.5493
v  -0.8291 1.6405 -0.7342
v  -1.0130 1.4494 -0.3667
v  -0.7921 0.9416 -1.4891
v  -1.0130 1.1354 -0.7344
v  -0.4387 1.1164 1.7836
v  -0.7592 0.6796 1.4918
v  -0.7389 0.8863 1.6299
v  -0.9446 0.7360 1.1090
v  -1.1368 0.5543 -0.6146
v  -0.7592 0.3719 -1.1309
v  -0.7313 0.6999 -1.5330
v  -0.9446 0.6885 0.7682
v  -1.0810 0.6485 0.2946
v  -1.0810 0.6485 -0.2780
v  -0.5674 0.2311 -1.3316
v  -0.1227 0.2366 -1.4230
v  -0.5392 0.6846 -1.6509
v  -0.4871 0.4369 0.6920
v  -0.0396 0.3208 0.6920
v  -0.6819 0.4157 0.5581
v  -0.6819 0.4588 -0.4706
v  -0.6819 0.4052 0.4461
v  -0.6819 0.4493 0.2155
v  -0.6819 0.4493 -0.1380
v  -0.5410 0.0520 -0.6179
v  -0.5674 0.1496 -0.6324
v  -0.5674 0.0217 0.6920
v  -0.6819 0.0217 0.5581
v  -0.6819 0.1084 -0.4050
v  -0.6819 0.0217 0.4461
v  -0.6819 -0.0271 0.1300
v  -0.6819 0.0542 -0.1297
v  -0.3086 -0.3283 -0.1473
v  -0.3086 -0.3283 0.2063
v  -0.2533 -0.2512 0.5374
v  -0.3546 -0.3074 -0.4171
v  -0.4410 0.8409 -1.7572
v  -0.4387 1.6003 1.6324
v  -0.4387 1.7576 0.7011
v  -0.4387 1.7576 -0.9593
# 109 vertices

vn 0.6815 0.5934 0.4283
vn 0.6890 0.0046 0.7248
vn 0.9432 -0.1494 0.2966
vn 0.9911 0.1257 0.0448
vn 0.6892 0.7212 0.0693
vn 0.9657 0.2526 0.0603
vn 0.6560 0.7111 -0.2532
vn 0.8879 0.4584 -0.0380
vn 0.7432 0.2307 -0.6281
vn 0.9382 0.2511 -0.2383
vn 0.1769 -0.0915 0.9800
vn 0.0000 -0.1596 0.9872
vn -0.0000 -0.7555 0.6552
vn 0.4030 -0.7277 0.5550
vn 0.4009 -0.3530 0.8454
vn 0.8143 -0.5693 0.1129
vn 0.8751 -0.4836 -0.0194
vn 0.7014 -0.6923 -0.1694
vn 0.7209 -0.2788 -0.6345
vn 0.8734 -0.4666 0.1393
vn 0.8796 -0.4659 0.0963
vn 0.9063 -0.4055 0.1194
vn 0.4306 -0.7567 -0.4920
vn -0.2775 -0.6525 -0.7051
vn 0.3680 -0.4580 -0.8092
vn 0.0000 -0.8962 0.4437
vn 0.3731 -0.4214 0.8266
vn 0.3322 -0.6430 0.6901
vn 0.7848 -0.5070 0.3565
vn 0.7092 -0.7040 -0.0375
vn 0.9044 -0.4264 0.0178
vn 0.8397 -0.5410 -0.0468
vn 0.8400 -0.5419 0.0270
vn -0.0000 -0.7700 0.6381
vn -0.0000 -0.8389 0.5443
vn 0.0000 -0.2679 0.9634
vn 0.6158 -0.6425 -0.4560
vn 0.9393 -0.2659 -0.2169
vn 0.4253 -0.3552 0.8324
vn 0.8535 -0.3962 0.3385
vn 0.9242 -0.3162 -0.2142
vn 1.0000 0.0000 -0.0000
vn 0.8745 -0.4811 -0.0616
vn 0.9220 -0.3802 -0.0734
vn 0.3391 -0.9358 0.0960
vn 0.3848 -0.9229 -0.0165
vn 0.0000 -0.9971 0.0760
vn 0.0000 -0.9996 -0.0292
vn 0.0001 -0.7679 0.6406
vn 0.1788 -0.8123 0.5552
vn 0.4029 -0.8302 -0.3854
vn 0.2304 0.0886 -0.9691
vn 0.2314 0.7238 0.6500
vn 0.1951 0.9766 0.0908
vn 0.2151 0.8807 -0.4220
vn 0.0000 0.7534 0.6576
vn 0.0000 0.9965 0.0836
vn 0.0000 0.9093 -0.4161
vn 0.0000 -0.0279 -0.9996
vn -0.0000 -0.7308 -0.6826
vn -0.0000 -0.8560 -0.5170
vn -0.0000 -0.8686 -0.4955
vn -0.6815 0.5934 0.4283
vn -0.9911 0.1257 0.0448
vn -0.9432 -0.1494 0.2966
vn -0.6890 0.0046 0.7248
vn -0.6892 0.7212 0.0693
vn -0.9657 0.2526 0.0603
vn -0.6560 0.7111 -0.2532
vn -0.8879 0.4584 -0.0380
vn -0.7432 0.2307 -0.6281
vn -0.9382 0.2511 -0.2383
vn -0.1769 -0.0915 0.9800
vn -0.4030 -0.7277 0.5550
vn -0.4009 -0.3530 0.8454
vn -0.8143 -0.5693 0.1129
vn -0.8751 -0.4836 -0.0194
vn -0.7014 -0.6923 -0.1694
vn -0.7209 -0.2788 -0.6345
vn -0.8734 -0.4666 0.1393
vn -0.8796 -0.4659 0.0963
vn -0.9063 -0.4055 0.1194
vn -0.4306 -0.7567 -0.4920
vn 0.2775 -0.6525 -0.7051
vn -0.3680 -0.4580 -0.8092
vn -0.3322 -0.6430 0.6901
vn -0.3731 -0.4214 0.8266
vn -0.7848 -0.5070 0.3565
vn -0.7092 -0.7040 -0.0375
vn -0.9044 -0.4264 0.0178
vn -0.8397 -0.5410 -0.0468
vn -0.8400 -0.5419 0.0270
vn -0.6158 -0.6425 -0.4560
vn -0.9393 -0.2659 -0.2169
vn -0.4253 -0.3552 0.8324
vn -0.8535 -0.3962 0.3385
vn -0.9242 -0.3162 -0.2142
vn -1.0000 0.0000 -0.0000
vn -0.8745 -0.4811 -0.0616
vn -0.9220 -0.3802 -0.0734
vn -0.3848 -0.9229 -0.0165
vn -0.3391 -0.9358 0.0960
vn -0.1788 -0.8123 0.5552
vn -0.0000 -0.9740 0.2267
vn -0.4029 -0.8302 -0.3854
vn -0.2304 0.0886 -0.9691
vn -0.2314 0.7238 0.6500
vn -0.1951 0.9766 0.0908
vn -0.2151 0.8807 -0.4220
# 109 vertex normals

vt 0.8682 0.7850 1.3872
vt 0.8097 0.8337 1.3720
vt 0.7907 0.7936 1.2826
vt 0.8233 0.7372 1.1383
vt 0.8740 0.6463 1.0372
vt 0.8408 0.6388 0.9824
vt 0.8869 0.3265 1.0918
vt 0.8524 0.4059 0.9790
vt 0.7962 0.1551 1.2939
vt 0.8145 0.3068 0.9929
vt 0.8742 0.9010 1.4271
vt 1.0000 0.9292 1.3930
vt 1.0000 0.9994 1.1394
vt 0.7423 0.8551 1.2644
vt 0.7879 0.8660 1.3598
vt 0.7537 0.7800 1.0940
vt 0.7270 0.3383 0.9761
vt 0.6798 0.1958 1.0644
vt 0.7466 0.1356 1.2923
vt 0.7454 0.7215 0.9086
vt 0.7400 0.5853 0.8326
vt 0.7400 0.4159 0.8319
vt 0.6330 0.1573 1.1618
vt 0.5296 0.1044 1.1542
vt 0.7406 0.0946 1.3250
vt 0.5000 0.8387 0.6103
vt 0.5028 0.8340 0.6046
vt 0.6627 0.7898 0.6637
vt 0.6813 0.7093 0.6903
vt 0.6903 0.3092 0.6461
vt 0.6792 0.6747 0.6444
vt 0.6882 0.5923 0.5595
vt 0.6882 0.4354 0.5474
vt 0.5000 0.8374 0.6087
vt 0.5000 0.7504 0.7501
vt 0.5000 0.7483 0.7453
vt 0.6041 0.2957 0.7971
vt 0.6206 0.2812 0.7695
vt 0.6046 0.7115 0.8500
vt 0.6198 0.6676 0.8396
vt 0.6304 0.3620 0.7484
vt 0.6198 0.6380 0.8000
vt 0.6144 0.5397 0.7595
vt 0.6236 0.4536 0.7156
vt 0.5412 0.5583 0.8388
vt 0.5412 0.4550 0.8331
vt 0.5000 0.5603 0.8118
vt 0.5000 0.4535 0.8059
vt 0.5000 0.6600 0.8427
vt 0.5357 0.6566 0.8594
vt 0.5000 0.6582 0.8413
vt 0.5486 0.3802 0.8808
vt 0.7977 0.0757 1.3872
vt 0.9316 0.8282 1.4491
vt 0.9409 0.6768 1.0070
vt 0.9409 0.2734 1.1300
vt 1.0000 0.8412 1.4155
vt 1.0000 0.6871 0.9580
vt 1.0000 0.2623 1.0866
vt 1.0000 0.0135 1.3599
vt 0.5000 0.0975 1.1084
vt 0.5000 0.2240 0.7223
vt 0.5000 0.3734 0.8514
vt 0.1318 0.7850 1.3872
vt 0.1767 0.7372 1.1383
vt 0.2093 0.7936 1.2826
vt 0.1903 0.8337 1.3720
vt 0.1260 0.6463 1.0372
vt 0.1592 0.6388 0.9824
vt 0.1131 0.3265 1.0918
vt 0.1476 0.4059 0.9790
vt 0.2038 0.1551 1.2939
vt 0.1855 0.3068 0.9929
vt -0.0000 0.9994 1.1394
vt -0.0000 0.9292 1.3930
vt 0.1258 0.9010 1.4271
vt 0.2577 0.8551 1.2644
vt 0.2121 0.8660 1.3598
vt 0.2463 0.7800 1.0940
vt 0.2730 0.3383 0.9761
vt 0.3202 0.1958 1.0644
vt 0.2534 0.1356 1.2923
vt 0.2546 0.7215 0.9086
vt 0.2600 0.5853 0.8326
vt 0.2600 0.4159 0.8319
vt 0.3670 0.1573 1.1618
vt 0.4704 0.1044 1.1542
vt 0.2594 0.0946 1.3250
vt 1.2577 0.8551 1.2644
vt 0.3373 0.7898 0.6637
vt 0.4972 0.8340 0.6046
vt 0.3187 0.7093 0.6903
vt 0.3097 0.3092 0.6461
vt 0.3208 0.6747 0.6444
vt 0.3118 0.5923 0.5595
vt 0.3118 0.4354 0.5474
vt 0.3959 0.2957 0.7971
vt 0.3794 0.2812 0.7695
vt 0.3954 0.7115 0.8500
vt 0.3802 0.6676 0.8396
vt 0.3696 0.3620 0.7484
vt 0.3802 0.6380 0.8000
vt 0.3856 0.5397 0.7595
vt 0.3764 0.4536 0.7156
vt 0.4588 0.4550 0.8331
vt 0.4588 0.5583 0.8388
vt 0.4643 0.6566 0.8594
vt 0.4514 0.3802 0.8808
vt 0.2023 0.0757 1.3872
vt 0.0684 0.8282 1.4491
vt 0.0591 0.6768 1.0070
vt 0.0591 0.2734 1.1300
vt 1.1258 0.9010 1.4271
vt 1.0684 0.8282 1.4491
vt 1.0591 0.6768 1.0070
vt 1.0591 0.2734 1.1300
vt 1.2023 0.0757 1.3872
vt -0.0000 0.0135 1.3599
# 118 texture coords

g Box001
usemtl Material__42
s 1
f 1/1/1 2/2/2 3/3/3 4/4/4 
f 5/5/5 1/1/1 4/4/4 6/6/6 
f 7/7/7 5/5/5 6/6/6 8/8/8 
f 9/9/9 7/7/7 8/8/8 10/10/10 
f 11/11/11 12/12/12 13/13/13 14/14/14 
f 15/15/15 11/11/11 14/14/14 
f 3/3/3 2/2/2 15/15/15 14/14/14 
f 3/3/3 14/14/14 16/16/16 
f 9/9/9 10/10/10 17/17/17 18/18/18 
f 19/19/19 9/9/9 18/18/18 
f 4/4/4 3/3/3 16/16/16 20/20/20 
f 6/6/6 4/4/4 20/20/20 21/21/21 
f 8/8/8 6/6/6 21/21/21 22/22/22 
f 10/10/10 8/8/8 22/22/22 17/17/17 
f 19/19/19 18/18/18 23/23/23 24/24/24 
f 25/25/25 19/19/19 24/24/24 
f 13/13/13 26/26/26 27/27/27 14/14/14 
f 14/14/14 27/27/27 28/28/28 
f 16/16/16 14/14/14 28/28/28 29/29/29 
f 18/18/18 17/17/17 30/30/30 23/23/23 
f 20/20/20 16/16/16 29/29/29 31/31/31 
f 21/21/21 20/20/20 31/31/31 32/32/32 
f 22/22/22 21/21/21 32/32/32 33/33/33 
f 17/17/17 22/22/22 33/33/33 30/30/30 
f 27/27/27 34/34/34 35/35/35 36/36/36 
f 37/37/37 24/24/24 23/23/23 38/38/38 
f 28/28/28 27/27/27 36/36/36 39/39/39 
f 29/29/29 28/28/28 39/39/39 40/40/40 
f 38/38/38 23/23/23 30/30/30 41/41/41 
f 31/31/31 29/29/29 40/40/40 42/42/42 
f 32/32/32 31/31/31 42/42/42 43/43/43 
f 33/33/33 32/32/32 43/43/43 44/44/44 
f 30/30/30 33/33/33 44/44/44 41/41/41 
f 44/44/44 43/43/43 45/45/45 46/46/46 
f 45/45/45 47/47/47 48/48/48 46/46/46 
f 39/39/39 36/36/36 49/49/49 50/50/50 
f 49/49/49 51/51/42 47/47/47 45/45/45 
f 50/50/50 49/49/49 45/45/45 
f 40/40/40 39/39/39 50/50/50 45/45/45 
f 40/40/40 45/45/45 43/43/43 42/42/42 
f 41/41/41 44/44/44 46/46/46 52/52/51 
f 41/41/41 52/52/51 37/37/37 38/38/38 
f 11/11/11 15/15/15 2/2/2 
f 9/9/9 19/19/19 25/25/25 53/53/52 
f 11/11/11 2/2/2 1/1/1 54/54/53 
f 54/54/53 1/1/1 5/5/5 55/55/54 
f 55/55/54 5/5/5 7/7/7 56/56/55 
f 56/56/55 7/7/7 9/9/9 53/53/52 
f 11/11/11 54/54/53 57/57/56 12/12/12 
f 54/54/53 55/55/54 58/58/57 57/57/56 
f 55/55/54 56/56/55 59/59/58 58/58/57 
f 59/59/58 56/56/55 53/53/52 60/60/59 
f 25/25/25 24/24/24 61/61/60 53/53/52 
f 60/60/59 53/53/52 61/61/60 
f 34/34/34 27/27/27 26/26/26 
f 24/24/24 37/37/37 62/62/61 61/61/60 
f 62/62/61 37/37/37 52/52/51 63/63/62 
f 63/63/62 52/52/51 46/46/46 48/48/48 
f 64/64/63 65/65/64 66/66/65 67/67/66 
f 68/68/67 69/69/68 65/65/64 64/64/63 
f 70/70/69 71/71/70 69/69/68 68/68/67 
f 72/72/71 73/73/72 71/71/70 70/70/69 
f 13/74/13 12/75/12 74/76/73 75/77/74 
f 76/78/75 75/77/74 74/76/73 
f 66/66/65 77/79/76 75/77/74 76/78/75 
f 66/66/65 76/78/75 67/67/66 
f 78/80/77 73/73/72 72/72/71 79/81/78 
f 80/82/79 79/81/78 72/72/71 
f 65/65/64 81/83/80 77/79/76 66/66/65 
f 69/69/68 82/84/81 81/83/80 65/65/64 
f 71/71/70 83/85/82 82/84/81 69/69/68 
f 73/73/72 78/80/77 83/85/82 71/71/70 
f 84/86/83 79/81/78 80/82/79 85/87/84 
f 86/88/85 85/87/84 80/82/79 
f 75/89/74 87/90/86 88/91/87 13/13/13 
f 88/91/87 26/26/26 13/13/13 
f 77/79/76 89/92/88 87/90/86 75/77/74 
f 79/81/78 84/86/83 90/93/89 78/80/77 
f 81/83/80 91/94/90 89/92/88 77/79/76 
f 82/84/81 92/95/91 91/94/90 81/83/80 
f 83/85/82 93/96/92 92/95/91 82/84/81 
f 78/80/77 90/93/89 93/96/92 83/85/82 
f 88/91/87 36/36/36 35/35/35 34/34/34 
f 94/97/93 95/98/94 84/86/83 85/87/84 
f 87/90/86 96/99/95 36/36/36 88/91/87 
f 89/92/88 97/100/96 96/99/95 87/90/86 
f 95/98/94 98/101/97 90/93/89 84/86/83 
f 91/94/90 99/102/98 97/100/96 89/92/88 
f 92/95/91 100/103/99 99/102/98 91/94/90 
f 93/96/92 101/104/100 100/103/99 92/95/91 
f 90/93/89 98/101/97 101/104/100 93/96/92 
f 101/104/100 102/105/101 103/106/102 100/103/99 
f 103/106/102 102/105/101 48/48/48 47/47/47 
f 96/99/95 104/107/103 49/49/49 36/36/36 
f 47/47/98 51/51/42 49/49/42 
f 103/106/102 47/47/104 49/49/104 
f 104/107/103 103/106/102 49/49/49 
f 97/100/96 103/106/102 104/107/103 96/99/95 
f 97/100/96 99/102/98 100/103/99 103/106/102 
f 98/101/97 105/108/105 102/105/101 101/104/100 
f 98/101/97 95/98/94 94/97/93 105/108/105 
f 74/76/73 67/67/66 76/78/75 
f 72/72/71 106/109/106 86/88/85 80/82/79 
f 74/76/73 107/110/107 64/64/63 67/67/66 
f 107/110/107 108/111/108 68/68/67 64/64/63 
f 108/111/108 109/112/109 70/70/69 68/68/67 
f 109/112/109 106/109/106 72/72/71 70/70/69 
f 74/113/73 12/12/12 57/57/56 107/114/107 
f 107/114/107 57/57/56 58/58/57 108/115/108 
f 108/115/108 58/58/57 59/59/58 109/116/109 
f 59/59/58 60/60/59 106/117/106 109/116/109 
f 61/61/60 85/87/84 86/88/85 106/109/106 
f 60/118/59 61/61/60 106/109/106 
f 34/34/34 26/26/26 88/91/87 
f 85/87/84 61/61/60 62/62/61 94/97/93 
f 62/62/61 63/63/62 105/108/105 94/97/93 
f 63/63/62 48/48/48 102/105/101 105/108/105 
# 97 polygons - 20 triangles

